<svg width="389" height="464" viewBox="0 0 389 464" fill="none" xmlns="http://www.w3.org/2000/svg">
<path d="M235.2 310L235.8 312L235.1 315.1L236 318.1L235.1 320.5L235.5 322.7L223.8 322.6L223 343.1L226.6 348.3L230.2 352.3L219.8 354.9L206.3 354L202.5 351L179.8 351.2L179 351.7L175.7 348.8L172.1 348.6L168.7 349.7L166 350.9L165.5 346.9L166.4 341.2L168.4 335.3L168.7 332.6L170.6 326.8L172 324.2L175.3 320L177.2 317.1L177.8 312.4L177.5 308.7L175.9 306.4L174.4 302.5L173.1 298.7L173.4 297.3L175.1 294.8L173.5 288.6L172.3 284.3L169.5 280.2L170.1 279L172.4 278.1L174.1 278.2L176.1 277.5L192.8 277.6L194.1 282.3L195.7 286.2L197 288.3L199.1 291.6L202.9 291.1L204.7 290.2L207.8 291.1L208.7 289.5L210.2 285.8L213.7 285.5L214 284.4H216.9L216.4 286.7L223.2 286.6L223.3 290.7L224.4 293.1L223.5 297L223.9 301L225.7 303.4L225.3 311L226.7 310.4L229.1 310.6L232.6 309.6L235.2 310Z" fill="#FFD966"/>
<path d="M169.3 277L167.8 272.2L170.1 269.4L171.8 268.3L173.9 270.5L171.9 271.9L170.9 273.5L170.7 276.3L169.3 277Z" fill="#FFD966"/>
<path d="M268.9 268.4L268.3 268.5V268.2L266.3 262.1L266.29 262.04L266.2 261L264.8 258.1L268.3 258.6L270 254.9L273.1 255.3L273.4 257.8L274.6 259.3V261.4L273.2 262.7L270.9 266.1L268.9 268.4Z" fill="#FFD966"/>
<path d="M102.5 144L102 147.1L102.8 150L105.9 154.2L106.1 157.3L112.6 158.8L112.5 163.2L111.3 165.1L108.5 165.7L107.4 168.5L105.4 169.2L100.5 169.1L97.9 168.6L96.1 169.6L93.6 169.1L83.8 169.4L83.6 173.1L84.4 177.9L80.5 176.3L77.9 176.5L75.9 178.1L73.4 176.8L72.4 174.6L69.9 173.2L69.5 169.5L71.1 166.8L70.9 164.6L75.4 159.3L76.3 154.9L77.8 153.3L80.5 154.2L82.9 152.9L83.7 151.2L88 148.4L89.1 146.4L94.4 143.7L97.5 142.8L98.9 144H102.5Z" fill="#FFD966"/>
<path d="M241.6 353.7L243.5 358.8L244.6 360L246.2 363.7L252.3 370.7L254.6 371.4L254.5 373.7L256 377.8L260.3 378.8L263.7 381.7L255.6 386.4L250.4 391.2L248.4 395.5L246.6 397.9L243.6 398.4L242.4 401.5L241.8 403.5L238.2 404.9L233.7 404.6L231.2 402.8L228.9 402.1L226.1 403.5L224.6 406.6L221.9 408.5L219.1 411.4L215.1 412.1L214 409.8L214.6 405.9L211.6 399.8L210.2 398.8L210.8 380.1L216.3 379.9L217.1 357L221.3 356.8L230 354.5L232 357.2L235.7 354.7H237.4L240.6 353.2L241.6 353.7Z" fill="#FFD966"/>
<path d="M235.3 184.5L239.2 187L242.3 189.6L242.4 191.7L246.3 195L248.7 197.8L250.1 201.6L254.4 204.2L255.3 206.2L253.5 206.9L249.8 206.8L245.6 206.1L243.5 206.6L242.6 208.2L240.8 208.4L238.6 207L232.3 210.2L229.7 209.6L228.9 210.1L227.3 214L223 212.7L218.9 212.1L215.3 209.7L210.6 207.5L207.6 209.6L205.4 212.8L204.9 217.3L201.3 217L197.4 215.9L194.1 219.3L191.1 225.3L190.5 223.4L190.2 220.5L187.6 218.4L185.5 215.1L185 212.8L182.3 209.4L182.8 207.5L182.2 204.8L182.6 199.8L184 198.7L186.8 192.2L191.4 191.7L192.4 190L193.4 190.2L194.8 191.6L201.9 189.2L204.3 186.7L207.2 184.4L206.6 182.2L208.2 181.6L213.7 182L218.9 179L222.9 172L225.7 169.4L229.3 168.3L230 171L233.3 175V177.7L232.5 180.3L232.9 182.3L234.8 184.2L235.3 184.5Z" fill="#FFD966"/>
<path d="M69.9 173.2L72.4 174.6L73.4 176.8L75.9 178.1L77.9 176.5L80.5 176.3L84.4 177.9L85.9 187.1L83.5 192.4L82 199.7L84.4 205.2L84.2 207.8H81.6L77.7 206.6H74L67.3 207.8L63.4 209.6L57.8 212L56.7 211.8L57.1 206.5L57.7 205.7L57.5 203.2L55.1 200.5L53.3 200.1L51.7 198.3L52.9 195.4L52.4 192.3L52.6 190.5H53.5L53.9 187.7L53.5 186.4L54 185.5L56.1 184.8L54.7 179.6L53.4 177L53.9 174.8L55 174.3L55.8 173.7L57.3 174.7H61.7L62.7 172.9L63.7 173L65.3 172.3L66.2 175L67.5 174.2L69.9 173.2Z" fill="#FFD966"/>
<path d="M186.8 192.2L184 198.7L182.6 199.8L182.2 204.8L182.8 207.5L182.3 209.4L185 212.8L185.5 215.1L187.6 218.4L190.2 220.5L190.5 223.4L191.1 225.3L190.7 228.7L186.2 227.2L181.6 225.5L174.5 225.3L173.8 224.9L170.4 225.7L167 224.9L164.3 225.3L155 225.2L155.9 220.1L153.6 215.8L151 214.8L149.9 211.9L148.4 211L148.5 209.2L149.9 204.6L152.6 198.4H154.2L157.6 194.6L159.7 194.5L162.9 197.2L166.8 195L167.3 192.3L168.6 189.7L169.4 186.5L172.4 183.9L173.5 179.4L174.7 177.9L175.5 174.6L176.9 170.5L181.6 165.5L181.9 163.4L182.5 162.2L180.2 159.7L180.4 157.6L181.9 157.3L184.2 161.4L184.7 165.6L184.5 169.9L187.7 175.7H184.5L182.9 176.1L180.3 175.5L179.1 178.5L182.5 182.3L185 183.4L185.8 186L187.6 190.4L186.8 192.2Z" fill="#FFD966"/>
<path d="M255.3 206.2L258.8 211.5L261.4 212.3L262.9 211.2L265.5 211.6L268.6 210.3L270 213L275.1 217.3L274.8 224.8L277.1 225.7L275.2 227.9L273.1 229.7L270.9 233L269.7 236L269.4 241.1L268.1 243.6L268 248.4L266.4 250.2L266.2 254L265.4 254.5L264.8 258.1L266.2 261L266.3 262L265.1 272.3L266.6 275.9L265.6 278.6L267.4 283.2L270.8 286.7L271.5 290.2L273.1 291.9L272.8 293L271.9 292.7L264.2 293.8L262.7 294.6L261 298.7L262.2 301.5L261.1 309.1L260.2 315.5L261.7 316.7L265.6 319.2L267.2 318L267.4 324.9H263.1L260.9 321.4L258.9 318.6L254.6 317.7L253.4 314.4L249.9 316.4L245.5 315.5L243.6 312.6L240.1 312L237.4 312.1L237.1 310.1L235.2 310L232.6 309.6L229.1 310.6L226.7 310.4L225.3 311L225.7 303.4L223.9 301L223.5 297L224.4 293.1L223.3 290.7L223.2 286.6L216.4 286.7L216.9 284.4H214L213.7 285.5L210.2 285.8L208.7 289.5L207.8 291.1L204.7 290.2L202.9 291.1L199.1 291.6L197 288.3L195.7 286.2L194.1 282.3L192.8 277.6L176.1 277.5L174.1 278.2L172.4 278.1L170.1 279L169.3 277L170.7 276.3L170.9 273.5L171.9 271.9L173.9 270.5L175.4 271.2L177.4 268.7L180.5 268.8L180.8 270.6L182.9 271.7L186.3 267.7L189.6 264.6L191 262.5L190.9 257.2L193.4 251L196 247.7L199.7 244.6L200.4 242.6L200.5 240.2L201.4 238L201.1 234.3L201.8 228.6L202.9 224.6L204.6 221.2L204.9 217.3L205.4 212.8L207.6 209.6L210.6 207.5L215.3 209.7L218.9 212.1L223 212.7L227.3 214L228.9 210.1L229.7 209.6L232.3 210.2L238.6 207L240.8 208.4L242.6 208.2L243.5 206.6L245.6 206.1L249.8 206.8L253.5 206.9L255.3 206.2Z" fill="#FFD966"/>
<path d="M204.9 217.3L204.6 221.2L202.9 224.6L201.8 228.6L201.1 234.3L201.4 238L200.5 240.2L200.4 242.6L199.7 244.6L196 247.7L193.4 251L190.9 257.2L191 262.5L189.6 264.6L186.3 267.7L182.9 271.7L180.8 270.6L180.5 268.8L177.4 268.7L175.4 271.2L173.9 270.5L171.8 268.3L170.1 269.4L167.8 272.2L163.2 265.4L167.5 261.8L165.4 257.6L167.4 256L171.2 255.2L171.6 252.3L174.7 255.4L179.7 255.7L181.4 252.7L182.1 248.4L181.5 243.4L178.8 239.6L181.3 232.1L179.9 230.9L175.7 231.4L174.1 228.1L174.5 225.3L181.6 225.5L186.2 227.2L190.7 228.7L191.1 225.3L194.1 219.3L197.4 215.9L201.3 217L204.9 217.3Z" fill="#FFD966"/>
<path d="M342.9 158.3L341.2 159.9L338.8 159.3L336.8 157.2L334.3 153.5L331.7 151.4L330.2 149.2L325.2 146.6L321.3 146.5L319.9 145.2L316.7 146.7L313.1 143.8L311.6 148.6L305 147.2L304.3 144.7L306.3 135.2L306.6 131L308.3 129L312.3 127.9L315 124.3L318.6 131.7L320.5 137.6L323.7 140.7L331.7 146.8L335 150.4L338.2 154.2L340 156.4L342.9 158.3Z" fill="#FFD966"/>
<path d="M321.3 146.5L325.2 146.6L330.2 149.2L331.7 151.4L334.3 153.5L336.8 157.2L338.8 159.3L336.9 162.1L335.1 165.1L335.6 166.9L335.8 168.9L339 169L340.3 168.5L341.6 169.7L340.4 171.9L342.6 175.5L344.8 178.6L347 180.9L365.7 188.5L370.5 188.4L354.9 207.7L347.6 208L342.6 212.5L339 212.6L337.5 214.7H333.6L331.3 212.5L326.1 215.2L324.5 217.9L320.7 217.3L319.4 216.6L318.1 216.8L316.3 216.7L309.1 211.3H305.1L303.2 209.2L303.1 205.6L300.2 204.5L296.7 197.5L294.1 196L293.1 193.4L290.1 190.3L286.6 189.8L288.5 186.2L291.5 186L292.3 184.1L292.1 179.1V178.3L293.6 171.6L296.2 169.8L296.7 167.2L299 162.2L302.3 159.1L304.3 152.7L305 147.2L311.6 148.6L313.1 143.8L316.7 146.7L319.9 145.2L321.3 146.5Z" fill="#FFD966"/>
<path d="M174.5 225.3L174.1 228.1L175.7 231.4L179.9 230.9L181.3 232.1L178.8 239.6L181.5 243.4L182.1 248.4L181.4 252.7L179.7 255.7L174.7 255.4L171.6 252.3L171.2 255.2L167.4 256L165.4 257.6L167.5 261.8L163.2 265.4L157.4 258.9L153.7 253.6L150.2 247L150.4 244.8L151.7 242.8L153 238.1L154.2 233.3L156.1 233H164.3V225.3L167 224.9L170.4 225.7L173.8 224.9L174.5 225.3Z" fill="#FFD966"/>
<path d="M35.5 159.9L35.8 162.3H36.7L38.2 161.4L39.1 161.6L40.7 163.3L43.1 163.8L44.6 162.4L46.5 161.5L47.8 160.6L48.9 160.8L50.2 162.2L50.8 164L53.1 166.7L52 168.3L51.7 170.4L52.9 169.8L53.6 170.5L53.3 172.4L55 174.3L53.9 174.8L53.4 177L54.7 179.6L56.1 184.8L54 185.5L53.5 186.4L53.9 187.7L53.5 190.5H52.6L51 190.3L49.9 192.9H48.3L47.2 191.5L47.6 188.9L45.2 185L43.8 185.7L42.5 185.9L41 186.2L41.1 183.9L40.2 182.2L40.4 180.3L39.2 177.6L37.6 175.3H33.1L31.8 176.5L30.2 176.7L29.2 178.1L28.6 179.8L25.5 182.7L23.1 178.9L20.9 176.4L19.5 175.5L18.1 174.2L17.5 171.4L16.7 170L15 168.9L17.6 165.8L19.3 165.9L20.8 164.9L22 164.8L22.9 164L22.5 161.9L23.1 161.2L23.2 159L25.9 159.1L30 160.6L31.2 160.5L31.6 159.8L34.7 160.3L35.5 159.9Z" fill="#FFD966"/>
<path d="M164.3 225.3V233H156.1L154.2 233.3L153.1 232.4L155 225.2L164.3 225.3Z" fill="#FFD966"/>
<path d="M337.5 214.7L332.6 221.9L332.8 245.3L336.1 250.6L332.1 253.2L330.7 255.9L328.5 256.3L327.7 260.9L325.8 263.5L324.7 267.7L322.4 269.8L314.3 263.4L314 259.7L293.5 246.6L293.9 241.9L292.5 239.4V239.1L294.1 236.5L296.9 232.3L299 227.6L296.4 220.2L295.7 217L293 212.5L296.4 208.7L300.2 204.5L303.1 205.6L303.2 209.2L305.1 211.3H309.1L316.3 216.7L318.1 216.8L319.4 216.6L320.7 217.3L324.5 217.9L326.1 215.2L331.3 212.5L333.6 214.7H337.5Z" fill="#FFD966"/>
<path d="M52.6 190.5L52.4 192.3L52.9 195.4L51.7 198.3L53.3 200.1L55.1 200.5L57.5 203.2L57.7 205.7L57.1 206.5L56.7 211.8L55.2 211.9L49.4 208.8L44.2 203.9L39.4 200.4L35.6 196.3L37 194.2L37.3 192.3L39.9 188.9L42.5 185.9L43.8 185.7L45.2 185L47.6 188.9L47.2 191.5L48.3 192.9H49.9L51 190.3L52.6 190.5Z" fill="#FFD966"/>
<path d="M253.1 435.9L251.1 436.6L247.4 431.6L250.6 427.6L253.7 425.1L256.4 423.7L258.6 425.7L260.3 427.7L258.4 430.8L257.3 432.9L254.2 433.9L253.1 435.9Z" fill="#FFD966"/>
<path d="M381.9 326.9L382.3 334.6L383.6 337.6L382.9 340.7L381.7 342.5L380.1 338.8L378.9 340.7L379.7 345.4L379 348.2L377.3 349.6L376.6 355.1L373.9 362.6L370.5 371.4L366.2 383.6L363.3 392.5L360.2 400L355.6 401.5L350.5 404.2L347.5 402.6L343.3 400.3L342.1 396.9V391.2L340.6 386.1L340.4 381.4L341.7 376.8L344.3 375.7L344.5 373.6L347.4 368.7L348.2 364.6L347.1 361.6L346.3 357.5L346.2 351.6L348.4 348L349.4 343.9L352.2 343.7L355.4 342.4L357.6 341.2L360 341.1L363.4 337.5L368.3 333.5L370.1 330.3L369.5 327.5L371.9 328.3L375.2 323.9L375.5 320L377.5 317.1L379.3 319.9L380.7 322.6L381.9 326.9Z" fill="#FFD966"/>
<path d="M124.2 116.8L124.3 131.6L121.2 135.9L120.8 139.9L115.8 140.9L108.1 141.4L106.1 143.7L102.5 144H98.9L97.5 142.8L94.4 143.7L89.1 146.4L88 148.4L83.7 151.2L82.9 152.9L80.5 154.2L77.8 153.3L76.3 154.9L75.4 159.3L70.9 164.6L71.1 166.8L69.5 169.5L69.9 173.2L67.5 174.2L66.2 175L65.3 172.3L63.7 173L62.7 172.9L61.7 174.7H57.3L55.8 173.7L55 174.3L53.3 172.4L53.6 170.5L52.9 169.8L51.7 170.4L52 168.3L53.1 166.7L50.8 164L50.2 162.2L48.9 160.8L47.8 160.6L46.5 161.5L44.6 162.4L43.1 163.8L40.7 163.3L39.1 161.6L38.2 161.4L36.7 162.3H35.8L35.5 159.9L35.8 157.9L35.3 155.5L33.3 153.7L32.2 150L32 146L33.9 144.8L34.9 141L36.7 140.9L40.6 142.7L43.8 141.4L45.9 141.8L46.8 140.4L69.3 140.3L70.6 135.8L69.6 135L67.1 107.3L64.7 79.6L73.2 79.5L91.8 93.5L110.5 107.5L111.8 110.5L115.3 112.3L117.9 113.4L118 117.5L124.2 116.8Z" fill="#FFD966"/>
<path d="M280.7 411.5H276.6L276.3 408.6L275.7 405.7L275.3 403.4L276.7 396.3L275.6 391.7L273.4 382.7L279.6 375.4L281.3 370.8L282.1 370.2L283 366.4L282.2 364.5L282.6 359.7L283.9 355.3L284.3 347.1L281.5 345.1L278.8 344.6L277.7 343L275.1 341.7L270.4 341.8L270.2 339.4L269.8 334.8L287 329.5L290.2 332.6L291.7 332L293.9 333.6L294.1 336.2L292.8 339.2L293 343.7L296.5 347.7L298.4 343.2L300.9 341.9L300.8 333.6L298.6 329L296.7 326.9H296.3L295.7 319.6L297.2 313.5L299.4 313.3L306.1 315.1L307.6 314.3L311.5 314.1L313.6 312.2L317 312.3L323.2 309.8L327.8 306.1L328.7 308.9L328.2 315.3L328.7 321L328.5 331L329.3 334.1L327.4 338.7L325 343.2L321.3 347.2L316 349.6L309.5 352.7L302.9 359.6L300.7 360.8L296.5 365.4L294.2 366.8L293.4 371.4L295.8 376.3L296.7 380V382L297.7 381.6L297.2 387.9L296.1 390.9L297.3 392L296.3 394.7L293.9 397L289.2 399.1L282.3 402.6L279.8 405L280.1 407.7L281.4 408.1L280.7 411.5Z" fill="#FFD966"/>
<path d="M296.3 326.9H296.7L298.6 329L300.8 333.6L300.9 341.9L298.4 343.2L296.5 347.7L293 343.7L292.8 339.2L294.1 336.2L293.9 333.6L291.7 332L290.2 332.6L287 329.5L284.1 327.9L286.1 321.9L287.9 319.7L287 314.3L288.3 309.1L289.3 307.4L288 302L285.4 299.1L290.9 300.3L291.9 302L291.8 302.8L293.6 306.9L293.8 314.6L292 318.2L293.6 322.9L293.4 325.7L294.6 327.6L294.5 330L295.4 331.4L296.4 329.8L298.3 332.3L298.5 331.5L297.5 328.1L296.4 327.8L296.3 326.9Z" fill="#FFD966"/>
<path d="M230.2 352.3L234.8 350.9L238.4 351.2L240.6 352.7V353.2L237.4 354.7H235.7L232 357.2L230 354.5L221.3 356.8L217.1 357L216.3 379.9L210.8 380.1L210.2 398.8L209.1 422.5L204.1 425.8L201.2 426.3L197.8 425.1L195.3 424.6L194.5 421.9L192.5 420.1L189.7 423.3L185.8 418.4L183.8 413.8L182.8 407.5L181.6 402.9L180 393L180.1 385.3L179.5 381.8L177.4 379.1L174.6 373.8L171.8 366.1L170.7 362.1L166.3 355.8L166 350.9L168.7 349.7L172.1 348.6L175.7 348.8L179 351.7L179.8 351.2L202.5 351L206.3 354L219.8 354.9L230.2 352.3Z" fill="#FFD966"/>
<path d="M182.6 93L184.2 103L186.4 104.7L186.5 106.7L188.9 108.9L187.7 111.7L185.9 124.7L185.7 133.1L178.7 139.1L176.4 147.6L178.8 150V154.1L182.5 154.2L181.9 157.3L180.4 157.6L180.2 159.7L179.2 159.8L175.3 152.8L173.9 152.5L169.6 156.1L165.2 154.2L162.2 153.9L160.6 154.8L157.3 154.6L154 157.3L151.1 157.5L144.3 154.2L141.6 155.7L138.7 155.6L136.6 153.2L131 150.8L124.9 151.6L123.5 152.9L122.7 156.6L121.1 159.2L120.7 165L116.4 161.3H114.4L112.5 163.2L112.6 158.8L106.1 157.3L105.9 154.2L102.8 150L102 147.1L102.5 144L106.1 143.7L108.1 141.4L115.8 140.9L120.8 139.9L121.2 135.9L124.3 131.6L124.2 116.8L132 114L148 101.4L166.8 89.1L175.6 91.9L178.8 95.4L182.6 93Z" fill="#FFD966"/>
<path d="M272.8 247.1L275 250.7L274.7 254.5L273.1 255.3L270 254.9L268.3 258.6L264.8 258.1L265.4 254.5L266.2 254L266.4 250.2L268 248.4L269.4 249.1L272.8 247.1Z" fill="#FFD966"/>
<path d="M305 147.2L304.3 152.7L302.3 159.1L299 162.2L296.7 167.2L296.2 169.8L293.6 171.6L292.1 178.3V179.1L291.3 178.9L291.4 175.7L290.6 173.5L287.7 171L286.8 166.4L287.4 161.6L284.8 161.2L284.4 162.6L281 163L282.5 164.8L283 168.7L280 172.2L277.3 176.8L274.4 177.5L269.6 173.8L267.5 175.1L267 176.9L264.1 178.2L263.9 179.5H258.3L257.5 178.2L253.4 177.9L251.4 179L249.8 178.5L246.9 174.7L245.9 173L241.8 173.9L240.3 176.8L239 182.6L237 183.8L235.3 184.5L234.8 184.2L232.9 182.3L232.5 180.3L233.3 177.7V175L230 171L229.3 168.3V166.7L227.2 164.8L227.1 161.1L225.8 158.6L223.9 159L224.4 156.6L225.8 154L225.1 151.3L226.9 149.3L225.7 147.8L227 143.9L229.5 139.1L234.3 139.6L233.2 114.1V111.4H239.6L239.1 98.6H261.4H282.9H305L307.1 104.9L305.9 106L307.1 112.7L309.6 120.3L311.8 121.9L315 124.3L312.3 127.9L308.3 129L306.6 131L306.3 135.2L304.3 144.7L305 147.2Z" fill="#FFD966"/>
<path d="M292.1 179.1L292.3 184.1L291.5 186L288.5 186.2L286.6 189.8L290.1 190.3L293.1 193.4L294.1 196L296.7 197.5L300.2 204.5L296.4 208.7L293 212.5L289.5 215.5H285.5L281 217L277.4 215.5L275.1 217.3L270 213L268.6 210.3L265.5 211.6L262.9 211.2L261.4 212.3L258.8 211.5L255.3 206.2L254.4 204.2L250.1 201.6L248.7 197.8L246.3 195L242.4 191.7L242.3 189.6L239.2 187L235.3 184.5L237 183.8L239 182.6L240.3 176.8L241.8 173.9L245.9 173L246.9 174.7L249.8 178.5L251.4 179L253.4 177.9L257.5 178.2L258.3 179.5H263.9L264.1 178.2L267 176.9L267.5 175.1L269.6 173.8L274.4 177.5L277.3 176.8L280 172.2L283 168.7L282.5 164.8L281 163L284.4 162.6L284.8 161.2L287.4 161.6L286.8 166.4L287.7 171L290.6 173.5L291.4 175.7L291.3 178.9L292.1 179.1Z" fill="#FFD966"/>
<path d="M32 146L32.2 150L33.3 153.7L35.3 155.5L35.8 157.9L35.5 159.9L34.7 160.3L31.6 159.8L31.2 160.5L30 160.6L25.9 159.1L23.2 159L12.8 158.7L11.3 159.5L9.40002 159.3L6.40002 160.3L5.59998 155.4L10.7 155.5L12.1 154.6H13.1L15.2 153.1L17.6 154.4L20 154.6L22.5 153.1L21.4 151.3L19.5 152.3H17.8L15.6 150.7L13.8 150.8L12.5 152.4L6.40002 152.5L4.09998 147.5L1.40002 145.3L3.90002 144L6.70001 139.5L8.09998 136.2L10.1 134.2L12.8 134.7L15.6 133.3H18.7L21.4 135.1L25 136.8L28.4 141.6L32 146Z" fill="#FFD966"/>
<path d="M42.5 185.9L39.9 188.9L37.3 192.3L37 194.2L35.6 196.3L34.1 195.8L30.1 193.2L27.1 189.8L26.2 187.4L25.5 182.7L28.6 179.8L29.2 178.1L30.2 176.7L31.8 176.5L33.1 175.3H37.6L39.2 177.6L40.4 180.3L40.2 182.2L41.1 183.9L41 186.2L42.5 185.9Z" fill="#FFD966"/>
<path d="M275.7 405.7L276.3 408.6L276.6 411.5L275.2 414.3L272 415L268.9 411.5L269 409.3L270.7 406.9L271.3 405L273 404.6L275.7 405.7Z" fill="#FFD966"/>
<path d="M233.2 114.1L234.3 139.6L229.5 139.1L227 143.9L225.7 147.8L226.9 149.3L225.1 151.3L225.8 154L224.4 156.6L223.9 159L225.8 158.6L227.1 161.1L227.2 164.8L229.3 166.7V168.3L225.7 169.4L222.9 172L218.9 179L213.7 182L208.2 181.6L206.6 182.2L207.2 184.4L204.3 186.7L201.9 189.2L194.8 191.6L193.4 190.2L192.4 190L191.4 191.7L186.8 192.2L187.6 190.4L185.8 186L185 183.4L182.5 182.3L179.1 178.5L180.3 175.5L182.9 176.1L184.5 175.7H187.7L184.5 169.9L184.7 165.6L184.2 161.4L181.9 157.3L182.5 154.2L178.8 154.1V150L176.4 147.6L178.7 139.1L185.7 133.1L185.9 124.7L187.7 111.7L188.9 108.9L186.5 106.7L186.4 104.7L184.2 103L182.6 93L188.1 89.5L210.6 101.8L233.2 114.1Z" fill="#FFD966"/>
<path d="M281 246.4L280.8 250.3L279.7 254.8L281.3 257.3L283.8 255.8L287.1 255.4L287.8 256.2L291.1 254.6L288.8 252.4L290.7 249.5L293.5 246.6L314 259.7L314.3 263.4L322.4 269.8L319.6 277.8L319.9 281.4L323.4 283.7L323.6 285.4L321.9 289.3L322.2 291.2L321.8 294.3L323.6 298.3L325.8 304.7L327.8 306.1L323.2 309.8L317 312.3L313.6 312.2L311.5 314.1L307.6 314.3L306.1 315.1L299.4 313.3L297.2 313.5L297.3 313.4L295.5 311L295.2 304.2L292.3 300.8L291.9 302L290.9 300.3L285.4 299.1L282.2 297.2L278.6 296.1L276.4 295L276.1 294.8L273.4 288.2L273 284.3L268.5 279.9L269.9 277.5L268.8 274.9L269 272.2L268 271.3L268.3 268.5L268.9 268.4L270.9 266.1L273.2 262.7L274.6 261.4V259.3L273.4 257.8L273.1 255.3L274.7 254.5L275 250.7L272.8 247.1L274.8 246.3L281 246.4Z" fill="#FFD966"/>
<path d="M293 212.5L295.7 217L296.4 220.2L299 227.6L296.9 232.3L294.1 236.5L292.5 239.1V239.4L292.3 239L289.3 237.7L286.9 239.3L283.3 240.2L280.7 243.9L281 246.4L274.8 246.3L272.8 247.1L269.4 249.1L268 248.4L268.1 243.6L269.4 241.1L269.7 236L270.9 233L273.1 229.7L275.2 227.9L277.1 225.7L274.8 224.8L275.1 217.3L277.4 215.5L281 217L285.5 215.5H289.5L293 212.5Z" fill="#FFD966"/>
<path d="M276.1 294.8L276.4 295L278.6 296.1L282.2 297.2L285.4 299.1L288 302L289.3 307.4L288.3 309.1L287 314.3L287.9 319.7L286.1 321.9L284.1 327.9L287 329.5L269.8 334.8L270.2 339.4L265.9 340.3L262.6 342.8L261.8 345L259.8 345.6L254.7 350.8L251.5 355L249.6 355.1L247.8 354.4L241.6 353.7L240.6 353.2V352.7L238.4 351.2L234.8 350.9L230.2 352.3L226.6 348.3L223 343.1L223.8 322.6L235.5 322.7L235.1 320.5L236 318.1L235.1 315.1L235.8 312L235.2 310L237.1 310.1L237.4 312.1L240.1 312L243.6 312.6L245.5 315.5L249.9 316.4L253.4 314.4L254.6 317.7L258.9 318.6L260.9 321.4L263.1 324.9H267.4L267.2 318L265.6 319.2L261.7 316.7L260.2 315.5L261.1 309.1L262.2 301.5L261 298.7L262.7 294.6L264.2 293.8L271.9 292.7L272.8 293L272.5 294.4L274.4 294.9L275.6 296.2L276.6 295.9L276.1 294.8Z" fill="#FFD966"/>
<path d="M273.4 382.7L270.5 382L268.6 382.8L265.9 381.7H263.7L260.3 378.8L256 377.8L254.5 373.7L254.6 371.4L252.3 370.7L246.2 363.7L244.6 360L243.5 358.8L241.6 353.7L247.8 354.4L249.6 355.1L251.5 355L254.7 350.8L259.8 345.6L261.8 345L262.6 342.8L265.9 340.3L270.2 339.4L270.4 341.8L275.1 341.7L277.7 343L278.8 344.6L281.5 345.1L284.3 347.1L283.9 355.3L282.6 359.7L282.2 364.5L283 366.4L282.1 370.2L281.3 370.8L279.6 375.4L273.4 382.7Z" fill="#FFD966"/>
<path d="M336.1 250.6L332.8 245.3L332.6 221.9L337.5 214.7L339 212.6L342.6 212.5L347.6 208L354.9 207.7L370.5 188.4L365.7 188.5L347 180.9L344.8 178.6L342.6 175.5L340.4 171.9L341.6 169.7L343.5 166.2L345.4 167.4L346.6 170.1L349.3 172.8H352.1L357.3 171.1L363.4 170.4L368.3 168.4L371.1 168L373.1 166.8L376.3 166.6L378.1 166.4L380.6 165.5L383.6 164.8L386.1 162.6H388.3L388.5 164.4L388.1 168.1L388.3 171.5L387.2 173.8L385.8 180.8L383.4 187.9L380.1 196.1L375.5 205.5L370.8 212.7L364.2 221.5L358.6 226.7L350.2 233.1L344.9 237.9L338.7 245.7L337.4 249.1L336.1 250.6Z" fill="#FFD966"/>
<path d="M273.4 382.7L275.6 391.7L276.7 396.3L275.3 403.4L275.7 405.7L273 404.6L271.3 405L270.7 406.9L269 409.3L268.9 411.5L272 415L275.2 414.3L276.6 411.5H280.7L279 416.2L278 421.5L276.3 424.4L272.3 427.7L271.2 428.6L268.6 431.9L266.8 435.2L263.3 439.8L256.6 446.4L252.5 450.2L248.2 453.2L242.3 455.6L239.6 456L238.7 457.8L235.5 456.8L232.8 458L227.1 456.8L223.8 457.6L221.6 457.2L215.8 459.8L211.2 460.8L207.7 463.2L205.3 463.4L203.2 461.1L201.4 461L199.2 458.1L198.9 459L198.3 457.3L198.6 453.5L197.1 449.2L198.9 448L199 443.1L195.7 437.1L193.3 431.7V431.6L189.7 423.3L192.5 420.1L194.5 421.9L195.3 424.6L197.8 425.1L201.2 426.3L204.1 425.8L209.1 422.5L210.2 398.8L211.6 399.8L214.6 405.9L214 409.8L215.1 412.1L219.1 411.4L221.9 408.5L224.6 406.6L226.1 403.5L228.9 402.1L231.2 402.8L233.7 404.6L238.2 404.9L241.8 403.5L242.4 401.5L243.6 398.4L246.6 397.9L248.4 395.5L250.4 391.2L255.6 386.4L263.7 381.7H265.9L268.6 382.8L270.5 382L273.4 382.7ZM253.1 435.9L254.2 433.9L257.3 432.9L258.4 430.8L260.3 427.7L258.6 425.7L256.4 423.7L253.7 425.1L250.6 427.6L247.4 431.6L251.1 436.6L253.1 435.9Z" fill="#FFD966"/>
<path d="M347.2 319.3L346.3 319.2L346.1 318.8V318.5L346.6 318.6L347.3 319.1L347.2 319.3Z" fill="#FFD966"/>
<path d="M350.9 317.4L351.1 318.4V319.1L351 319.3L350.8 319L350.4 318.7L350.3 318.5L350 318.4L349.4 318L349.5 317.9L350 318.1L350.3 318L350.5 317.6V317.4L350.8 317.3L350.9 317.4Z" fill="#FFD966"/>
<path d="M345.2 316.4L344.7 316L344.4 315.9L344.1 315.7L343.9 315.1L344 314.8V314.6L344.2 313.4L344.1 313.3L344.3 312.9L344.8 312.8L345 313.1L344.8 314.3L344.9 314.6L345.1 315L345.2 315.5L345.4 316.1L345.2 316.4Z" fill="#FFD966"/>
<path d="M363 300.1L362.7 300.3H362.2L361.8 300.5H361.4V300.3H361.9L362.3 300.2L362.7 299.9H362.9L363 300.1Z" fill="#FFD966"/>
<path d="M362.5 299.8L362.3 299.9H361.9V299.7L362.5 299.8Z" fill="#FFD966"/>
<path d="M354.2 321.1L354.4 321.4L354.9 321.6V321.9L354.7 322.1L354.8 322.3L354.5 322.9L354.6 323.1L354.3 323.2L354.1 322.9V322.6L354.3 322.4L354.1 321.7L354 321.6L353.9 321.4L354.2 321.1Z" fill="#FFD966"/>
<path d="M120.7 165L120.5 167.1L121.8 170.9L120.7 173.5L121.3 175.2L118.5 179.2L116.8 181.2L115.7 185.2L115.9 189.3L115.6 199.6L110.9 200.4L109.5 196L109.8 181.2L108.6 179.9L108.4 176.7L106.4 174.5L104.7 172.6L105.4 169.2L107.4 168.5L108.5 165.7L111.3 165.1L112.5 163.2L114.4 161.3H116.4L120.7 165Z" fill="#FFD966"/>
<path d="M145 2.60001L144 5.89999L145 12L143.9 17.3L140.7 20.9L141.3 25.7L145.8 29.6L145.9 31.1L149.3 33.7L151.9 45.2L153.8 50.9L154.2 53.9L153.4 59.1L153.8 62.1L153.2 65.6L153.8 69.6L151.6 72.3L155 77L155.2 79.7L157.3 83.3L159.8 82.1L164.3 85.1L166.8 89.1L148 101.4L132 114L124.2 116.8L118 117.5L117.9 113.4L115.3 112.3L111.8 110.5L110.5 107.5L91.8 93.5L73.2 79.5L52.7 63.9L52.8 62.7L52.9 62.3L53 54.7L61.9 49.9L67.3 48.9L71.8 47.2L73.9 44L80.3 41.5L80.6 36.7L83.7 36.1L86.2 33.8L93.3 32.7L94.3 30.2L92.9 28.8L91 22L90.7 18.1L88.8 14L93.9 10.5L99.7 9.39999L103 6.79999L108.1 4.79999L117.1 3.70001L125.9 3.20001L128.6 4.10001L133.5 1.60001L139.2 1.5L141.4 3L145 2.60001Z" fill="#FFD966"/>
<path d="M286.1 39.4L290 48.8L290.7 50.4L289.4 53L288.7 57.8L287.5 61.2L286.3 62.3L284.3 60.2L281.6 57.4L276.9 48.2L276.4 48.8L279.2 55.5L283.1 62L288 72L290.3 75.5L292.3 79.1L297.7 86.2L296.7 87.3L297.1 91.5L303.9 97.3L305 98.6H282.9H261.4H239.1L238.1 74.9L236.8 52.1L234.8 46.9L235.9 43L234.9 40.2L236.6 37.1L243.8 37L249.2 38.7L254.7 40.6L257.3 41.6L261.3 39.6L263.4 37.8L268.1 37.2L272 38L273.8 41.2L274.9 39.1L279.3 40.6L283.6 41L286.1 39.4Z" fill="#FFD966"/>
<path d="M100.5 169.1L100.1 171.1L102.4 174.4V179.1L103 184.1L104.4 186.5L103.1 192.2L103.6 195.4L105.1 199.5L106.4 201.8L97.5 205.5L94.3 207.7L89.2 209.6L84.2 207.8L84.4 205.2L82 199.7L83.5 192.4L85.9 187.1L84.4 177.9L83.6 173.1L83.8 169.4L93.6 169.1L96.1 169.6L97.9 168.6L100.5 169.1Z" fill="#FFD966"/>
<path d="M236.6 37.1L234.9 40.2L235.9 43L234.8 46.9L236.8 52.1L238.1 74.9L239.1 98.6L239.6 111.4H233.2V114.1L210.6 101.8L188.1 89.5L182.6 93L178.8 95.4L175.6 91.9L166.8 89.1L164.3 85.1L159.8 82.1L157.3 83.3L155.2 79.7L155 77L151.6 72.3L153.8 69.6L153.2 65.6L153.8 62.1L153.4 59.1L154.2 53.9L153.8 50.9L151.9 45.2L154.5 43.8L154.9 41L154.3 38.4L157.9 35.9L159.5 33.8L162.1 32L162.2 27.1L168.6 29.3L170.9 28.7L175.4 29.8L182.7 32.7L185.5 38.4L190.4 39.6L198.2 42.3L204.2 45.5L206.7 43.8L209.2 40.9L207.6 36L209.1 32.8L212.8 29.8L216.5 29L223.9 30.3L225.9 33.1L227.9 33.2L229.7 34.3L235.1 35L236.6 37.1Z" fill="#FFD966"/>
<path d="M88.8 14L90.7 18.1L91 22L92.9 28.8L94.3 30.2L93.3 32.7L86.2 33.8L83.7 36.1L80.6 36.7L80.3 41.5L73.9 44L71.8 47.2L67.3 48.9L61.9 49.9L53 54.7L52.9 62.3H52L52.1 65.7L48.7 65.9L46.9 67.4H44.4L42.4 66.5L37.8 67.2L35.9 72.2L34.1 72.7L31.4 80.8L23.5 87.7L21.5 96.6L19.1 99.5L18.4 101.8L5.90002 102.3H5.79999L6.09998 99.3L8.29999 97.6L10.2 94.2L9.90002 92L11.9 87.5L15.1 83.4L17 82.4L18.6 78.7L18.8 75.2L20.9 71.3L24.7 68.9L28.3 62.4L28.4 62.3L31.3 59.8L36.4 59.1L40.8 54.7L43.6 53L48.3 47.6L47.1 39.7L49.3 34.1L50.2 30.7L53.8 26.4L59.2 23.5L63.3 20.8L67 14.2L68.8 10.2L72.7 10.3L75.8 13L80.9 12.6L86.4 14H88.8Z" fill="#FFD966"/>
<path d="M73.2 79.5L64.7 79.6L67.1 107.3L69.6 135L70.6 135.8L69.3 140.3L46.8 140.4L45.9 141.8L43.8 141.4L40.6 142.7L36.7 140.9L34.9 141L33.9 144.8L32 146L28.4 141.6L25 136.8L21.4 135.1L18.7 133.3H15.6L12.8 134.7L10.1 134.2L8.09998 136.2L7.70001 132.8L9.29999 129.6L10.1 123.6L9.70001 117.2L9.09998 114L9.70001 110.8L8.29999 107.8L5.5 105L6.79999 102.9H28.5L27.6 93.6L29.1 90.3L34.3 89.8L34.5 73.3L52.5 73.7L52.7 63.9L73.2 79.5Z" fill="#FFD966"/>
<path d="M180.2 159.7L182.5 162.2L181.9 163.4L181.6 165.5L176.9 170.5L175.5 174.6L174.7 177.9L173.5 179.4L172.4 183.9L169.4 186.5L168.6 189.7L167.3 192.3L166.8 195L162.9 197.2L159.7 194.5L157.6 194.6L154.2 198.4H152.6L149.9 204.6L148.5 209.2L142.6 211.5L140.5 211.2L138.3 212.6L133.8 212.5L130.7 208.4L128.8 203.8L124.8 199.6H120.6H115.6L115.9 189.3L115.7 185.2L116.8 181.2L118.5 179.2L121.3 175.2L120.7 173.5L121.8 170.9L120.5 167.1L120.7 165L121.1 159.2L122.7 156.6L123.5 152.9L124.9 151.6L131 150.8L136.6 153.2L138.7 155.6L141.6 155.7L144.3 154.2L151.1 157.5L154 157.3L157.3 154.6L160.6 154.8L162.2 153.9L165.2 154.2L169.6 156.1L173.9 152.5L175.3 152.8L179.2 159.8L180.2 159.7Z" fill="#FFD966"/>
<path d="M52.9 62.3L52.8 62.7L52.7 63.9L52.5 73.7L34.5 73.3L34.3 89.8L29.1 90.3L27.6 93.6L28.5 102.9H6.79999L5.5 105L5.79999 102.3H5.90002L18.4 101.8L19.1 99.5L21.5 96.6L23.5 87.7L31.4 80.8L34.1 72.7L35.9 72.2L37.8 67.2L42.4 66.5L44.4 67.4H46.9L48.7 65.9L52.1 65.7L52 62.3H52.9Z" fill="#FFD966"/>
<path d="M105.4 169.2L104.7 172.6L106.4 174.5L108.4 176.7L108.6 179.9L109.8 181.2L109.5 196L110.9 200.4L106.4 201.8L105.1 199.5L103.6 195.4L103.1 192.2L104.4 186.5L103 184.1L102.4 179.1V174.4L100.1 171.1L100.5 169.1L105.4 169.2Z" fill="#FFD966"/>
<path d="M2.40002 61.4L2.09998 61.9L1.70001 62.4L1.40002 62H1L0.799988 61.8L1 61.5L1.40002 61.6L1.79999 61.2L2.09998 61L2.29999 61.1L2.40002 61.4Z" fill="#FFD966"/>
<path d="M16 59.1V59.6L16.2 60L16 60.7L16.1 61L15.7 61.4L15.2 61.6L15 61.8L14.4 61.6L13.9 61.1L13.7 60.7V60.1L14.3 59.7L14.4 59.2V59L15 59.1H15.4L15.7 59.2L16 59.1Z" fill="#FFD966"/>
<path d="M6.09998 59.9H5.90002L5.59998 59.7L5.40002 59.4L5.5 59L5.59998 58.7H5.90002H6.20001L6.70001 59.1L6.79999 59.4L6.29999 59.9H6.09998Z" fill="#FFD966"/>
<path d="M12.2 56.4V56.6L11.6 56.9L11.2 57.4L10.9 57.6V58L10.5 58.7L10.4 59.1L9.90002 59.7L9.79999 59.9H9.59998L9 60.1L8.90002 60L8.79999 59.6L8.5 59.2L8.40002 59L8.20001 58.7V58.4L7.79999 57.8L8.29999 57.5L8.59998 57.7L9.20001 57.5H9.59998L10.1 57.3L10.6 56.9V56.7L11.2 56.4H11.8L12.1 56.3L12.2 56.4Z" fill="#FFD966"/>
<path d="M22.4 59.2L22.1 59.6L21.7 59.7L21.4 59.6H21V59.4H21.3L21.9 59.2L22.3 58.9L22.6 58.6L22.7 58.1L22.8 57.8L23 57.3L23.3 56.9L23.6 56.3L23.8 55.5L24 55.3L24.4 55.2L24.7 55.5L24.8 56L24.7 56.5L24.6 57V57.5L24.5 57.6L24.2 58.3L23.9 58.6L23.3 58.7L22.6 59L22.4 59.2Z" fill="#FFD966"/>
<path d="M2.79999 54.7L3.09998 54.6L3.29999 54.9L3.5 55.4L3.29999 55.7L3.40002 56.1L2.79999 57.1L2.70001 57L2.59998 56.6L2.20001 55.7L2.09998 55.4L2 55.2L2.20001 54.8L2.5 54.6L2.79999 54.7Z" fill="#FFD966"/>
<path d="M26.9 52.7V53.1L26.7 53.6L26 54.1L25.5 54.2L25.1 54.7L24.6 54.5V54.4L24.8 54V53.6L25 53.3L25.3 53.1H25.6L25.9 52.8H26.4L26.5 52.7L26.7 52.2L26.9 52.1L27.1 52.3L26.9 52.7Z" fill="#FFD966"/>
<path d="M343.5 166.2L341.6 169.7L340.3 168.5L339 169L335.8 168.9L335.6 166.9L335.1 165.1L336.9 162.1L338.8 159.3L341.2 159.9L342.9 158.3L344.3 160.3L344.2 162.9L341.1 164.5L343.5 166.2Z" fill="#FFD966"/>
<path d="M5.59998 155.4L6.40002 152.5L12.5 152.4L13.8 150.8L15.6 150.7L17.8 152.3H19.5L21.4 151.3L22.5 153.1L20 154.6L17.6 154.4L15.2 153.1L13.1 154.6H12.1L10.7 155.5L5.59998 155.4Z" fill="#FFD966"/>
<path d="M23.2 159L23.1 161.2L22.5 161.9L22.9 164L22 164.8L20.8 164.9L19.3 165.9L17.6 165.8L15 168.9L12.1 166.3L9.70001 165.8L8.40002 164L8.5 163L6.79999 161.7L6.40002 160.3L9.40002 159.3L11.3 159.5L12.8 158.7L23.2 159Z" fill="#FFD966"/>
<path d="M162.2 27.1L162.1 32L159.5 33.8L157.9 35.9L154.3 38.4L154.9 41L154.5 43.8L151.9 45.2L149.3 33.7L145.9 31.1L145.8 29.6L141.3 25.7L140.7 20.9L143.9 17.3L145 12L144 5.89999L145 2.60001L150.7 0.100006L154.4 0.799988V4.10001L158.8 1.70001L159.2 2.89999L156.7 6.10001L156.8 9L158.7 10.6L158.2 16.2L154.7 19.4L155.9 22.9L158.7 23L160.1 26.1L162.2 27.1Z" fill="#FFD966"/>
<path d="M137.9 239.3H137.7L137.5 239.6H137.3L137.2 239.2L137 238.4V238.1L137.4 237.6L137.7 237.5L138 237.2L138.4 237.3L138.6 237.7L138.7 238L138.6 238.4L138.4 238.7L138.1 239.1L137.9 239.3Z" fill="#FFD966"/>
<path d="M142.5 229.5L142.4 229.8L142.2 229.9L141.9 229.8V229.5L142.1 229.4V229.1L142.3 228.9L142.6 229L142.5 229.5Z" fill="#FFD966"/>
</svg>
