<svg width="397" height="315" viewBox="0 0 397 315" fill="none" xmlns="http://www.w3.org/2000/svg">
<path d="M173.2 187.7L174.5 192.8H171.7V197L172.8 197.9L170.4 199.2L170.6 201.8L169.3 204.4V207L168.3 208.4L151.4 205.2L148.7 198.6L148.4 197.2L149.3 196.8L149.7 198.6L153.9 197.6L158.5 197.8L161.9 198L165.2 193.6L168.9 189.5L171.9 185.5L173.2 187.7Z" fill="#7DDC7D"/>
<path d="M304.6 159L301.8 162L300.9 168L306.7 170.4L312.5 173.5L320.3 177.1L328 178L331.8 181.2L336.1 181.8L343 183.3L347.6 183.2L347.7 180.7L346.2 176.6L346 173.9L349.1 172.5L350.6 177.6L351 178.8L356.5 181.3L359.7 180.3L364.4 180.7L368.9 180.5L368.4 176.6L365.8 174.5L370 173.7L373.9 168.9L379.3 164.9L384.2 166.4L387.4 163.7L391 167.7L389.8 170.4L395.9 171.4L396.9 173.8L395.2 175L396.6 178.9L392.4 177.8L386.2 182.2L387.1 185.9L385.1 191.3L385.4 194.4L383.8 199.7L379.2 198.2L380.1 204.9L379.1 207.1L380.1 209.8L377.6 211.3L373.2 201.1H371.7L371.4 205.3L367.8 201.9L369 198.3L371.4 197.9L373 192.5L369.6 191.4L364.5 191.5L359.1 190.6L357.9 186.1L355.2 185.8L350.3 183L349.1 187.4L353.7 190.8L350.7 193.2L349.8 195.5L353.5 197.2L353.2 201.1L355.8 205.9L357.4 211.2L356.9 213.6L353.1 213.5L346.5 214.8L347.4 219.6L345 223.4L337.5 227.8L332.2 235.3L328.4 239.4L323.4 243.6L323.7 246.5L321.1 248.1L316.3 250.4L313.7 250.7L312.5 255.6L314.4 264L315.1 269.3L313.2 275.4L313.9 286.3L311 286.6L308.7 291.5L310.6 293.7L305.5 295.5L303.8 299.8L301.6 301.7L296 295.7L292.9 286.7L290.4 280.2L288.2 277.2L284.8 271L282.8 263L281.4 259L275.5 250.2L272 237.7L269.4 229.5L268.6 221.7L266.9 215.7L259.2 219.6L255.2 218.8L247.1 211L249.5 208.7L247.6 206.2L240.5 200.7L243.7 196.4H255.8L254 190.9L250.5 187.7L249.1 182.7L245.1 179.9L250 173.1L256.5 173.6L261 166.9L263.2 160.4L267.1 153.9L266.1 149.3L269.9 145.6L264.8 142.5L261.9 138.1L258.6 132.5L260.6 129.7L269.1 131.3L274.8 130.3L278.6 124.9L286.3 132.5L287.1 137.7L290.1 141L290.7 144.3L286.6 143.4L289.8 150.5L296 154.5L304.6 159Z" fill="#7DDC7D"/>
<path d="M106 104.2L107.8 104L113.1 99.3L115 98.8L116.9 100.7L115.7 103.8L119.6 107.2L120.9 106.8L123.4 111.6L128.7 112.9L133 116.1L140.7 117.2L148.7 115.5L148.9 114L153.3 112.8L156.3 109.1L159.9 109.3L161.9 108.1L165.8 108.7L172.4 112L176.7 112.7L184 118.3L188 118.6L189.7 123.9L189.1 131.9L188.6 136.6L191.1 137.6L189.5 141.1L192.2 146.2L193.4 150.3L197.7 151.4L198.8 155.5L194.9 161.3L198.1 164.7L200.9 168.6L206.6 171.4L207.6 177L210.3 178.1L211.2 181L203.7 184.4L202.6 191.8L192 189.9L185.8 188.4L179.5 187.6L176.2 179.7L173.4 178.6L169.3 179.7L164.2 182.8L157.2 180.7L151.1 175.7L145.6 173.9L141.2 167.8L136 159.3L133.2 160.3L129.5 158.2L127.8 160.7L124.3 157.3L123.8 153.9H122.1L122.3 149.2L118.8 144.4L111.7 140.8L107.1 134.7L107.6 129.7L109.9 127.5L109 123.8L105.2 121.8L100.5 114.2L96.7 109.1L97.4 107.1L94.5 99.8L97.8 97.9L99 100.4L102.2 103.3L106 104.2Z" fill="#7DDC7D"/>
<path d="M100.5 114.2L105.2 121.8L109 123.8L109.9 127.5L107.6 129.7L107.1 134.7L111.7 140.8L118.8 144.4L122.3 149.2L122.1 153.9H123.8L124.3 157.3L127.8 160.7L124.5 160.4L120.8 159.8L117.5 166L107.3 165.5L90.5 152.6L81.9 148.1L75.1 146.3L72 138.5L83 131.8L84 124.1L82.8 119.4L85.5 117.8L87.6 113.8L89.7 112.8L96 113.7L98.1 115.3L100.5 114.2Z" fill="#7DDC7D"/>
<path d="M56.1 136.2L56.5 138.8L55.9 139.8H56L55.3 141.8L53.2 141L52.5 145.2L54 145.9L52.7 146.8L52.6 148.5L55.1 147.7L55.5 150.2L53.7 160.4L53 158.8L49.1 149.4L50.5 147.3L50.1 146.9L51.2 143.9L51.8 139.1L52.4 137.4H52.5H54.3L54.7 136.3L56.1 136.2Z" fill="#7DDC7D"/>
<path d="M75.1 146.3L74.2 147.3L63.8 150.5L69.8 157L68.2 158L67.5 160.2L63.4 161.1L62.3 163.4L60.2 165.4L54 164.3L53.7 163.4L55.5 153.2L55.1 150.7L55.7 148.8L55.3 144.8L56 142.8L62.3 145.4L72 138.5L75.1 146.3Z" fill="#7DDC7D"/>
<path d="M215.3 11.5L219.7 11.2L228.9 5.39999L228.1 7.39999L236.5 12.1L254.8 27.7L255.9 24.5L264.3 28L270.5 26.4L273.8 27.5L277.9 31.1L281.9 32.3L285.2 35L291.2 34.1L295.6 37.9L293.7 42.1L289.9 42.7L292.4 48.9L290.8 51.8L280 49.7L281 61L279 62.4L269.9 64.9L278.7 75.9L275.8 77.5L277.5 81.2L274 80.2L270.6 77.9L262.7 77.3L254.1 77.1L252.5 77.8L244.3 75.1L241.8 76.5L242.3 80.2L233.1 78L230 78.9L229.7 81.7L227.1 82.9L221.7 87.3L220.8 91.9H218.8L216.5 88.9L209.8 88.7L207.3 83.5L204.7 83.4L203.2 77L195.6 72.4L187 72.9L181.3 73.8L174.7 68.1L169.9 65.7L160.7 61.2L159.6 60.7L147.6 64.4L153.8 87.8L151.2 88.1L146.4 83.1L142.5 81.3L136.9 82.6L135.1 84.8L134.5 83.2L135.1 80.6L133.6 78.4L127.1 76.2L123.4 70.5L120.2 68.9L119.6 66.8L124.7 67.4L123.7 62.8L127.8 61.8L132.5 62.7L131.8 56.6L129.9 52.7L124.9 53L120.2 51.5L115.1 54.2L110.7 55.6L107.9 54.5L107.7 51.3L103.4 47.1L99.8 47.3L94.5 43.1L96.2 38.3L94.4 37.1L96.6 30.2L102.6 33.8L102 29.3L110.1 22.6L117.7 22.4L129.7 26.7L136.3 29.2L140.7 26.6L148.4 26.5L155.7 29.7L156.5 27.8L163.5 28.1L163.7 25.2L154.3 20.9L157.8 17.9L156.3 16.3L160.3 14.7L155.2 10.5L156.6 8.39999L173.6 6.3L175.3 4.8L186.2 2.5L189.3 0L198.4 1.3L202.8 7.60001L207.1 6.10001L214.2 8.2L215.3 11.5Z" fill="#7DDC7D"/>
<path d="M277.5 81.2L277.3 82.6L270.4 86L269.4 88.6L263 89.3L262.4 93.4L256.6 92.5L253.4 93.8L249.3 96.8L250.5 98.3L249.4 99.7L239.8 100.7L232.7 98.6L227.2 99.1L226.6 95.5L232.6 96.5L234 94.6L238.1 95.2L243.4 90.6L236.2 87.2L233 88.8L228.4 86.4L231.4 82.3L229.7 81.7L230 78.9L233.1 78L242.3 80.2L241.8 76.5L244.3 75.1L252.5 77.8L254.1 77.1L262.7 77.3L270.6 77.9L274 80.2L277.5 81.2Z" fill="#7DDC7D"/>
<path d="M56.1 139.2L54.7 139.3L54.3 140.4H52.5L53.8 135.1L56 130.6V130.4L58.5 130.7L59.7 133.2L57 135.7L56.1 139.2Z" fill="#7DDC7D"/>
<path d="M346 173.9L346.2 176.6L347.7 180.7L347.6 183.2L343 183.3L336.1 181.8L331.8 181.2L328 178L320.3 177.1L312.5 173.5L306.7 170.4L300.9 168L301.8 162L304.6 159L306.5 157.5L311.3 159.5L317.7 163.7L321 164.6L323.5 167.7L328 168.9L333 171.8L339.5 173.2L346 173.9Z" fill="#7DDC7D"/>
<path d="M160.8 245.9L158.6 241.4L153.4 230.8L169.7 224.4L172.3 211.6L169.3 207V204.4L170.6 201.8L170.4 199.2L172.8 197.9L171.7 197V192.8H174.5L177.5 197.2L180.8 199.5L184.9 200.4L188.3 201.5L191.2 205.2L192.9 207.3L194.9 208.2L195.1 209.6L193.4 213.4L192.7 215.2L190.5 217.3L188.8 221.7L186.3 221.3L185.3 222.9L184.6 226.1L185.7 230.4L185.2 231.2H182.7L179.4 233.6L179.1 236.7L177.9 238.1L174.4 238L172.4 239.6L172.6 242.2L170 244L166.9 243.4L163.3 245.6L160.8 245.9Z" fill="#7DDC7D"/>
<path d="M173.2 187.7L171.9 185.5L173.3 183.4L174 183.9L173.8 186.6L173.2 187.7Z" fill="#7DDC7D"/>
<path d="M278.6 124.9L274.8 130.3L269.1 131.3L260.6 129.7L258.6 132.5L261.9 138.1L264.8 142.5L269.9 145.6L266.1 149.3L267.1 153.9L263.2 160.4L261 166.9L256.5 173.6L250 173.1L245.1 179.9L249.1 182.7L250.5 187.7L254 190.9L255.8 196.4H243.7L240.5 200.7L236.3 199.1L234.1 194.5L229.2 189.6L219.2 190.8L210.2 190.9L202.6 191.8L203.7 184.4L211.2 181L210.3 178.1L207.6 177L206.6 171.4L200.9 168.6L198.1 164.7L194.9 161.3L204.5 164.6L209.8 163.6L213.2 164.4L214.1 163L218 163.6L224.6 160.9L223.8 155.5L226.1 151.8H230.2L230.4 150.1L234.4 149.2L236.5 149.8L238.3 148L237.2 144.1L238.6 140.3L241.7 138.6L238.6 134.4L243.8 134.6L244.7 132.3L243.9 129.8L245.9 127.1L244.5 123.9L242.6 121.2L245 118.4L250.3 117.1L256.2 116.3L258.6 115.2L261.5 114.4L266.2 117.4L269.1 122.4L278.6 124.9Z" fill="#7DDC7D"/>
<path d="M55.3 144.8L55.7 148.8L55.1 150.7L52.6 151.5L52.7 149.8L54 148.9L52.5 148.2L53.2 144L55.3 144.8Z" fill="#7DDC7D"/>
<path d="M72 138.5L62.3 145.4L56 142.8H55.9L56.5 141.8L56.1 139.2L57 135.7L59.7 133.2L58.5 130.7L56 130.4L54.9 125.5L55.9 122.8L57.2 121.4L58.4 120L58.2 116.5L60.1 117.7L65.7 115.9L68.7 117.1H73.1L78.8 114.7L81.7 114.8L87.6 113.8L85.5 117.8L82.8 119.4L84 124.1L83 131.8L72 138.5Z" fill="#7DDC7D"/>
<path d="M234 94.6L232.6 96.5L226.6 95.5L227.2 99.1L232.7 98.6L239.8 100.7L249.4 99.7L252.5 105.7L254 105L257.7 106.5L258.2 109L260 112.6H254.6L250.8 112.1L248.3 115L246.1 115.6L244.6 117L241.9 114.9L241 109.5L239.3 109.2L239.4 107.2L236.1 105.8L234.4 108L234.6 110.6L234 111.5L230.8 111.4L229.9 114.3L227.8 113.1L224.4 115.1L222.6 114.4L223.9 107.9L221.5 103.1L217.3 101.6L217.9 98.8L222.3 99.1L223.8 95.6L224.3 91.5L230.8 90L230.6 93L231.9 94.7L234 94.6Z" fill="#7DDC7D"/>
<path d="M215.3 113L213.7 112.8L210.8 111.1L210.5 113.3L206.3 114.6L206.5 119.7L203.9 121.7L199.9 122.6L199.5 125.5L195.6 126.4L189.7 123.9L188 118.6L184 118.3L176.7 112.7L172.4 112L165.8 108.7L161.9 108.1L159.9 109.3L156.3 109.1L153.3 112.8L148.9 114L147 109.5L146.4 102.8L141.8 100.6L142.2 96.3L138.7 95.9L138.6 90.5L143.9 92.1L148 90.1L143.3 86.2L140.9 82.6L137.1 84.2L137.7 88.9L135.1 84.8L136.9 82.6L142.5 81.3L146.4 83.1L151.2 88.1L153.8 87.8L159.7 87.7L158 84.5L161.8 82.3L165.2 78.6L173.1 82L175 87L177.3 88.3L182.8 88L184.9 89.2L189.2 95.8L196.3 100.2L200.5 103.2L206.8 106.3L214.5 109.1L215.3 113Z" fill="#7DDC7D"/>
<path d="M78.7 86.3L84.2 86L89.8 89.2L91.1 91.4L91.2 94.5L95.4 96.1L97.8 97.9L94.5 99.8L97.4 107.1L96.7 109.1L100.5 114.2L98.1 115.3L96 113.7L89.7 112.8L87.6 113.8L81.7 114.8L78.8 114.7L73.1 117.1H68.7L65.7 115.9L60.1 117.7L58.2 116.5L58.4 120L57.2 121.4L55.9 122.8L53.6 119.9L55.3 117.5L52.1 118.1L47.5 116.6L44.3 120.3L36.3 121L31.6 117.6L25.9 117.4L24.9 120L21.3 120.8L15.9 117.4L10.1 117.5L6.30005 111.1L2.09998 107.6L4.09998 102.6L0.5 99.5L5.59998 93.4L13.6 93.2L15.2 88.3L25.2 89.2L30.8 85.1L36.6 83.3L45.1 83.1L54.9 87.6L62.8 90.1L68.6 89.1L73.2 89.7L78.7 86.3Z" fill="#7DDC7D"/>
<path d="M229.7 81.7L231.4 82.3L228.4 86.4L233 88.8L236.2 87.2L243.4 90.6L238.1 95.2L234 94.6L231.9 94.7L230.6 93L230.8 90L224.3 91.5L223.8 95.6L222.3 99.1L217.9 98.8L217.3 101.6L221.5 103.1L223.9 107.9L222.6 114.4L218.3 113H215.3L214.5 109.1L206.8 106.3L200.5 103.2L196.3 100.2L189.2 95.8L184.9 89.2L182.8 88L177.3 88.3L175 87L173.1 82L165.2 78.6L161.8 82.3L158 84.5L159.7 87.7L153.8 87.8L147.6 64.4L159.6 60.7L160.7 61.2L169.9 65.7L174.7 68.1L181.3 73.8L187 72.9L195.6 72.4L203.2 77L204.7 83.4L207.3 83.5L209.8 88.7L216.5 88.9L218.8 91.9H220.8L221.7 87.3L227.1 82.9L229.7 81.7Z" fill="#7DDC7D"/>
<path d="M260 112.6L261.5 114.4L258.6 115.2L256.2 116.3L250.3 117.1L245 118.4L242.6 121.2L244.5 123.9L245.9 127.1L243.9 129.8L244.7 132.3L243.8 134.6L238.6 134.4L241.7 138.6L238.6 140.3L237.2 144.1L238.3 148L236.5 149.8L234.4 149.2L230.4 150.1L230.2 151.8H226.1L223.8 155.5L224.6 160.9L218 163.6L214.1 163L213.2 164.4L209.8 163.6L204.5 164.6L194.9 161.3L198.8 155.5L197.7 151.4L193.4 150.3L192.2 146.2L189.5 141.1L191.1 137.6L188.6 136.6L189.1 131.9L189.7 123.9L195.6 126.4L199.5 125.5L199.9 122.6L203.9 121.7L206.5 119.7L206.3 114.6L210.5 113.3L210.8 111.1L213.7 112.8L215.3 113H218.3L222.6 114.4L224.4 115.1L227.8 113.1L229.9 114.3L230.8 111.4L234 111.5L234.6 110.6L234.4 108L236.1 105.8L239.4 107.2L239.3 109.2L241 109.5L241.9 114.9L244.6 117L246.1 115.6L248.3 115L250.8 112.1L254.6 112.6H260Z" fill="#7DDC7D"/>
<path d="M107.8 104L106 104.2L103.2 100.5L103 99.5H100.7L98.8 97.8L97.8 97.9L95.4 96.1L91.2 94.5L91.1 91.4L89.8 89.2L96.8 88.2L98.2 89.8L100.4 90.9L99.7 92.5L102.9 94.7L101.8 96.8L104.4 98.5L106.9 99.5L107.8 104Z" fill="#7DDC7D"/>
<path d="M106 104.2L102.2 103.3L99 100.4L97.8 97.9L98.8 97.8L100.7 99.5H103L103.2 100.5L106 104.2Z" fill="#7DDC7D"/>
<path d="M112.3 87.2L114.8 84.6L118.3 87.9L121.9 92.5L124.4 92.8L126.3 94.5L122.1 95L122.2 100L121.8 102.2L120.1 103.7L120.9 106.8L119.6 107.2L115.7 103.8L116.9 100.7L115 98.8L113.1 99.3L107.8 104L106.9 99.5L104.4 98.5L101.8 96.8L102.9 94.7L99.7 92.5L100.4 90.9L98.2 89.8L96.8 88.2L97.9 87.1L102.1 89L105 89.3L105.6 88.6L102.3 85.1L103.5 84.3L105 84.5L109.3 88.3L111.7 88.8L112.3 87.2Z" fill="#7DDC7D"/>
<path d="M377.6 211.3L378.2 215.9L376.1 214.9L377.2 220.1L375.1 216.8L374.3 213.5L372.8 210.4L370 206.7L364.8 206.4L365.7 209.1L364.5 212.6L361.9 211.3L361.3 212.5L359.6 211.8L357.4 211.2L355.8 205.9L353.2 201.1L353.5 197.2L349.8 195.5L350.7 193.2L353.7 190.8L349.1 187.4L350.3 183L355.2 185.8L357.9 186.1L359.1 190.6L364.5 191.5L369.6 191.4L373 192.5L371.4 197.9L369 198.3L367.8 201.9L371.4 205.3L371.7 201.1H373.2L377.6 211.3Z" fill="#7DDC7D"/>
<path d="M365.8 174.5L368.4 176.6L368.9 180.5L364.4 180.7L359.7 180.3L356.5 181.3L351 178.8L350.6 177.6L353.2 172.8L355.8 171.2L360.1 172.6L363 172.8L365.8 174.5Z" fill="#7DDC7D"/>
<path d="M92.7 78.9L97.8 80.2L99.9 82.8L103.5 84.3L102.3 85.1L105.6 88.6L105 89.3L102.1 89L97.9 87.1L96.8 88.2L89.8 89.2L84.2 86L78.7 86.3L79 83.6L76.9 79.3L73.5 76.9L70.5 76.2L68.3 74.3L68.7 73.5L73.3 74.6L81 75.6L88.6 78.7L89.8 79.9L92.7 78.9Z" fill="#7DDC7D"/>
<path d="M124.5 160.4L126 163.2L125.7 164.7L128.1 169.5L124.2 169.7L122.5 166.6L117.5 166L120.8 159.8L124.5 160.4Z" fill="#7DDC7D"/>
<path d="M322.9 313L318.1 314.5L315.2 309.4L313.8 300.2L315.8 289.8L319.9 293.3L322.7 297.8L325.8 304.5L325.2 311.2L322.9 313Z" fill="#7DDC7D"/>
<path d="M147.1 194.7L145.6 195.2L143.8 193.9L143 189.2L144.1 185.9L145.6 185.2L147.4 187.2L147.9 190.9L147.1 194.7Z" fill="#7DDC7D"/>
<path d="M117.5 166L122.5 166.6L124.2 169.7L128.1 169.5L130.8 175.1L133.7 176.5L134.9 178.8L138.9 181.5L139.6 184.1L139.2 186.3L140.1 188.4L141.9 190.2L142.8 192.3L143.8 193.9L145.6 195.2L147.1 194.7L148.4 197.2L148.7 198.6L151.4 205.2L168.3 208.4L169.3 207L172.3 211.6L169.7 224.4L153.4 230.8L137.5 233.3L132.5 236.2L129 242.9L126.4 244L124.9 241.9L122.8 242.2L117.3 241.5L116.2 240.9L109.8 241L108.3 241.6L105.9 240L104.6 243.1L105.4 245.8L103 247.9L102.1 245.1L100.3 243.2L99.8 240.6L96.7 238.3L93.4 232.9L91.5 227.7L87.4 223.3L84.9 222.2L80.8 216.1L79.9 211.7V207.9L76.3 200.7L73.5 198.2L70.5 196.9L68.4 193.2L68.6 191.8L66.8 188.4L65.1 187L62.6 182.2L58.8 177.1L55.7 172.7H53L53.5 169.2L53.6 166.9L54 164.3L60.2 165.4L62.3 163.4L63.4 161.1L67.5 160.2L68.2 158L69.8 157L63.8 150.5L74.2 147.3L75.1 146.3L81.9 148.1L90.5 152.6L107.3 165.5L117.5 166Z" fill="#7DDC7D"/>
<path d="M160.8 245.9L156.8 247.6L155.9 250.5V252.7L150.5 255.4L141.7 258.4L137 262.9L134.5 263.3L132.8 262.9L129.6 265.6L126.1 266.8L121.4 267.1L120 267.5L118.9 269.2L117.4 269.7L116.6 271.3L113.8 271.1L112.1 272L108.1 271.7L106.5 267.9V264.4L105.5 262.5L104.2 257.8L102.4 255.2L103.5 254.8L102.8 251.9L103.4 250.7L103 247.9L105.4 245.8L104.6 243.1L105.9 240L108.3 241.6L109.8 241L116.2 240.9L117.3 241.5L122.8 242.2L124.9 241.9L126.4 244L129 242.9L132.5 236.2L137.5 233.3L153.4 230.8L158.6 241.4L160.8 245.9Z" fill="#7DDC7D"/>
<path d="M141.1 184.3L141.4 184.4L141.6 184.3L142 185L141.9 185.2L142 186.1V186.8L141.8 187.2L141.7 186.8L141.1 186L141.2 185.6L141 184.9V184.5L141.1 184.3Z" fill="#7DDC7D"/>
<path d="M45.2 127.7L45.3 127.9L45.6 128.3L45.2 128.2H44.9L44.5 128.4L44.2 128.1V127.8L44.5 127.7L44.7 127.8L45.2 127.7Z" fill="#7DDC7D"/>
<path d="M43.5 128.2V128.3L43.3 128.5L43.2 129.1L43.1 129.3H42.8L42.6 129.5L42.1 129.7L41.9 129.8L41.3 130.1L40.9 130L40.4 130.1L40.1 130.5L39.9 130.2L39.6 130.3H39.4L39.1 130L38.7 130.3H38.2L37.7 130.1L37.2 130L36.8 129.7L36.5 129.1L36.2 128.8L36 128.1L35.8 127.8L35.9 127.5L36.4 127.8L36.8 127.7L37 127.4L37.1 127.1L37.4 127L37.6 127.1L37.8 126.9H38L38.1 127.3L38.6 127.5L38.7 127.7H39.3L39.9 127.2L40.3 127.3L40.6 127.1L40.9 127.2L41.3 127.4L41.5 127.1H41.8L42.1 127.5V128.1L42.4 127.9L42.7 128.1L42.8 128L43.5 128.2Z" fill="#7DDC7D"/>
</svg>
