<svg width="583" height="641" viewBox="0 0 583 641" fill="none" xmlns="http://www.w3.org/2000/svg">
<path d="M421.5 430.2L422.7 435.2L426.7 432.8L428.1 435.5L430.4 438L429.3 440.9L429.5 446.4L429.7 449.6L431 450.4L431.4 455.9L430.2 459.2L431 463.5L436.4 466.9L439.6 469.9L442.8 472.7L441.7 474.3L444 478.3L444.5 485.3L447.1 483.9L448.6 486.6L450.2 485.7L449.5 492.5L452.4 496.4L454.3 498.8L457.1 504V509.2L456.1 512.9L454.3 516.8L455 522.3L452.5 528L450.4 531L446.6 536.7L445.1 540.4L442 545L437 550.8L431.5 554L427.1 558.9L423.8 562.1L419.4 567.6L415.7 570.8L411.8 575.6L408.7 580L407.9 582.1L403.6 584.3L397.5 584.5L391.2 587.2L387.4 589.6L382.6 592.4L379.9 589.5L377.3 588.4L379.9 585.1L376.4 586.3L369.2 590.9L365.6 589.2L363.2 588.2L360.4 587.7L356.3 585.9L355 581.9L356.5 577.1L356.9 573.8L355.5 571.2L350.8 570.5L354 567.3L354.9 562.6L350.2 567L344.9 568.2L349.4 564.7L351.9 561L355.4 557.8L357 553.1L350.2 558.5L345.9 560.7L341.6 565.8L338.6 563.2L340.3 559.8L338.9 555.1L337.1 552.7L338.7 551.2L333.4 547.3L329.6 547.2L325.6 544L315.7 544.6L307.8 546.9L300.9 549.1L295.9 548.7L288.9 552L283.6 553.4L281.3 556.8L278.3 559.4L273.6 559.6L270 560.1L265.8 559L261.6 559.7L257.8 560L253.3 563.4L251.8 563.1L248.4 564.9L245 566.9L241.2 566.7H237.7L233.6 562.6L231.2 561.4L232.7 557.7L235.6 556.8L237.1 555.4L237.7 553.1L240 548.6L240.7 544.8L240 538.3L240.2 534.6L241.6 531L240.7 526.8L241 524.9L239.3 522.3L240 517.3L238.1 512.2L238 509.5L239.8 512.3L239.3 506.3L241.6 508.2L242.7 510.7L243.3 507.4L241.7 502.3L241.6 500.3L240.8 498.4L242.1 494.7L243.6 493.1L244.9 489.9L245 486.1L248.1 481.5L247.7 486.4L250.8 482L255.7 479.8L258.9 477.1L263.6 474.7L266.2 474.2L267.6 475L272.4 472.6L275.9 471.9L277 470.5L278.5 469.9L281.6 470.1L287.8 468.2L291.3 465.3L293.3 461.9L297.2 458.7L297.9 456.1L298.6 452.6L303.5 447.1L304.9 452.7L307.5 451.4L306 448.4L308.3 445.3L310.5 446.7L312 441.8L315.5 438.6L317.3 436.1L320.2 435L320.6 433.2L322.9 433.9L323.3 432.3L325.9 431.4L328.7 430.5L332.4 433.5L335 437.3H338.5L342 437.9L341.3 434.4L344.8 429.3L347.5 427.6L346.9 426L349.8 422.3L353.5 420L356.2 420.8L361.1 419.6L361.4 416.3L357.5 414.2L360.6 413.3L364.2 414.9L366.9 417.5L371.4 419.1L373.1 418.5L376.4 420.5L379.9 418.6L381.9 419.2L383.4 417.9L385.6 421.1L383.6 424.6L381.1 427.2L379.2 427.4L379.5 429.9L377.3 433.1L374.8 436.3L375 438.1L378.8 441.7L382.8 443.7L385.3 445.9L388.6 449.7H390.2L392.8 451.4L393.3 453.4L398.2 455.5L402.3 453.3L404.1 449.9L405.8 447L407.1 443.5L409.7 438.4L409.5 435.3L410.2 433.4L410.1 429.8L411.5 424.9L412.8 423.6L412.2 421.5L414 418.1L415.5 414.6L415.9 412.7L418.2 410.3L419.5 413.5L419.4 417.5L420.7 418.3L420.6 421L422.2 424.2L422.1 427.9L421.5 430.2Z" fill="#FF9FC8"/>
<path d="M261.1 312.8L263.3 310.4L267.9 306.8L267.8 310L267.7 314.1L265 313.9L263.9 316.1L261.1 312.8Z" fill="#FF9FC8"/>
<path d="M230.2 221.9L225.9 225L221 223L220 217.5L222.2 214.6L228 212.8L231.3 212.9L232.9 215.4L230.9 218.2L230.2 221.9Z" fill="#FF9FC8"/>
<path d="M253.6 25.5L262.6 30L268.6 35.8H276.2L278.8 33.4L285.7 31.5L287 37.2L286.7 39.5L289.5 46.3L290.1 52.5L283.2 51.4L280.3 53.6L285 59L288.9 66.5L286.4 66.6L288.3 69.9L282.8 66.1V69.7L276.4 72.4L279.2 75.8L274.6 75.5L271 73.5L269.9 78.1L266 81.5L263.9 85.6L257.6 87.4L255.2 90.4L250.4 92.2L251.7 89.2L249.4 86.7L251.4 82.4L246.9 79.1L243.5 81.3L239.9 85.8L238.6 89.9L233.6 90.2L232.3 93.2L237.1 97.5L241.9 98.6L243.3 101.4L248.4 103.3L252.2 98.7L258.1 101.2L261.6 101.4L263.9 104.7L257.2 106.5L256.2 110L252.4 113.2L251.5 117.7L258.6 121.2L263.2 127.5L268.7 133.4L274.2 138.3L275.8 143.1L273 144.9L275.4 148.3L279.3 150.3L280.1 155.5L280.2 160.6L277.4 161.2L275.3 168.1L273 176.6L269.6 184.2L263.2 190.1L256.6 195.6L250.5 196.3L247.6 199.1L245.3 197.1L242.8 200.2L235.6 203.5L229.8 204.4L229.1 211.2L226 211.6L223.8 206.9L224.7 204.5L216.9 202.4L214.5 203.5L208.6 201.8L205.5 199.2L205.8 195.5L200.5 194.3L197.4 191.9L193.3 195.3L188 196.1L183.6 196L180.9 197.6L178.2 198.5L180.2 205.9L177.2 205.7L176.4 204.2L175.9 201.5L172.1 203.4L169.5 202.2L165 199.8L165.8 194.5L162.1 193.2L159.7 187.3L154.1 188.4L153.4 180.8L157.6 175.4L156.7 170.1L155.4 165.2L152.7 163.7L150 159.9L146.9 160.4L140.8 159.4L142 156.7L138.4 152.7L135.2 155.4L130.3 153.9L124.9 157.9L121 162.7L116.8 163.5L114 161.8L111.1 161.6L106.8 160.2L104.2 161.8L101.6 166.6L100.1 161.5L97 162.9L90.5 162.2L84 160.8L79 157.9L74.5 156.7L72 153.6L68.7 152.7L62.3 148.5L57.5 146.5L55.6 148L47 143.5L40.8 139.5L37.6 132.4L41.7 133.3L41.1 130L38.1 126.7L37.3 121.5L29.6 113.9L20.1 111.4L17.2 106.4L12.5 103.4L11 101.6L9.19995 98L8.69995 95.5L5 94L3.5 94.7L0.400024 88.7L1.5 87.3L0.300049 85.8L4.40002 82.8L7.59998 81.5L13.4 82.4L14 78.3L20.4 77.6L21.4 75L28.3 71.6L28.5 70.2L26.8 66.5L29.7 64.9L20.9 53.9L30 51.4L32 50L31 38.7L41.8 40.8L43.4 37.9L40.9 31.7L44.7 31.1L46.6 26.9L48.3 26.4L51.6 30.8L57.3 34.1L65.5 36.4L71.3 41.5L72.7 48.8L75.7 51.6L82.2 52.7L89.4 53.5L97.4 57.5L100.8 58.2L105.8 64L110.5 67.8L116.1 67.6L127.4 69.1L133.8 68.2L139.4 69.1L148.8 73H155L158.3 74.9L162.7 71.5L169.9 69.3L177.5 69.1L182.4 66.9L184.4 63.5L186.8 61.3L184.9 59.2L182 56.8L182.5 52.7L185.7 53.3L191.6 54.6L194.8 51.2L201.2 48.8L202.5 44.6L205 42.8L211.8 42L216.2 42.7L215.4 40.5L208.2 36.1L203 34.1L200.5 36.4L195 35.4L192.7 36.2L189.9 33.7L189.6 27.4L189 22.7L196.4 25.1L200.8 21.2L198.9 18.4L198.7 11.9L200 9.90001L197.5 6.50002L193.8 5.10002L195.5 2.00002L200.6 0.900009L206.8 0.700012L215.4 2.60002L221.4 4.80002L229.1 11L232.9 13.7L237.4 17.5L243.6 23.5L253.6 25.5Z" fill="#FF9FC8"/>
<path d="M295.5 407.6L293.1 407.7L286 403.2L291.4 401.9L294.2 403.9L296 405.8L295.5 407.6Z" fill="#FF9FC8"/>
<path d="M320.3 398.9L320.8 400.2L320.7 402.1L316.6 406.9L311.6 408.3L311 407.6L311.7 405.4L314.5 401.5L320.3 398.9Z" fill="#FF9FC8"/>
<path d="M280.7 393.8L282.6 395.5L286.2 395L287.4 397.7L280.7 399L276.8 399.9L273.7 399.8L275.9 396.1H279.1L280.7 393.8Z" fill="#FF9FC8"/>
<path d="M309 393.8L307.9 397.4L299.3 399.2L291.8 398.4L292 396L296.6 394.7L300 396.6L303.8 396.1L309 393.8Z" fill="#FF9FC8"/>
<path d="M228.8 385.3L239.6 386L241 383.3L251.3 386.4L253.1 390.6L261.5 391.8L268.2 395.6L261.6 398L255.5 395.4L250.4 395.6L244.6 395.1L239.4 394L233 391.5L228.9 390.9L226.5 391.7L216.3 389L215.5 386.3L210.4 385.8L214.6 379.7L221.4 380.1L225.8 382.6L228.2 383.1L228.8 385.3Z" fill="#FF9FC8"/>
<path d="M376.7 381.7L373.5 386.1L373.3 381.3L374.4 379L375.7 376.8L376.9 378.7L376.7 381.7Z" fill="#FF9FC8"/>
<path d="M335.3 364L333.1 366.2L329.3 365L328.3 362.2L334 361.9L335.3 364Z" fill="#FF9FC8"/>
<path d="M353.7 361.7L355.5 366.6L350.9 363.9L346.2 363.4L342.9 363.8L339 363.6L340.5 360.1L347.5 359.8L353.7 361.7Z" fill="#FF9FC8"/>
<path d="M413.5 358.5L412.5 379.4L410.9 400.4L406.3 395.1L400.7 393.8L399.2 395.6L392 395.8L394.8 390.6L398.5 388.8L397.5 381.8L395.2 376.5L384.5 371L379.9 370.5L371.6 364.5L369.8 367.7L367.6 368.2L366.5 365.9L366.6 363.1L362.4 359.9L368.6 357.6L372.6 357.7L372.2 356H363.9L361.7 352.2L356.7 351L354.4 347.8L362 346.3L364.9 344.2L374 346.8L374.9 349.2L376.2 359.6L381.9 363.4L386.9 356.6L393.5 352.8H398.5L403.3 355L407.4 357.3L413.5 358.5Z" fill="#FF9FC8"/>
<path d="M324.4 332.7L319.9 339.1L315.6 340.3L310.2 339.1L300.7 339.4L295.8 340.3L295 345.2L300 350.9L303.1 348L313.7 345.8L313.2 348.7L310.7 347.8L308.2 351.6L303.1 354.1L308.2 362.3L307.1 364.5L311.9 371.9L311.6 376.1L308.5 378L306.4 375.7L309.4 370.5L303.7 373L302.4 371.2L303.2 368.7L299.3 364.9L300 358.7L296.1 360.6L296.3 368.1L296.1 377.3L292.4 378.2L290.1 376.4L292 370.5L291.4 364.3L289 364.2L287.4 359.8L289.9 355.6L290.8 350.5L293.8 340.8L294.9 338.2L299.7 333.4L304.2 335.3L311.3 336.2L317.8 335.9L323.4 331.3L324.4 332.7Z" fill="#FF9FC8"/>
<path d="M344 334.6L343.7 340.2L340.8 339.5L339.9 343.4L342.2 346.8L340.6 347.6L338.4 343.5L336.7 335.3L337.7 330.2L339.5 327.9L340 331.4L343.4 331.9L344 334.6Z" fill="#FF9FC8"/>
<path d="M236 328.9L237 333.2L240.9 336.9L244.6 335.6L248.2 336L251.5 332.8L254.2 332.2L259.6 334L264.2 332.6L266.8 323.7L268.9 321.5L270.6 314.2H277.1L282.1 315.3L279.1 321.1L283.5 327.1L282.6 330.1L289 336L282.3 336.8L280.5 341.2L280.7 347L275.2 351.4L274.8 357.8L272.3 367.6L271.6 365.3L265 368.2L262.9 364.3L258.9 363.9L256.1 361.8L249.3 364.2L247.4 361L243.6 361.4L239 360.7L238.4 352.1L235.6 350.3L232.9 344.8L232.1 339.2L232.7 333.2L236 328.9Z" fill="#FF9FC8"/>
<path d="M213.2 379.4L207 379.5L202.5 374.2L195.4 368.9L193.1 365L189 359.8L186.3 355L182.1 346L177.2 340.6L175.5 335.1L173.3 330.1L168.1 326.1L165 320.6L160.6 317L154.4 309.9L153.8 306.6L157.4 306.9L166.3 308.1L171.5 314.4L176.1 318.8L179.3 321.4L184.8 328.3L190.6 328.4L195.4 332.8L198.8 338.2L203.1 341.2L200.8 346.4L204.1 348.6L206.1 348.8L207 353.3L208.9 356.8L213 357.4L215.6 361.5L213.9 369.5L213.2 379.4Z" fill="#FF9FC8"/>
<path d="M336.5 122.6L338.1 124.8L336.8 128.7L333.7 126.6L331.6 128.1L331.7 131.8L327.4 130L326.2 127L327.5 123.1L330.9 123.9L331.9 121.2L336.5 122.6Z" fill="#FF9FC8"/>
<path d="M361.1 103.4L361.7 108.5L364.2 111.7L363.6 116.2L358.2 119.2L349 119.6L344.6 127L339.9 124.5L337.5 119.7L328.9 121.1L323.8 124.1L317.6 124.3L325 129L325.8 139.9L323.3 142.6L319.7 140.1L318.8 134.3L314.7 132.5L310.7 128.1L315 126.1L316.1 122L320 118.7L322 114.3L331.7 112.4L338 113.7V102.3L343.1 105.4L347.6 99L349.3 96.5L348.3 88.7L343.2 81.5L343 77.5L347.8 76.3L356 85.2L358.8 90.3L357.5 96.8L361.1 103.4Z" fill="#FF9FC8"/>
<path d="M217.8 250.6L219.6 254.9L219.7 262.6L210.7 267.6L213.5 271.4L207.6 271.9L203 274.5L198.2 273.6L195.6 270.2L192.1 263.6L190 255.8L193.1 250.5L200.2 249.3L205.5 250.2L210.5 252.7L212.5 248.3L217.8 250.6Z" fill="#FF9FC8"/>
<path d="M280.9 99.5V98.9L283.4 99.1L284 96.3L287.6 95.9L289.6 95.5V94L297.9 101.5L301.2 105.7L304.6 113.1L304.1 116.6L299.8 117.8L296.7 120.5L292.1 121L290 117.5L288.9 112.7L283.6 106.1L287 105L280.9 99.5Z" fill="#FF9FC8"/>
<path d="M217.8 250.6L212.5 248.3L210.5 252.7L205.5 250.2L207 247.3L206.6 241.9L201.3 236.3L200 229.9L195 224.7L190.7 224.3L189.9 226.5L186.7 226.7L184.8 225.6L179.5 229.4L178.5 223.6L178.9 216.9L175.1 216.6L174.2 212.7L171.5 210.7L172.3 208.4L176.4 204.2L177.2 205.7L180.2 205.9L178.2 198.5L180.9 197.6L184.9 202.7L188.4 208.5H195.2L198.2 214.1L194.9 215.8L193.7 218.1L201 222L206.7 229.6L211.1 235.2L216 239.7L218 244.2L217.8 250.6Z" fill="#FF9FC8"/>
<path d="M192.3 301.9L193.7 302.5L197.2 306.4L199.7 310.7L200.3 315L199.8 317.9L200.4 320.1L200.9 323.9L203 325.7L205.3 331.4V333.5L201.3 334L195.8 329.2L189 324.1L188.2 320.8L184.8 316.5L183.8 311.2L181.6 307.7L182 303L180.6 300.3L181.5 299.2L186.3 302L186.9 305.3L190.6 304.5L192.3 301.9Z" fill="#FF9FC8"/>
<path d="M282.1 315.3L277.1 314.2H270.6L268.9 321.5L266.8 323.7L264.2 332.6L259.6 334L254.2 332.2L251.5 332.8L248.2 336L244.6 335.6L240.9 336.9L237 333.2L236 328.9L240.2 331.1L244.5 329.9L245.5 324.5L247.9 323.3L254.7 321.9L258.5 316.8L261.1 312.8L263.9 316.1L265 313.9L267.7 314.1L267.8 310L267.9 306.8L272 302.4L274.6 297.4L276.9 297.3L280 300.6L280.4 303.4L284.2 305.2L289 307.1L288.8 309.6L285 309.9L286.1 313.1L282.1 315.3Z" fill="#FF9FC8"/>
<path d="M328.5 287.8L329.4 292.1L330 295.7L328.4 301.5L325.9 295L323.5 298.3L325.6 303L324.2 306L317.3 302.3L315.4 297.6L316.9 294.6L313.1 291.5L311.5 294.2L308.9 293.9L304.9 297.5L303.9 295.6L305.7 290.2L309.1 288.4L312 286L314.2 288.9L318.4 287.2L319.1 284.3L323.1 284.1L322.3 279.2L327.2 282.2L327.9 285.4L328.5 287.8Z" fill="#FF9FC8"/>
<path d="M313.9 275.8L312.1 277.9L310.7 282L309.1 283.9L305.2 279.5L306.2 277.7L307.5 275.9L307.7 272L310.8 271.6L310.3 275.9L313.9 269.7V275.8Z" fill="#FF9FC8"/>
<path d="M283.6 282L276.5 288.1L278.9 283.6L282.7 279.6L285.7 275.2L288 268.8L289.6 274.1L286.1 277.6L283.6 282Z" fill="#FF9FC8"/>
<path d="M301.1 265.5L304.7 267.5H308.2L308.4 270.1L306.1 272.9L302.7 274.8L302.2 271.8L302.3 268.5L301.1 265.5Z" fill="#FF9FC8"/>
<path d="M321.2 263.7L323.6 270.9L319.1 269.2L319.4 271.4L321.2 275.3L318.6 276.8L318 272.2L316.2 271.9L315 268L318.3 268.5L318 266.1L314 261.2L319.4 261.3L321.2 263.7Z" fill="#FF9FC8"/>
<path d="M298.2 257.9L297.3 263.5L294.6 260.3L291.1 255.4L295.9 255.6L298.2 257.9Z" fill="#FF9FC8"/>
<path d="M291.7 223L295.5 224.9L296.9 223.2L297.7 224.8L297.3 227.5L299.9 232.1L299.3 237.4L296.4 239.5L296.3 244.7L298.3 249.8L301.3 250.5L303.7 249.8L311.2 253.3L311.1 256.8L313.2 258.4L312.9 261.3L308.2 258.2L305.7 254.8L304.5 257.2L300.5 253.3L295.5 254.3L292.5 252.9L292.4 250.2L294 248.6L292.1 247.1L291.7 249.4L288.4 245.7L287.1 242.9L286 236.8L288.6 238.9L287.5 228.8L288.3 223H291.7Z" fill="#FF9FC8"/>
<path d="M496.1 385.6L494.5 386.3L492.2 383.8L490 379.7L489.2 374.8L490 374.2L490.5 376.1L492.1 377.6L494.5 381.6L497 383.8L496.1 385.6Z" fill="#FF9FC8"/>
<path d="M474.7 377L471.7 377.5L470.7 379.3L467.5 380.9L464.5 382.4H461.4L456.9 380.5L453.8 378.7L454.4 376.7L459.4 377.7L462.6 377.2L463.6 374.1L464.5 373.9L464.8 377.3L468 376.9L469.8 374.7L473.1 372.4L472.7 368.6L476.1 368.5L477.2 369.5L476.8 373.1L474.7 377Z" fill="#FF9FC8"/>
<path d="M410.9 400.4L412.5 379.4L413.5 358.5L423.1 362.9L433.4 366.6L437.1 369.9L440.1 373.1L440.7 376.9L449.9 380.9L451 384.3L445.8 385L446.7 389.3L451.4 393.5L454.4 400.3L457.7 400.1L457.1 402.9L461.4 404L459.6 405.2L465.3 407.9L464.4 409.8L460.6 410.2L459.4 408.6L454.7 407.8L449.1 406.9L445.1 402.8L442.3 399.2L439.8 393.6L432.7 390.8L427.8 392.6L424.1 394.8L424.4 399.5L419.8 401.7L416.7 400.6L410.9 400.4Z" fill="#FF9FC8"/>
<path d="M481.6 370.7L479.8 372.4L478.9 368.6L477.8 366.2L475.3 364.1L472.2 361.3L468.2 359.4L469.8 357.9L472.8 359.7L474.7 361.1L477 362.6L479.1 365.3L481.2 367.4L481.6 370.7Z" fill="#FF9FC8"/>
<path d="M205.5 250.2L200.2 249.3L193.1 250.5L190 255.8L192.1 263.6L186.8 260.6L182 260.8L182.3 255.7H177.4L177.6 262.8L175.4 272.2L174 277.9L174.7 282.5L178.4 282.7L181.1 288.6L182.4 294.1L185.8 297.8L189.2 298.5L192.3 301.9L190.6 304.5L186.9 305.3L186.3 302L181.5 299.2L180.6 300.3L178.3 297.9L177.1 294.7L173.9 291.1L171 288L170.3 291.8L169 288.2L169.4 284.2L170.6 278.1L172.8 271.5L175.4 265.5L172.7 259.6L172.5 256.6L171.5 253L167.2 247.9L165.4 244.7L167.2 243.5L168.6 238L165.7 233.7L161.6 229L158.1 223.4L160.3 222.2L161.8 215.3L165.7 215L168.5 212.2L171.5 210.7L174.2 212.7L175.1 216.6L178.9 216.9L178.5 223.6L179.5 229.4L184.8 225.6L186.7 226.7L189.9 226.5L190.7 224.3L195 224.7L200 229.9L201.3 236.3L206.6 241.9L207 247.3L205.5 250.2Z" fill="#FF9FC8"/>
<path d="M320.7 402.1L320.8 400.2L320.3 398.9L321.1 397.4L326 396L330 395.7L331.8 394.9L333.9 395.7L331.7 397.5L325.6 400.3L320.7 402.1Z" fill="#FF9FC8"/>
<path d="M285.9 195.5L284.5 200.8L280.5 195.3L279 190.6L280.9 184.3L284.2 179.4L287.2 181.3L287.1 185.2L285.9 195.5Z" fill="#FF9FC8"/>
<path d="M214.5 203.5L208 208.9L204.3 215L203.7 219.5L209 226.2L215.5 234.6L221.2 238.6L225.3 243.7L229.3 255.6L229.7 266.9L225.4 271.1L219.3 275.3L215.1 280.6L208.5 286.6L206.2 282.5L207.4 278.1L203 274.5L207.6 271.9L213.5 271.4L210.7 267.6L219.7 262.6L219.6 254.9L217.8 250.6L218 244.2L216 239.7L211.1 235.2L206.7 229.6L201 222L193.7 218.1L194.9 215.8L198.2 214.1L195.2 208.5H188.4L184.9 202.7L180.9 197.6L183.6 196L188 196.1L193.3 195.3L197.4 191.9L200.5 194.3L205.8 195.5L205.5 199.2L208.6 201.8L214.5 203.5Z" fill="#FF9FC8"/>
<path d="M543.2 573.9L542.8 580.7L545.7 576.3L547 578.1L544.6 582.9L547.5 585L550.7 585.5L555.4 583.1L557.6 583.8L552.4 589.5L548.2 593.2L544.3 593.1L541.5 595L540 597.8L538.4 598.9L533.8 602.4L527.9 606.7L521.9 609.3L522.4 607.6L520.9 606.7L527.8 601.5L528.7 597.9L524.9 595.4L526.7 593.1L532 590.9L536.2 585.9L538.7 581.8L539.3 577.5L540.1 576.4L539.2 573.7L538.5 568.1L538.9 563.5L541.1 563L542 566.6L545.2 568.2L543.2 573.9Z" fill="#FF9FC8"/>
<path d="M537.4 307.7L537.2 308L536.7 307.9V307.7L537.2 307.3L537.4 307.7Z" fill="#FF9FC8"/>
<path d="M509.2 297.1H509.6L509.9 297.3L510 297.7L509.8 297.8L509.9 298L509.8 298.2H509.2L509 298V297.8L508.8 297.5V297.2L509.2 297.1Z" fill="#FF9FC8"/>
<path d="M394.5 280.5L394.6 280.8H394.3L394 281.3L393.9 281.2L394.2 280.4L394.6 280.3L394.5 280.5Z" fill="#FF9FC8"/>
<path d="M428.8 255.5L428.7 255.9V256.5L428.6 256.8H428.3L428.1 256.5L428 256V255.5L428.6 255L428.7 254.8L428.8 254.3L429 254.2L429.1 254.4L429.5 254.5L429.3 255L428.8 255.5Z" fill="#FF9FC8"/>
<path d="M581.8 296L582.8 296.4H582.6L581.8 296Z" fill="#FF9FC8"/>
<path d="M430.5 251.1L430.4 251.2L430.2 251.1L430.1 250.9L430.6 250.7L430.8 250.9L430.5 251.1Z" fill="#FF9FC8"/>
<path d="M432 246H431.8L431.5 245.4L431.6 245.1H431.9V245.4L432.1 245.6L432 246Z" fill="#FF9FC8"/>
<path d="M432.5 244.4L432.3 244.6L432.4 244.9H432V244.2L432.1 244L432.5 243.8L432.4 244.3L432.5 244.4Z" fill="#FF9FC8"/>
<path d="M430.6 236.9H430.3L430.2 236.7H430.6V236.9Z" fill="#FF9FC8"/>
<path d="M428.7 225.9L428.6 225.7V225.2L428.9 225.1L429.1 225.4L428.7 225.9Z" fill="#FF9FC8"/>
<path d="M427.5 221.6L427.1 221.5V221.2L427.3 221.1L427.5 221.3V221.6Z" fill="#FF9FC8"/>
<path d="M543.2 486.9L543 487L542.8 487.4L542.4 487.2L542.6 486.7L542.7 486.5L543 486.6L543.2 486.9Z" fill="#FF9FC8"/>
<path d="M547.6 479.1L547.5 479.2L547.7 479.6H548L548.4 479.4L548.3 480L548.1 480.2L548 480.6L547.5 480.9L547.1 480.7V480.6L546.8 480.3L546.9 480.1L546.7 479.9L546.8 479.5L546.7 479.1H546.8L547.2 479.2L547.6 479.1Z" fill="#FF9FC8"/>
<path d="M544.9 474.8L544.7 475.3V475.7L544.5 476L544.8 476.2L545 476.3L545.1 476.5L545 476.7L545.3 477.1H545.1L544.9 477.6L544.7 477.8L544.4 477.7L544.2 477.4L544.1 477.2L543.5 477.1L543.2 476.6V476.4L543.1 476.1H543.4L543.7 475.9L544.1 475.6L544.2 475.3L543.8 475.1L543.4 475.2L543.6 474.8L543.9 474.7L544.1 474.8L544.5 474.5L544.9 474.8Z" fill="#FF9FC8"/>
<path d="M541.5 473.2L541.2 473.8L541.1 474.1H541.4L540.9 474.6L540.7 474.8L540.6 474.6L540.9 474.2L541.1 473.7L541.5 473.2Z" fill="#FF9FC8"/>
<path d="M541.5 473.2L541.3 472.8H541.7L541.8 473.2H541.5Z" fill="#FF9FC8"/>
<path d="M527.6 470.8L527.8 470.9L528.3 471.8L528.6 472.1L528.9 472L529.1 471.7L530 472.2L530.3 472.7L531 473.3L531.3 473.7L531.4 474L531.8 474.4L531.9 474.6H532.1L532.4 474.9L533.3 475.1L533.4 475.4V475.8L533.7 476.2L534.1 476.3L533.8 476.8L533.9 477L534.3 477.5H534.4L534.8 478L534.7 478.4L535.4 478.6L535.8 479.1H536.1L536.4 479.3L536.9 479.7L536.8 480H537.1L537.5 480.5L538.1 480.9V481.1L538.4 481.2L538.7 481.5V481.7L539 482.3L539.4 482.7L539.5 482.6L539.9 483.2L540.4 483.3L540.7 483.6V484L540.8 484.4L540.9 484.5L540.7 485.1L540 485.5L539.9 485.2L539.6 485.3L539.3 485.6L538.7 484.8H538.3L538.2 484.6H538L537.8 484.9L536.9 484H536.7L536.3 483.5L536.4 482.7H536.1H535.7L535.4 482.5L535.3 482.3L535.1 482.2H534.8V481.9L534.6 481.4L534.2 481.5L533.4 481L533.3 480.8V480.5L533 480.7L532.4 480.4L532.3 480L531.9 479.7L531.7 479.2L531.2 479.1L531.4 478.9L531.1 478.6L530.8 478.5L530.5 477.8V477.4L530.3 477.1H530L529.8 476.5L529.9 476.3L529.2 475.9L528.9 475.7L528.5 475.1L528.8 474.9L528.6 474.7L528.4 474.4V473.9L527.9 473.6V473L527.7 472.7H528L528.1 472.4L528 472.2H527.4L527.2 471.9L527.7 471.2L527.4 470.9L527.6 470.8Z" fill="#FF9FC8"/>
<path d="M528.7 471.1L528.4 471L528.5 470.6L528.7 471.1Z" fill="#FF9FC8"/>
<path d="M526.4 468.7L526.2 468.9L526.1 468.5L526.3 468.3L526.4 468.7Z" fill="#FF9FC8"/>
<path d="M561 345.3H560.8L560.7 345H561V345.3Z" fill="#FF9FC8"/>
<path d="M375.7 293.1L375.5 293.5L375.6 293.6L375.4 294.2L375.5 294.4L375 294.6L374.8 293.9L375.1 293.7L374.9 293.5L375.2 292.9L375.5 292.8L375.7 293.1Z" fill="#FF9FC8"/>
<path d="M554.8 416.2L555.1 416.4L555 416.8H555.3V417H554.5L554.2 416.5L554.4 416.2H554.8Z" fill="#FF9FC8"/>
<path d="M516.5 415.6H516.7L517.7 416.4L518.2 416.7L519.1 417.4L519 417.7H518.8L518.6 417.9L518.4 417.6H518.3L518.1 417.4L518 417L517.6 416.9V416.6L517.3 416.5L517.2 416.6H517L516.1 416.2L515.9 415.8L516.2 415.4L516.5 415.6Z" fill="#FF9FC8"/>
<path d="M553.4 414.1L553.2 414.4L552.9 414.2V414L553.2 413.8L553.4 414.1Z" fill="#FF9FC8"/>
<path d="M551.1 410.2L551.2 410.3H551.5L551.4 410.7L550.9 410.9H550.6L550.2 411L549.8 411.6L549.7 411.3L549.4 411.4L549.2 411.2V410.9L549.7 410.8V410.6L550 410.2L550.7 410.3L551.1 410.2Z" fill="#FF9FC8"/>
<path d="M524.8 407.4L525.1 407.3L525.7 407.6L526.2 408.1L526.5 408.4H526.7L526.9 408.6H527.1L527.4 408.9L527.7 408.8L528.1 408.9L528.3 409.1H528.7L529 409L529.2 409.3L529.4 410.1L529.7 410.4V410.9L529.5 411.1L529.6 411.4L529.2 411.2L528.9 411.4L528.6 411.3L528.1 411H527.9L527.3 410.8L526.9 410.7L526.7 410.4L526.4 410.2L526.1 410.1L525.9 409.8L525.5 409.6L525.7 409.2L525.6 408.8V408.4L525.4 408.3L524.8 408.1L524.5 408.2L524.4 408L524.5 407.7L524.6 407.4H524.8Z" fill="#FF9FC8"/>
<path d="M528.8 404L528.7 404.2V404.9L528.5 404.7V404.2L528.8 404Z" fill="#FF9FC8"/>
<path d="M525.9 402.2L526.2 403.1L526.4 403.5V403.9L526.5 404.4L526.3 404.7L525.9 404L525.8 404.3L525.5 403.8L525.6 402.8L525.7 402.6V402.3L525.9 402.2Z" fill="#FF9FC8"/>
<path d="M517.5 402.4H517.8L518.1 402.3L518.5 402.4L518.6 402.3H519.1H519.9L520.1 402.6L520.4 402.7L520.6 403H520.8L521 403.1L521.4 403.5V404.1H521.6L522 404.3L522.1 404.6V405.2L522 405.3L521.3 405.5L521.1 405.6L520.7 405.5L520.3 405.3H519.9L519.8 405.1L519.3 404.8H518.7L518.2 404.9H517.7L517.2 404.8L516.9 404.6L516.6 404.7L516.3 404.3L516 404.1L515.7 403.3L515.5 402.9L515.7 402.7L515.6 402.5V401.8L515.7 401.5L516.3 401.2L516.7 401.4L517.1 401.9L517.2 402.2L517.5 402.4Z" fill="#FF9FC8"/>
<path d="M519.8 400L520.3 400.5L520 400.8L519.7 400.6V400.5L519.8 400Z" fill="#FF9FC8"/>
<path d="M519.8 400L519.6 400.4H519.5L519.1 400.1L518.8 400.2L518.6 400.1L518.5 399.9L518.8 399.8L519 399.6L519.5 399.7L519.8 400Z" fill="#FF9FC8"/>
<path d="M513.2 399.5L513.3 399.7L513.5 399.8L513.3 400.2L512.9 400.4L512.6 400L513.2 399.5Z" fill="#FF9FC8"/>
<path d="M504.7 397.7L504.9 398L504.8 398.3L504 397.9L504.5 397.6L504.7 397.7Z" fill="#FF9FC8"/>
<path d="M508.1 398.5L507.8 398.3L507.9 398L508.2 397.7V398.2L508.3 398.4L508.1 398.5Z" fill="#FF9FC8"/>
<path d="M507.2 396.7L507.4 396.6H507.8V396.8L507.4 397.1L507.6 397.3V397.6L507.2 398L507 398.1L506.7 398L506.3 397.6L506.4 397L506.7 396.9L506.9 396.5L507.2 396.4V396.7Z" fill="#FF9FC8"/>
<path d="M503.6 396.8L503.4 396.9L503.2 397.4L503.6 397.9L503.1 397.7V397.5L503 397.2L502.6 396.8V396.6L503 396.4L503.1 396.1L503.5 395.8L503.8 396V396.4L503.6 396.8Z" fill="#FF9FC8"/>
<path d="M516.5 396.3L516.7 396.5L516.6 396.7L516.4 396.6L515.8 396.1L516 395.7L516.3 395.6L516.5 395.8L516.4 396.1L516.5 396.3Z" fill="#FF9FC8"/>
<path d="M523 395.5L523.4 396.3L524 397.1V397.4L523.6 397.6V398.1V398.4L523.7 398.6H523.9L524.1 398.9L524.6 399.3L524.7 399.8L524.8 400.1L525 400.3L524.8 400.5L525.1 400.8L525 400.9L525.1 401.4L524.9 401.6L525.2 401.9L525.3 402.4L525.5 402.9V403.5L525.4 403.6L525.1 403.3L524.8 402.8V402.5L524.5 402.1L524.1 401.8L523.8 401.5L523.3 400.9L522.9 400.6L522.6 399.7L522.4 398.7L522.2 398V397.5L522.1 397.1L522.5 396.7L522.4 396.4L521.9 395.7L521.8 395.4L521.9 395.3L522.3 395.4L522.5 395.5L522.8 395.2L523 395.5Z" fill="#FF9FC8"/>
<path d="M502.3 395.2L502.1 394.8L501.8 394.5H502.2L502.3 395.2Z" fill="#FF9FC8"/>
<path d="M502.2 394.2L502.6 394.3L502.7 394.4L502.8 394.9H502.6L502.4 394.5L502.2 394.2Z" fill="#FF9FC8"/>
<path d="M505.3 394.4L505.2 394.7H505.4H505.9L506.3 395.4V395.6L506.5 395.9L506.6 396.4L506.4 396.6V396.9L505.8 396.7L505.6 396.5H505.3L504.9 396.2L504.8 396L504.7 395.7L505.1 395.8L504.8 395L504.7 394.8L504.2 394.9L504 395H503.6L503.3 395.4L502.9 395.2V394.6L503.1 394.4H503.5V394L503.9 393.4L504.3 393.1L504.6 392.9L505 393.2L505.2 393.6L505.1 394.3L505.3 394.4Z" fill="#FF9FC8"/>
<path d="M499.4 394.4H499.3L499.1 393.6L499.2 393.3V392.9L499.4 393L499.5 393.4V394.1L499.4 394.4Z" fill="#FF9FC8"/>
<path d="M502.8 393.9L502.5 394.1L502.4 394H502L501.7 393.7L501.6 393.4L501.5 393.1L501.6 392.8L501.9 392.4L502.4 392.2L502.6 392.4L502.9 392.9V393.5L502.8 393.9Z" fill="#FF9FC8"/>
<path d="M499.8 390.4L500.2 390.9V391L500.9 391.4L500.8 391.7L500.2 392.4V392.7L499.9 392.8V392.4H499.7V392L499.5 391.6L499.2 391.4L499.1 391.1L499.2 390.8L499.4 390.6L499.6 390.4H499.8Z" fill="#FF9FC8"/>
<path d="M510.1 390.5L510.4 390.7L510.2 390.8L509.7 390.9L509.6 390.6L509.8 390.4L510.1 390.5Z" fill="#FF9FC8"/>
<path d="M511 390.5L511.2 390.4L511.7 390.7L512 390.8L512.2 391L512.5 391.5L512.8 391.6L513.1 391.9V392.2L513.6 392.3V392.6L513.9 392.7L514.2 392.6L514.3 392.7L514.7 392.9L514.8 393.1L515.1 393L515.4 393.1L515.5 393.4L515.9 393.7L516.2 394L516.6 394.3L517.6 395.3L517.3 395.7L517.6 396.2L517.7 396.8L517.4 396.7L517.1 396.3L516.4 395.5L516 395.4L515.5 395L514.9 394.9L514.8 394.6L514.2 394.4L513.7 393.9H513.5L512.7 393.3L512.2 393V392.8L511.8 392.6L511.6 392.4L511.4 392L511 391.7L510.9 391.5V391.1L510.5 390.6L510.3 390.5V390.2L511 390.5Z" fill="#FF9FC8"/>
<path d="M509.5 389.9L509.7 390.1L509.9 390L510.2 390.2L510.1 390.4L509.8 390.3L509.5 389.9Z" fill="#FF9FC8"/>
<path d="M505 389.3H505.5L505.3 389.5L505 389.4V389.3Z" fill="#FF9FC8"/>
<path d="M509.3 389.3L509.1 389.8L509 389.6L509.3 389.3Z" fill="#FF9FC8"/>
<path d="M506.6 389.7L506.1 389.8L505.9 389.6L506.2 389.2L506.5 389.3L506.6 389.7Z" fill="#FF9FC8"/>
<path d="M494.1 388.8L494.3 389.1L494.1 389.3L493.8 389.2L493.7 389.1L494.1 388.8Z" fill="#FF9FC8"/>
<path d="M495.6 386.9L495.9 387.1L495.8 387.4L495.1 387.6L494.8 387.3L495.1 386.7L495.3 386.6L495.6 386.9Z" fill="#FF9FC8"/>
<path d="M497.3 386V386.5L497.1 386.3V386.1L497.3 386Z" fill="#FF9FC8"/>
<path d="M500.2 384.5L500.5 384.6L500.9 385.1L501.2 385.3L501.5 385.4L501.8 385.7L502.6 386.1L503 386.6V387L503.1 387.6L503.3 387.8L503.6 388.1H503.8L503.9 388.5L504.6 388.8L505 388.7L505.1 388.8V389.1L504.8 389.2L504.6 389.5L504.1 389.3L503.3 388.9H502.8L502.5 388.5L501.8 388.1L501.2 387.1L500.6 386.1L500.1 385.8L499.4 385.1V384.6V384.4L499.7 384.2L500 384.3L500.2 384.5Z" fill="#FF9FC8"/>
<path d="M559.8 471.8L559.3 471.6L559.5 471.2L560 471.1L560.2 471.5L560.1 471.7L559.8 471.8Z" fill="#FF9FC8"/>
<path d="M558.6 468H558.4L558.1 467.9L557.7 467.4L557.6 467V466.6L557.8 466.4L557.9 466L558.2 465.9H558.6L558.4 466.2V466.7L559.1 467.2L558.8 467.5L558.6 468Z" fill="#FF9FC8"/>
<path d="M558.6 462.1H558.9L559 462.3L558.5 462.4L558.6 462.7L559 462.9L559.1 463.2L559 463.6L558.6 463.7L558.2 463.4H557.8L557.6 463.2L557.3 463L557.4 462.6V462.3L557.6 461.8L557.9 461.4H558.4L558.6 461.5L558.5 461.9L558.6 462.1Z" fill="#FF9FC8"/>
<path d="M555.6 454.5L556.2 454.4L556.3 454.5L556.5 455.1L556.7 455.4L556.8 455.5L556.4 456.1L555.6 456.3L555.3 456L555.2 455.5L554.9 455.4L554.5 455.7L554.4 455.6L554.6 455.2L555 454.9L555.4 454.4L555.6 454.5Z" fill="#FF9FC8"/>
<path d="M557.9 450.6L557.8 450.3H558.1L557.9 450.6Z" fill="#FF9FC8"/>
<path d="M556.3 448.2L556.4 448.7V448.9L556.8 449L557 449.5H557.5V449.9L557.4 450L557.1 449.7L556.8 449.6L556.2 449.8L555.9 449.7L555.8 449.5L555.7 449.1L555.9 448.6L556.1 448.3L556.3 448.2Z" fill="#FF9FC8"/>
<path d="M557.2 448H557.1L557 447.7H557.2V448Z" fill="#FF9FC8"/>
<path d="M557.4 446.6L557.2 446.8H556.6L556.3 446.9L556.1 446.7L555.7 446.6L555.2 446.2L555.3 446L555.8 445.8L556.2 445.7L556.6 445.4L556.7 445.1H556.9L557 445.4V446L557.5 446.4L557.4 446.6Z" fill="#FF9FC8"/>
<path d="M552.7 445.3L552.9 445.6L553.5 446L554.2 446.7L554.3 446.8V447.2L554.5 447.5L554.2 447.7L553.8 448.1V447.9L553.5 447.8H553.1L552.9 447.9V448.1L552.5 448.3L552.2 448.2V447.5L552.1 446.9L552.2 446.3L552.3 445.8L552.1 445.3L551.5 445.6L551.3 445.4L551.2 445.1V444.8L551.5 444.5V444.1L551.6 443.8L551.9 443.7L552.5 444L552.4 444.2L552.6 444.7L552.5 444.9L552.7 445.3Z" fill="#FF9FC8"/>
<path d="M552.1 442.9H551.8L551.3 442.6V442.5L551.5 442.2L551.7 442.1L552.2 442.2L552.1 442.6V442.9Z" fill="#FF9FC8"/>
<path d="M551.6 441.9L552 441.6L552.1 441.7L552.2 442H551.7L551.6 441.9Z" fill="#FF9FC8"/>
<path d="M557.3 444.5L557.1 444.4L557.2 443.2L557.1 442.9L557.2 442.4L557.5 441.6L557.6 441.1L557.8 441.7L557.7 442V442.6V443.6L557.6 444.2L557.3 444.5Z" fill="#FF9FC8"/>
<path d="M556 441.2H555.3L555 441.1V440.9L555.9 440.2L556.4 440L556.9 439.9V440.1L556.6 440.5L556.4 440.8L556 441.2Z" fill="#FF9FC8"/>
<path d="M557.9 440.5V440.7H557.6L557.7 440.4L557.9 439.1V439L558 437.8L558.2 437.9L558.1 439.2L558.2 439.5L558.1 440L557.9 440.5Z" fill="#FF9FC8"/>
<path d="M551.6 441.9L550.7 441.8L550.1 442.1L550 442.3H549.8L549.7 441.7L549.5 441.6L549.1 440.6L549.5 439.8V439.4L549.4 439.2V437.8L549.3 437.5V437L549.5 436.7V436.4L549.7 436.1V435.9L550 435.8L550.1 436.3L550.3 436.7L550.5 437L550.6 438.3L550.5 439.1V439.2L551.1 439.1L551.4 438.8L551.6 438V437.8L551.9 437.6L552.2 437.7L552.1 438.1V439L552.4 439.1V439.6L552.2 439.7L552.5 440.1L552.3 440.3V440.8L552.5 441.3L552.4 441.5H552.1L551.6 441.9Z" fill="#FF9FC8"/>
<path d="M555.8 432.6L556.2 432.9L556.1 433.3L555.8 433.6L555.6 433.8H555V433.4L555.1 433L555.3 432.7L555.8 432.6Z" fill="#FF9FC8"/>
<path d="M556.4 430.7L556.1 430.9L555.9 431V431.2L555.7 431.3V431L555.5 430.8L555.4 430.5L555.5 430.1L555.7 430L556.1 429.8L556.2 430L556.3 430.4V430.5L556.4 430.7Z" fill="#FF9FC8"/>
<path d="M551.4 426.5L551.3 426.4L551.4 425.9L551.6 426.1L551.4 426.5Z" fill="#FF9FC8"/>
<path d="M371 603.6L374.7 605.8L378 604.9L382.9 603.7L385.7 604.1L381.2 611.7L377.9 613.8L373.9 619L373.3 617.2L366.7 621.6L365.9 621.3L362.9 621.1L363.4 615.7L365.4 611.5L366 605.9L368 603L371 603.6Z" fill="#FF9FC8"/>
<path d="M349.2 58.6L353.7 59.9L355.5 57.3L361.5 64.4L355.1 66.1L354.7 72.4L343.8 68.1L345.4 75L339.7 75.1L335 68.8L334.4 63.9L339.6 63.6L335.2 54.8L333.4 49.9L343.9 56.5L349.2 58.6Z" fill="#FF9FC8"/>
<path d="M176.4 204.2L172.3 208.4L171.5 210.7L168.5 212.2L165.7 215L161.8 215.3L160.3 222.2L158.1 223.4L161.6 229L165.7 233.7L168.6 238L167.2 243.5L165.4 244.7L167.2 247.9L171.5 253L172.5 256.6L172.7 259.6L175.4 265.5L172.8 271.5L170.6 278.1L169.7 273.3L171 268.4L168.8 264.6L168.6 257.6L166 254.2L163.3 246.6L161.3 238.5L158.2 233.1L155 236.4L149.2 240.9L145.9 240.4L142.3 238.9L143.2 230.9L141.2 224.9L135.9 217.5L136.2 215.2L132.8 214.3L128.2 209.1L127.1 203.9L129.2 204.9L128.6 200.3L131.1 198.8L130.1 196.1L131.1 193.9L130.2 187.2L134.8 188.7L136.4 183.4L136.1 180.3L138.1 174.9L137.2 171.2L143.4 166.8L147.6 167.9L146.2 164L147.9 162.8L146.9 160.4L150 159.9L152.7 163.7L155.4 165.2L156.7 170.1L157.6 175.4L153.4 180.8L154.1 188.4L159.7 187.3L162.1 193.2L165.8 194.5L165 199.8L169.5 202.2L172.1 203.4L175.9 201.5L176.4 204.2Z" fill="#FF9FC8"/>
<path d="M288.3 69.9L289.7 71L287.5 70.6L286.5 72.8L286.2 74.9L289 79.5L287.1 80.9L286.8 82L285.9 83.9L283 85L281.6 86.7L282.9 89.4L282.6 90.1L285.2 91.2L289.6 94V95.5L287.6 95.9L284 96.3L283.4 99.1L280.9 98.9V99.5L277.7 98.3L277.6 99.5L276.3 100L275.6 98.8L273.9 98.2L272 97.2L272.1 94.4L273 93.6L272 92.5L271.6 89L270.7 88L267.3 87.3L263.9 85.6L266 81.5L269.9 78.1L271 73.5L274.6 75.5L279.2 75.8L276.4 72.4L282.8 69.7V66.1L288.3 69.9Z" fill="#FF9FC8"/>
<path d="M514.2 604.4L513.4 607L519 604.4L518.5 607.1L516.4 609.8L512.2 612.7L505.1 617.4L500.4 620L499.8 623L495.8 623.1L489.5 625.5L484.8 629.6L476.6 636L470.3 638.8L466.3 640.6L461.7 640.5L460.2 638.4L455.1 638L456.1 635.6L462.6 631L474 624.7L478.3 623.5L483.9 621.1L490.9 617.8L496.6 614.5L502.6 609.8L505.7 608.2L509.2 604.6L515 601.7L514.2 604.4Z" fill="#FF9FC8"/>
</svg>
