<svg width="249" height="220" viewBox="0 0 249 220" fill="none" xmlns="http://www.w3.org/2000/svg">
<path d="M152 170L152.4 171.2L153.8 170.6L155 172.3L156.3 173L156.9 175.3L156.4 177.5L157.4 180.2L159.7 181.7L159.8 183.4L158.1 184.3L158 186.4L155.8 189.5L154.9 189.1L154.7 187.7L151.6 185.5L150.9 182.5L151 178.1L151.5 176.2L150.6 175.2L150.1 173.1L152 170Z" fill="#7A95FF"/>
<path d="M134.6 132.8L134.3 133.6L135 135.7L134.8 138.3H132L133.1 139.7L131.8 143.7L130.9 144.8L126.5 144.9L124.1 146.4L119.9 145.9L112.6 144.2L111.3 142.1L106.4 143.2L105.9 144.4L102.8 143.5L100.2 143.3L97.9 142.1L98.6 140.6L98.4 139.5L99.8 139.2L102.5 140.9L103.1 139.2L107.5 139.5L111 138.4L113.4 138.6L115.1 139.9L115.5 138.8L114.5 134.7L116.2 133.9L117.8 131L121.6 133.1L124.2 130.5L125.9 130L129.9 131.9L132.2 131.6L134.6 132.8Z" fill="#7A95FF"/>
<path d="M80.5 119.1L80.1 123.3L78.8 123.5L78.4 127L74 124.1L71.5 124.6L68 121.7L65.6 119.2L63.4 119.1L62.6 116.9L66.5 115.7L70.1 116.2L74.6 114.9L77.7 117.6L80.5 119.1Z" fill="#7A95FF"/>
<path d="M196.6 163.6L194.3 166.2L193 170.7L195.1 174.3L190.5 173.5L185.5 175.5L185.8 178.7L181.2 179.3L177.3 177L173.3 178.8L169.5 178.6L168.7 174.4L165.9 172.3L166.6 171.5L166 170.7L166.6 168.7L168.4 166.7L165.6 164L164.9 161.6L166 160.2L167.8 162.8L169.7 162.4L173.7 163.3L181.3 163.7L183.6 162.1L189.5 160.6L193.5 162.9L196.6 163.6Z" fill="#7A95FF"/>
<path d="M147 156.3L148.9 156.2L147.8 159L150.5 161.5L150 164.4L148.9 164.7L148 165.3L146.4 166.8L146 170.3L141.2 167.9L139.1 165.2L137 163.8L134.5 161.4L133.2 159.5L130.5 156.5L131.3 153.9L133.3 155.4L134.3 154L136.6 153.9L141.1 155L144.6 154.9L147 156.3Z" fill="#7A95FF"/>
<path d="M205.6 104.7L201.7 104.5L200.9 105.1L202.4 107.1L204.4 111.1L200.3 111.4L199 112.8L199.3 115.9L197.2 115.3L192.9 115.6L191.4 114.1L189.7 115.2L187.8 114.3L183.9 114.2L178.2 112.7L173.3 112.2L169.5 112.4L167.1 114L164.8 114.3L164.3 111.5L162.4 108.7L165.2 107.4L164.8 105L163.1 102.7L162.5 100H167.2L172 97.7L172.5 94.3L176.1 92.3L175.1 89.6L177.8 88.6L182.4 86.3L187.7 87.8L188.6 89.3L191 88.6L195.8 90L196.9 92.9L196.2 94.5L200 98.5L202.1 99.6V100.7L205.5 101.8L207.2 103.4L205.6 104.7Z" fill="#7A95FF"/>
<path d="M98.4 139.5L98.6 140.6L97.9 142.1L100.2 143.3L102.8 143.5L102.5 146L100.4 147.1L96.6 146.3L95.6 148.8L93.2 149L92.3 148L89.6 150.2L87.1 150.5L84.9 149.1L83.1 146.4L80.7 147.4V144.5L84.3 141L84.1 139.4L86.4 140L87.7 138.9H91.9L92.9 137.6L98.4 139.5Z" fill="#7A95FF"/>
<path d="M123.7 117.2L126.2 119.2L129.9 119.7L129.7 121.4L132.5 122.7L133.1 121.1L136.5 121.8L137.2 123.8L140.9 124.1L143.5 127.2H142L141.3 128.3L140.2 128.6L140 130L139.1 130.3L139 130.9L137.4 131.5L135.2 131.4L134.6 132.8L132.2 131.6L129.9 131.9L125.9 130L124.2 130.5L121.6 133.1L117.8 131L114.8 128.4L112.2 126.9L111.5 124.2L110.5 122.4L113.9 121.1L115.6 119.5L119.1 118.3L120.2 117.1L121.5 117.8L123.7 117.2Z" fill="#7A95FF"/>
<path d="M117.9 100.9L119.3 104L118.1 105.7L120 107.8L121.5 111.1L121.3 113.3L123.7 117.2L121.5 117.8L120.2 117.1L119.1 118.3L115.6 119.5L113.9 121.1L110.5 122.4L111.5 124.2L112.2 126.9L114.8 128.4L117.8 131L116.2 133.9L114.5 134.7L115.5 138.8L115.1 139.9L113.4 138.6L111 138.4L107.5 139.5L103.1 139.2L102.5 140.9L99.8 139.2L98.4 139.5L92.9 137.6L91.9 138.9H87.7L88.1 134.4L90.5 130.2L83.3 129L80.9 127.4L81.1 124.7L80.1 123.3L80.5 119.1L79.4 112.6H82.3L83.5 110.3L84.4 104.7L83.5 102.6L84.3 101.3L88.3 101L89.3 102.3L92.4 99.3L91.1 97L90.7 93.6L94.4 94.4L97.3 93.5L97.6 95.8L102.5 97.2L102.6 99.4L107.3 98.2L109.9 96.6L115.5 99L117.9 100.9Z" fill="#7A95FF"/>
<path d="M110.1 89.7L107.7 94.6L102.5 91.1L101.6 88.6L108.4 86.6L110.1 89.7Z" fill="#7A95FF"/>
<path d="M97.3 93.5L94.4 94.4L90.7 93.6L88.6 90.2L88.2 84.1L88.8 82.4L90.1 80.6L94.1 80.3L95.7 78.6L99.3 76.9V80L98.1 82L98.8 83.6L101.4 84.5L100.4 86.8L99 86.2L95.9 90.5L97.3 93.5Z" fill="#7A95FF"/>
<path d="M177.7 66.6L178.6 67.6L176 71L178.4 76.6L176.8 78.5L173 78.4L168.6 76.2L166.5 75.5L162.7 76.5L162.6 73L161.1 73.8L157.8 71.7L156.8 68.3L162.3 66.6L167.9 65.8L173 66.7L177.7 66.6Z" fill="#7A95FF"/>
<path d="M168.1 12.1L168.5 15.9L175.8 19.6L172.9 23.8L179.4 30.1L177.7 34.9L182.6 39.1L181.7 42.9L189.1 46.8L188.2 49.7L184.8 53.1L176.8 60.5L168.8 61L161.2 63.1L154.1 64.4L150.9 61.2L146.2 59.3L146.3 53.5L143.3 48.3L144.9 44.9L148.2 41.4L157 35.2L159.6 34L158.7 31.6L152.2 29L150.4 26.8L148.6 18.3L141.4 14.6L135.4 11.9L137.6 10.5L142.7 13.3L148 13.1L152.7 14.4L156.1 12L157.2 8.00002L163.1 6.20001L168.9 8.30002L168.1 12.1Z" fill="#7A95FF"/>
<path d="M20.7 100.2L17.2 99L14.2 99.1L15.4 95.8L14.5 92.6L18.5 92.3L23.4 96.1L20.7 100.2Z" fill="#7A95FF"/>
<path d="M36.6 71.5L31.5 78L36.2 77.2H41.3L40 82.1L35.7 87.5L40.6 87.8L40.9 88.5L45.1 95.6L48.3 96.6L51.2 103.6L52.6 106L58.5 107.1L57.9 111.1L55.5 112.9L57.4 116.1L53 119.3L46.5 119.2L38.1 121L35.9 119.7L32.6 122.6L28.1 121.9L24.5 124.3L22 123.1L29.3 116.6L33.7 115.2L26.1 114.2L24.8 111.7L29.9 109.8L27.4 106.5L28.4 102.5L35.5 103.1L36.3 99.5L33.2 95.8L33.1 95.7L27.4 94.6L26.3 93L28.1 90.3L26.6 88.6L24 91.5L23.9 85.6L21.7 82.6L23.6 76.4L27.4 71.6L31 72L36.6 71.5Z" fill="#7A95FF"/>
<path d="M185.9 181.9L182.7 181.7L180 181.1L173.8 182.7L177.8 186.3L175.3 187.4H172.4L169.3 184.1L168.4 185.5L170 189.3L172.9 192.3L171 193.7L174.2 196.6L177 198.5L177.4 202.1L172.4 200.4L174.2 203.7L170.9 204.3L173.4 210L169.9 210.1L165.3 207.3L162.9 202.2L161.6 197.9L159.3 195L156.3 191.3L155.8 189.5L158 186.4L158.1 184.3L159.8 183.4L159.7 181.7L163.1 181.2L164.9 179.8L167.7 179.9L168.5 178.8L169.5 178.6L173.3 178.8L177.3 177L181.2 179.3L185.8 178.7L185.5 175.5L188.2 177.2L187.1 181.2L185.9 181.9Z" fill="#7A95FF"/>
<path d="M145.5 149.6L147 152.1L148.7 153.9L147 156.3L144.6 154.9L141.1 155L136.6 153.9L134.3 154L133.3 155.4L131.3 153.9L130.5 156.5L133.2 159.5L134.5 161.4L137 163.8L139.1 165.2L141.2 167.9L146 170.3L145.5 171.3L140.5 169L137.3 166.7L132.5 164.8L127.8 160.2L128.8 159.7L126.3 157L126 154.9L122.7 153.9L121.3 156.6L119.7 154.5V152.3L119.8 152.2L123.4 152.4L124.2 151.4L126 152.4L128 152.5L127.9 150.8L129.6 150.1L129.9 147.6L133.8 145.9L135.4 146.7L139.4 149.4L143.7 150.6L145.5 149.6Z" fill="#7A95FF"/>
<path d="M160.2 133.9L163.2 135.6L163.7 137.3L160.8 138.6L158.9 142.8L156.3 147.1L152.4 148.3L149.2 148L145.5 149.6L143.7 150.6L139.4 149.4L135.4 146.7L133.8 145.9L132.6 143.8L131.8 143.7L133.1 139.7L132 138.3H134.8L135 135.7L137.7 137.4L139.6 138L143.7 137.3L144 136L145.9 135.8L148.2 134.9L148.8 135.3L151.1 134.5L152.1 133L153.7 132.6L159.2 134.5L160.2 133.9Z" fill="#7A95FF"/>
<path d="M20.7 100.2L21.4 104.6L17.5 110.1L8.70001 113.7L1.90002 112.8L6.20001 106.4L4.09998 100.2L10.8 95.4L14.5 92.6L15.4 95.8L14.2 99.1L17.2 99L20.7 100.2Z" fill="#7A95FF"/>
<path d="M132.2 198.4L130.5 203.5L131.4 205.4L130.5 208.7L126.3 206.3L123.6 205.6L116.1 202.4L116.6 199.1L122.8 199.7L128.2 199L132.2 198.4Z" fill="#7A95FF"/>
<path d="M98.2 179.4L101.5 183.9L101.1 192.4L98.7 192L96.6 194.1L94.6 192.4L94.1 184.7L92.8 181.1L95.7 181.4L98.2 179.4Z" fill="#7A95FF"/>
<path d="M119.9 145.9L119.5 149L120.9 151.7L116.8 150.7L112.9 153L113.3 156.1L112.8 157.9L114.7 161.1L119.7 164.3L122.6 169.6L128.7 174.7L132.7 174.6L134.1 176L132.7 177.3L137.5 179.6L141.5 181.5L146.2 184.9L146.8 186L146 188.3L142.9 185.3L138.3 184.3L136.4 188.4L140.3 190.8L139.9 194.1L137.8 194.5L135.3 200L133.1 200.5L133 198.5L133.9 195.1L135 193.7L132.7 190L130.9 186.8L128.7 186L126.9 183.3L123.5 182.1L121.1 179.5L117.3 179.1L113 176.3L108.1 172.1L104.4 168.5L102.5 162.2L99.9 161.5L95.7 159.4L93.4 160.2L90.5 163.2L88.4 163.6L88.9 160.9L86.1 160.1L84.6 155.2L86.3 153.3L84.8 150.9L84.9 149.1L87.1 150.5L89.6 150.2L92.3 148L93.2 149L95.6 148.8L96.6 146.3L100.4 147.1L102.5 146L102.8 143.5L105.9 144.4L106.4 143.2L111.3 142.1L112.6 144.2L119.9 145.9Z" fill="#7A95FF"/>
<path d="M175.1 89.6L176.1 92.3L172.5 94.3L172 97.7L167.2 100H162.5L161.1 98.1L158.6 97.4L158 95.9L158.2 94.2L156 93.3L150.9 92.2L149.2 87.1L154.3 85.3L162.2 85.7L166.7 85.1L167.6 86.3L170.1 86.7L175.1 89.6Z" fill="#7A95FF"/>
<path d="M80.9 127.4L79.5 127.5L78.4 127L78.8 123.5L80.1 123.3L81.1 124.7L80.9 127.4Z" fill="#7A95FF"/>
<path d="M176.8 78.5L179.3 79.8L180.3 82.7L182.4 86.3L177.8 88.6L175.1 89.6L170.1 86.7L167.6 86.3L166.7 85.1L162.2 85.7L154.3 85.3L149.2 87.1L148.7 82.6L150.4 78.8L154.5 76.8L158.9 81.3L162.6 81.1L162.7 76.5L166.5 75.5L168.6 76.2L173 78.4L176.8 78.5Z" fill="#7A95FF"/>
<path d="M169.5 178.6L168.5 178.8L167.7 179.9L164.9 179.8L163.1 181.2L159.7 181.7L157.4 180.2L156.4 177.5L156.9 175.3L157.6 175.4L157.7 174.1L160.6 173.1L161.8 172.8L163.5 172.5L165.9 172.3L168.7 174.4L169.5 178.6Z" fill="#7A95FF"/>
<path d="M154.6 169.2L153.8 170.6L152.4 171.2L152 170L150.1 173.1L150.6 175.2L149.5 174.7L147.8 172.6L145.5 171.3L146 170.3L146.4 166.8L148 165.3L148.9 164.7L150.3 165.8L151.2 166.7L152.9 167.4L155 168.7L154.6 169.2Z" fill="#7A95FF"/>
<path d="M177.7 9.49999L171.3 11.6L168.1 12.1L168.9 8.29999L163.1 6.19999L157.2 7.99999L156.1 12L152.7 14.4L148 13.1L142.7 13.3L137.6 10.5L135.4 11.9L132.8 12.1L132.9 15.7L124.9 14.8L124.3 17.9H120.3L118 21.8L114.6 27.9L108.9 35.8L110.7 37.8L109.4 40L105.1 39.9L102.7 45.3L103.7 53L106.8 55.9L106 62.8L102.6 66.8L100.8 70.2L97.5 66.6L88.9 73.4L82.8 74.8L76.3 71.8L74.5 65.5L72.5 52L76.5 48.3L87.8 43.4L95.9 37.5L103.1 29.7L112 19L118.4 14.9L128.7 8.09999L137.2 5.69999L143.9 5.99999L149.1 1.59999L156.5 1.79999L163.5 0.799988L177.2 4.69999L172.3 6.09999L177.7 9.49999Z" fill="#7A95FF"/>
<path d="M143.9 96.8L149.8 97.5L158.6 97.4L161.1 98.1L162.5 100L163.1 102.7L164.8 105L165.2 107.4L162.4 108.7L164.3 111.5L164.8 114.3L168 119.7L167.7 121.4L165.4 122.1L161.6 127.3L163.2 130.1L162.1 129.7L157.1 127.3L153.6 128.2L151.2 127.6L148.4 128.9L145.7 126.7L143.8 127.6L143.5 127.2L140.9 124.1L137.2 123.8L136.5 121.8L133.1 121.1L132.5 122.7L129.7 121.4L129.9 119.7L126.2 119.2L123.7 117.2L121.3 113.3L121.5 111.1L120 107.8L118.1 105.7L119.3 104L117.9 100.9L121 99.1L128.1 96.3L133.9 94.3L138.7 95.3L139.3 96.8H143.9Z" fill="#7A95FF"/>
<path d="M182.9 135.1L184.5 135.8L186.3 137.6L188.3 140.2L191.7 144L192.3 146.7L192.1 149.4L193.4 152.3L195.8 153.5L198.1 152.4L200.5 153.5L200.9 155.2L198.6 156.5L197 155.9L196.6 163.6L193.5 162.9L189.5 160.6L183.6 162.1L181.3 163.7L173.7 163.3L169.7 162.4L167.8 162.8L166 160.2L165 159.1L166 158L164.7 157.3L163.2 158.7L160.1 156.8L159.4 154.2L156.2 152.8L155.4 150.7L152.4 148.3L156.3 147.1L158.9 142.8L160.8 138.6L163.7 137.3L165.7 135.9L168.9 136.6H172.1L174.6 138.2L176.2 137.2L179.8 136.6L180.8 135.1H182.9Z" fill="#7A95FF"/>
<path d="M166 160.2L164.9 161.6L165.6 164L168.4 166.7L166.6 168.7L166 170.7L166.6 171.5L165.9 172.3L163.5 172.5L161.8 172.8L161.5 172.3L162.1 171.6L162.5 170L161.8 170.1L160.7 168.9L159.8 168.6L159 167.6L158 167.2L157.2 166.3L156.3 166.7L155.8 168.8L154.6 169.2L155 168.7L152.9 167.4L151.2 166.7L150.3 165.8L148.9 164.7L150 164.4L150.5 161.5L147.8 159L148.9 156.2L147 156.3L148.7 153.9L147 152.1L145.5 149.6L149.2 148L152.4 148.3L155.4 150.7L156.2 152.8L159.4 154.2L160.1 156.8L163.2 158.7L164.7 157.3L166 158L165 159.1L166 160.2Z" fill="#7A95FF"/>
<path d="M162.1 129.7L160.9 131.4L160.2 133.9L159.2 134.5L153.7 132.6L152.1 133L151.1 134.5L148.8 135.3L148.2 134.9L145.9 135.8L144 136L143.7 137.3L139.6 138L137.7 137.4L135 135.7L134.3 133.6L134.6 132.8L135.2 131.4L137.4 131.5L139 130.9L139.1 130.3L140 130L140.2 128.6L141.3 128.3L142 127.2H143.5L143.8 127.6L145.7 126.7L148.4 128.9L151.2 127.6L153.6 128.2L157.1 127.3L162.1 129.7Z" fill="#7A95FF"/>
<path d="M133.8 145.9L129.9 147.6L129.6 150.1L127.9 150.8L128 152.5L126 152.4L124.2 151.4L123.4 152.4L119.8 152.2L120.9 151.7L119.5 149L119.9 145.9L124.1 146.4L126.5 144.9L130.9 144.8L131.8 143.7L132.6 143.8L133.8 145.9Z" fill="#7A95FF"/>
<path d="M152.2 29L145.2 30.6L141.7 34.5L143 38L136.8 42.5L129 47.5L126.9 55.6L130.6 59.7L135.4 63L132.1 69.6L127.5 71L126.9 81L124.8 86.7L119.1 86.1L116.9 90.9L111.4 91.2L109.5 85.5L105 78.6L100.8 70.2L102.6 66.8L106 62.8L106.8 55.9L103.7 53L102.7 45.3L105.1 39.9L109.4 40L110.7 37.8L108.9 35.8L114.6 27.9L118 21.8L120.3 17.9H124.3L124.9 14.8L132.9 15.7L132.8 12.1L135.4 11.9L141.4 14.6L148.6 18.3L150.4 26.8L152.2 29Z" fill="#7A95FF"/>
<path d="M221.2 116.6L223.5 119.3L223.6 120.5L230.3 122.7L233.9 121.7L237.5 124.6L240.4 124.5L248.1 126.5L248.5 128.4L247.2 131.6L249 135.1L248.7 137.2L243.9 137.6L241.7 139.4L242.1 142.1L238.2 142.6L235.2 144.7L230.6 145L226.6 147.4L227.6 151.3L230.4 152.8L235.5 152.4L234.9 154.7L229.5 155.8L223.2 159.4L220.1 158.1L220.8 155.2L214.9 153.3L215.6 152.1L220.2 150L218.5 148.6L210.4 147L209.6 144.6L205.1 145.4L203.8 148.9L200.5 153.5L198.1 152.4L195.8 153.5L193.4 152.3L194.6 151.6L195.2 149.5L196.3 147.4L195.7 146.3L196.7 145.8L197.3 146.7L200.3 146.9L201.6 146.4L200.6 145.8L200.8 144.8L198.8 143.2L197.7 140.6L195.7 139.6L195.8 137.5L193.2 135.8L191.2 135.5L187.2 133.6L184 134.2L182.9 135.1H180.8L179.8 136.6L176.2 137.2L174.6 138.2L172.1 136.6H168.9L165.7 135.9L163.7 137.3L163.2 135.6L160.2 133.9L160.9 131.4L162.1 129.7L163.2 130.1L161.6 127.3L165.4 122.1L167.7 121.4L168 119.7L164.8 114.3L167.1 114L169.5 112.4L173.3 112.2L178.2 112.7L183.9 114.2L187.8 114.3L189.7 115.2L191.4 114.1L192.9 115.6L197.2 115.3L199.3 115.9L199 112.8L200.3 111.4L204.4 111.1L206.2 111.3L207.2 109.9L208.7 110.2L213.6 109.6L217.4 113.1L216.5 114.4L217.3 116.3L221.2 116.6Z" fill="#7A95FF"/>
<path d="M161.8 172.8L160.6 173.1L157.7 174.1L157.6 175.4L156.9 175.3L156.3 173L155 172.3L153.8 170.6L154.6 169.2L155.8 168.8L156.3 166.7L157.2 166.3L158 167.2L159 167.6L159.8 168.6L160.7 168.9L161.8 170.1L162.5 170L162.1 171.6L161.5 172.3L161.8 172.8Z" fill="#7A95FF"/>
<path d="M80.5 119.1L77.7 117.6L74.6 114.9L70.1 116.2L66.5 115.7L69 114L73 105L79.5 102.4L83.5 102.6L84.4 104.7L83.5 110.3L82.3 112.6H79.4L80.5 119.1Z" fill="#7A95FF"/>
<path d="M10.9 205.7L8.70001 207.3L5.90002 206.4L3.20001 207.1L4.09998 202.1L3.79999 198.2L1.40002 197.6L0.299988 195.2L0.799988 191L3 188.7L3.5 186.1L4.70001 182.3V179.6L3.79999 177.3L3.59998 175.1L5.5 173.5L7.70001 172.6L8.90002 175.7H11.9L12.8 174.9L15.9 175.1L17.2 178.3L14.8 180L14.5 185L13.7 185.9L13.4 189L11.1 189.5L13.1 193.3L11.5 197.5L13.3 199.4L12.5 201.1L10.5 203.5L10.9 205.7Z" fill="#7A95FF"/>
<path d="M158.6 97.4L149.8 97.5L143.9 96.8L144.6 94.2L150.9 92.2L156 93.3L158.2 94.2L158 95.9L158.6 97.4Z" fill="#7A95FF"/>
<path d="M40.6 165.4L42.6 167.8L52.1 170.7L54 169.3L59.8 172.2L65.7 171.4L66.1 175.1L61.2 179.3L54.6 180.7L54.1 182.8L50.9 186.3L48.9 191.5L50.9 195.2L47.9 198L46.7 202.2L42.7 203.5L39 208.4L32.2 208.5L27.2 208.4L23.8 210.6L21.7 213L19.1 212.5L17.2 210.3L15.8 206.7L10.9 205.7L10.5 203.5L12.5 201.1L13.3 199.4L11.5 197.5L13.1 193.3L11.1 189.5L13.4 189L13.7 185.9L14.5 185L14.8 180L17.2 178.3L15.9 175.1L12.8 174.9L11.9 175.7H8.90002L7.70001 172.6L5.5 173.5L3.59998 175.1L4.09998 170.6L2.09998 167.9L9.5 163.3L15.7 164.4H22.6L28 165.5L32.3 165.1L40.6 165.4Z" fill="#7A95FF"/>
<path d="M99.7 173.4L98.2 178.3L95.8 177L94.5 172.8L95.4 170.4L98.6 168L99.7 173.4Z" fill="#7A95FF"/>
<path d="M78.4 127L79.5 127.5L80.9 127.4L83.3 129L90.5 130.2L88.1 134.4L87.7 138.9L86.4 140L84.1 139.4L84.3 141L80.7 144.5V147.4L83.1 146.4L84.9 149.1L84.8 150.9L86.3 153.3L84.6 155.2L86.1 160.1L88.9 160.9L88.4 163.6L83.9 167.2L73.7 165.5L66.3 167.6L65.7 171.4L59.8 172.2L54 169.3L52.1 170.7L42.6 167.8L40.6 165.4L43.3 161.6L44.3 149L39.2 142.4L35.5 139.2L27.9 136.8L27.5 132.2L34 130.9L42.3 132.5L40.8 125.4L45.5 128.1L56.9 123.3L58.4 118.2L62.6 116.9L63.4 119.1L65.6 119.2L68 121.7L71.5 124.6L74 124.1L78.4 127Z" fill="#7A95FF"/>
<path d="M19.6 54L20 54.2H20.3L20.4 54.4V54.8L20.6 55.1L20.5 55.3L19.9 54.9L19.7 54.5L19.5 54.3L19.3 54H19.6Z" fill="#7A95FF"/>
<path d="M19.9 52.4L20.7 52.6L20.9 52.8L20.8 53.2L20.7 53.3L20.3 52.8L19.8 52.7L19.6 52.3L19.9 52.4Z" fill="#7A95FF"/>
<path d="M18.62 51.04L18.7 51.2H19V51.5H18.6L18.4 51.7L17.8 51.5L17.6 51.4L17.4 51.1L17.9 51L18 50.9L18.5571 50.9929L18.3 50.8L18.5 50L19 50.1L19.3 50.6V50.7L19.9 50.9L20.2 51.4L20.5 51.6L20.4 52.2L19.9 51.8L19.7 51.6L19.5 51.5L19.4 51.3L19.2 51.1H18.7L18.62 51.04Z" fill="#7A95FF"/>
<path d="M22.3 50.4L22.1 50.2L22.4 50L22.3 50.4Z" fill="#7A95FF"/>
<path d="M19.9 50.9L19.5 50.7L19.2 50.4L19.1 50.1L19.2 50L19.6 49.9H19.9L20.5 50.3L20.4 50.5L20.5 50.7L21.1 50.9V51.1L20.7 51.4L19.9 50.9Z" fill="#7A95FF"/>
<path d="M22.1 50.3L21.8 50.7L21.5 50.5H21.2L21.4 50.2L21.3 49.8L21.4 49.7L21.6 50.1L22.1 50.3Z" fill="#7A95FF"/>
<path d="M21.2 50.3H21L20.8 49.9L20.9 49.6L21.1 50L21.2 50.3Z" fill="#7A95FF"/>
<path d="M193.4 152.3L192.1 149.4L192.3 146.7L191.7 144L188.3 140.2L186.3 137.6L184.5 135.8L182.9 135.1L184 134.2L187.2 133.6L191.2 135.5L193.2 135.8L195.8 137.5L195.7 139.6L197.7 140.6L198.8 143.2L200.8 144.8L200.6 145.8L201.6 146.4L200.3 146.9L197.3 146.7L196.7 145.8L195.7 146.3L196.3 147.4L195.2 149.5L194.6 151.6L193.4 152.3Z" fill="#7A95FF"/>
<path d="M185.9 181.9L187.1 181.2L188.2 177.2L185.5 175.5L190.5 173.5L195.1 174.3L196 176.8L200.8 178.8L200.1 180.4L193.9 180.7L191.9 182.7L188 186.1L186 183.2L185.9 181.9Z" fill="#7A95FF"/>
<path d="M127.9 213.7L127.7 214L127.2 213.8L126.7 213.5V213L126.6 212.9H127.2L127.6 213.2L127.8 213.4L127.9 213.7Z" fill="#7A95FF"/>
<path d="M126.3 212.6L125.8 212.5V212.3L126.2 212.2L126.6 212.5L126.3 212.6Z" fill="#7A95FF"/>
<path d="M176.7 214.6L179.8 216.8L183.9 216.4L187.9 216.8V218L190.7 217.2L190.2 219.1L182.6 219.6L182.5 218.6L175.9 217.3L176.7 214.6Z" fill="#7A95FF"/>
</svg>
