<svg width="576" height="454" viewBox="0 0 576 454" fill="none" xmlns="http://www.w3.org/2000/svg">
<path d="M170.4 189.3L167.3 190.2L161 187.4V185.2L158.1 183L158.4 181.2L154.1 180.1L154.7 176.7L156.2 175.3L160.3 176.6L162.7 177.6L166.8 178.2L167 180.4L167.4 183.3L170.6 185.9L170.4 189.3Z" fill="#20CFCF"/>
<path d="M149.5 154.4L151 155.2L156 154.7L148.8 161.6L149.1 166.6H147.2L146.5 163.8L147 160.9L146.2 159L147.5 156.3L149.5 154.4Z" fill="#20CFCF"/>
<path d="M432.9 106.9L429.3 109.9L427.6 109.4L427.5 107.7L427.9 107.3L430.7 105.6L432.4 105.7L432.9 106.9Z" fill="#20CFCF"/>
<path d="M423.2 103.7L416 106.9L413 106.7V105.2L418 102.5L424 102.6L423.2 103.7Z" fill="#20CFCF"/>
<path d="M420.1 86.9L419.2 89.4L421.9 88.5L423.4 90L426.9 92L430.7 93.7L429.3 96.4L432.8 96L434.7 97.9L429.7 99.7L423.8 98.3L423 95.7L416.7 98.8L408.5 101.7L409.2 98.4L402.9 98.9L408.6 96.1L412.2 91.6L417.3 86.5L420.1 86.9Z" fill="#20CFCF"/>
<path d="M390.5 67.9L386.4 69.8L382.2 68.2L378.3 68.7L374.9 66.3L379.9 64.6L384.8 62.3L387.8 63.8L389.4 64.8L389.8 65.8L390.5 67.9Z" fill="#20CFCF"/>
<path d="M443.5 210.5L441.3 206.9L444.2 198.4L442.6 196.6L438.9 197.6L437.8 196L432.3 200.7L429.1 205.6L426.3 208.5L423.8 209.5L422.1 209.8L421 211.3H411.7L403.9 211.4L401.2 212.5L394.4 216.9V216.8L393.5 216.4L391.5 217.3L389.6 218.6L387.8 217.5L383.1 218.3L379.2 219.2L377.3 220L375 222.1L376.8 222.8L378.5 222.4H378.8L378.5 224.3L373.7 225L370.9 225.8L369.2 226.8L366.6 226.2L365 226.5L362.1 228.3L357.5 230.3L354.8 229.9L356.8 227.7L360.5 224.2L364.6 222.1L365.7 220.3L366.6 217.3L370.4 213.8L371.3 209.8L372.4 213.7L376.2 214.6L378.6 212.5L377.2 207.7L376.3 205.7L372.3 204.5L368.5 203.8H364.6L361.2 203L360.8 201.6L359.4 202.5L358.2 202.3L360.1 200.2L358.3 199.4L360.2 197L359 195.2L360.7 193.4L355.5 192.5L355.4 188.9L354.6 188.1L351.3 187.9L347.2 186.7L345.7 187.5L343.9 189L340.6 190L337.5 192.5L332.1 190.8L327.7 191.6L323.8 189.7L319.2 188.7L315.9 188.3L314.9 187.3L315.8 183.9H314.1L312.8 186.3H302.6H285.6H268.8H253.9H239.1H224.4H209.3H204.5H189.8H175.7H175L169.6 180.2L168 177.5L161 174.9L162.3 169.4L165.9 165.7L161.8 163L164.9 158.1L162.8 153.7L165.3 150.5L170.4 147.6L173.6 143.8L169 140L170.4 133.1L171.5 128.9L169.9 126.2L169.1 123.8L169.7 120.7L163.2 122.6L155.6 125.9L155.3 122.1L154.8 119.5L152 117.9L147.8 117.7L183.4 85L208 64.6L214 65.9L217.3 68.5L221 69L227.3 66.8L234.3 65.1L239.6 65.7L248.5 63.4L256.7 62.1L256.9 64.3L261.4 63L265.3 60.5L267.4 61.1L268.8 65.9L278.3 62.2L274.4 66.3L280.4 65.4L283.6 63.9L288.2 64.2L292.1 66.4L299.6 68.4L304.3 69.3L308.7 69L311.6 71.8L303.1 74.5L309.5 75.6L321.4 75L325.8 74L327.2 77.3L334.3 74.6L332.2 72.2L336.7 70.4L341.9 70.1L345.8 69.6L347.9 70.9L349.4 73.8L354.4 73.4L359.7 75.9L366.9 75L372.9 75.1L375.3 71.7L379.8 70.8L384.7 72.6L380.4 77.8L386.6 73.4L389.8 73.6L396.2 68.1L394.6 64.8L391.7 62.6L397.2 56.7L405.4 52.9L409.9 53.8L411.9 56.1L412.3 62.1L406.5 64.7L413.2 65.8L408.8 71.3L417.7 67.1L419.9 70.6L415.6 74.6L416.9 78.3L424.2 74.4L430.7 69.6L435.4 63.7L440.9 64.1L446.3 64.9L449.9 67.6L448.2 70.3L443.1 73.2L444 76.1L441.6 78.8L430.7 82.7L424.2 83.6L421 81.9L417.7 84.7L410.3 89.4L407.3 91.9L399.6 95.7L393.1 96.1L388 98.5L385.1 102.3L379.4 103L370.7 107.7L361.3 114.2L356.3 118.8L351.4 125.7L357.4 126.7L355.9 132.2L355.1 136.8L362.4 135.6L369.4 138.2L372.7 140.5L374.4 143.3L379.3 145L382.9 147.5L390.5 147.9L395.3 148.5L391.7 153.7L390 159.8L390.1 166.7L394.5 172.6L399.2 170.6L404.8 164.2L407.1 154.6L405.4 151.4L414.4 148.5L421.9 144.3L426.7 140.1L428.4 136.1L428 131L424.8 126.5L433.7 120.3L434.7 115L438.6 106L442.4 104.6L449.1 106.2L453.3 106.8L457.8 105.2L460.9 107.2L464.5 110.6L464.7 112.8L472.4 113.3L469.8 118.2L467.5 125.6L471.3 126.6L472.9 130.1L481.1 126.8L488.6 120.2L492.8 117.5L493.9 122.8L496.5 130.3L498.5 137.5L495.1 141.3L499.9 144.7L502.8 148.1L509.7 149.7L512.1 151.6V156.8L515.5 157.6L516.6 159.9L514.6 166.8L510.3 169.1L506.1 171.3L497.3 173.5L489.4 178.5L480.8 179.6L470.7 178.2H463.4L458.1 178.6L452.4 183.1L445 185.9L434.9 194.1L427 199.9L431.7 198.9L442.6 190.6L454.9 185.4L462.5 184.8L465.8 187.9L459.7 192.1L459.1 198.8L459.2 203.6L464.8 206.7L473.4 205.8L480.6 198.7L479.6 203.3L482.1 205.6L474.7 209.7L462.3 213.5L456.5 216L449.3 220.6L445.6 220.1L447.1 214.8L457.5 209.5L449.4 209.7L443.5 210.5Z" fill="#20CFCF"/>
<path d="M337 46.7L332.3 49.1L342.8 47.6L345.4 50.2L352.7 47.5L354.5 49.2L352.3 54.3L356.6 52.2L359.4 46.9L363.7 46.1L366.7 46.9L368.9 49L366.2 54.1L363.8 57.8L368 60.4L373 63L370.4 65.3L363.3 65.8L364.1 67.8L360.9 69.8L354.2 69L348.5 67.5L343.4 67.8L333.9 69.7L322.6 70.5L314.7 71L315 68.4L310.9 67L306.6 67.6L306 63.3L309.3 62.7L316.6 61.8L322.1 62.1L328.3 61.1L321.8 59.9L312.7 60.3L307 60.2V58.3L318.7 56.1L312.4 56.2L307 54.8L314.8 50.9L320 48.8L334.2 45.7L337 46.7Z" fill="#20CFCF"/>
<path d="M376.5 45.2L369.5 48.6L367.2 45L369.3 44.2L374.8 44L376.5 45.2Z" fill="#20CFCF"/>
<path d="M445.3 46.5L445.6 49.7L452.8 45.6L464.5 43.5L466.8 48.8L463.6 52.2L472.6 50.7L477.9 48.6L484.7 51.2L488.4 53.7L487.3 56L495.5 54.8L497.4 58.2L505.8 60.3L508 62.4L508.9 67.5L499.8 70L507.5 73.6L513.4 74.8L516.7 79.8L523.2 80.2L519.9 84.1L509 90.6L505 88.2L501.2 82.8L495.3 83.5L493 86.8L495.7 90L500.2 92.6L501.2 94.1L501.1 99.8L497.5 103.9L492.8 102.3L484.2 97.8L487.8 102.7L490.6 106.2L490.3 108.2L479.4 105.9L471.8 102.5L468 99.8L470.4 98.1L465.6 95.2L460.9 92.5L460 94.1L446.9 95L444.5 93.1L449.9 88.9L458 88.8L467.3 88.1L467.1 86.1L470.2 83.3L479 77.9L479.4 75.4L478.9 73.6L474.2 70.9L467.1 69.1L470.6 67.7L468.6 64.3L465.2 64L463.3 62.2L460 63.8L452.1 64.5L438.1 63.3L430.7 61.7L424.8 60.9L422.9 59L429.2 56.6H423.5L426.8 51.3L433.9 46.7L439.9 44.6L451.1 43.2L445.3 46.5Z" fill="#20CFCF"/>
<path d="M394.9 43L398.5 44.1L406.1 43.4L405.6 44.9L399.5 47.4L403.3 49.6L398.1 54.3L389.7 56.3L386.3 55.9L385.4 53.9L379.5 49.9L381.2 48.2L388.6 48.8L387.7 45.5L394.9 43Z" fill="#20CFCF"/>
<path d="M417.5 48.5L409.7 52.4L405.3 52.2L407.1 47.6L409.7 45.1L413.9 42.9L419.1 41.5L427 41.7L433.2 42.9L423.1 47.5L417.5 48.5Z" fill="#20CFCF"/>
<path d="M301.7 55.7L288.2 58.3L288.8 56L282.8 53.2L287.2 51L294.7 47.2L302.3 43.8L302.7 40.7L316.7 39.9L320.9 41L330.4 41.3L332.3 42.7L333.9 44.9L327.4 46.2L313.5 49.8L304.3 53.5L301.7 55.7Z" fill="#20CFCF"/>
<path d="M426.9 37.3L422.8 39.2L417.6 38.8L414.4 37.5L418.9 35.3L425.8 33.9L427.2 35.7L426.9 37.3Z" fill="#20CFCF"/>
<path d="M418.1 28.6L418.3 30.9L415.5 33.4L409.7 37.2L402.8 37.7L399.6 36.9L403 34L396.4 34.3L400.7 30.5L404.5 30.7L412.2 29L417.1 29.3L418.1 28.6Z" fill="#20CFCF"/>
<path d="M378.7 31.2L378 32.9L382.4 32.1L386 32.3L383.7 34.8L378.6 37.1L364.7 37.9L352.4 40.1L346.4 40.2L347.9 38.6L358.6 36.3L340.7 36.9L336.5 36L348.2 31.2L353.6 29.8L361.9 31.5L364.8 34.4L370.9 34.8L371.6 30.1L377.4 28.3L380.5 28.8L378.7 31.2Z" fill="#20CFCF"/>
<path d="M434.4 26.8L436.7 28.4H444.1L445.5 30L442.7 31.8L445.8 32.9L447 34.1L451.9 34.3L457 34.7L464.1 33.7L472.2 33.2L478 33.6L480.3 35.5L479.3 37.5L475.7 38.9L469 40L464.7 39.3L452.9 40.1L444.9 40.2L439.3 39.6L430.7 38L432.3 35.2L434.4 32.8L433 30.6L426 30L423.4 28.5L427.2 26.5L434.4 26.8Z" fill="#20CFCF"/>
<path d="M358.7 24.2L352.9 27.9L347.6 29.6L343.8 29.8L333.9 31.9L326.8 32.7L323.2 31.6L334.9 27.9L347.1 24.8L352.6 24.9L358.7 24.2Z" fill="#20CFCF"/>
<path d="M439.9 24.8L438.1 24.9L431.5 24.6L432.2 23.3L439.4 23.4L441 24.2L439.9 24.8Z" fill="#20CFCF"/>
<path d="M381.1 23.9L372.3 25.3L369 23.8L374.1 22.3L380.1 21.8L384.2 22.5L381.1 23.9Z" fill="#20CFCF"/>
<path d="M435.7 22.2L429.1 23.2L427.5 22.1L428.1 20.4L430.3 18.5L434.7 18.7L436.4 19L438.7 20.6L435.7 22.2Z" fill="#20CFCF"/>
<path d="M421.9 21L420.8 22.9L415.5 22.4L411.5 20.9L403.7 20.7L409 19.4L406.2 18.3L408.4 16.5L414.5 17.1L422 18.8L421.9 21Z" fill="#20CFCF"/>
<path d="M555.2 0.9L563.9 1.2L570.6 1.7L575.8 2.7L574.7 3.7L564.9 5.4L555.9 6.2L551.9 7.1H559.4L548.9 9.6L542.1 10.8L532.8 14.3L524.7 15L521.6 16L510.3 16.4L514.7 17L511.4 17.8L512.1 20.1L507.1 21.7L500.2 23L496.7 24.8L490.1 26.3L489.6 27.4L496.1 27.2L495 28.4L482.3 31.3L473.8 29.9L462.1 30.7L457.1 30.1L450.3 29.8L452.4 27.5L460.4 26.4L462.4 23L465 22.7L472.5 24.7L470.8 21.7L465.9 20.8L470.9 19L478.5 17.9L481.3 16.3L478.3 14.6L479.4 12.4L488.8 12.5L491 13L498.3 11.4L491 10.9L478.4 11.2L474 9.8L473.2 8.1L470.7 6.9L471.8 5.6L477.8 4.8L482 4.7L489.4 4.1L496.2 2.6L500.1 2.8L502.5 3.9L507.5 1.9L512.7 1.3L519.2 0.9L529.6 0.7L530.9 1.1L541.2 0.5L548.2 0.7L555.2 0.9Z" fill="#20CFCF"/>
<path d="M337.5 192.5L331.4 194.5L326.7 197L322.1 199.7L321.6 200.6L327.3 199.3L329.4 201.4L334 199.9L338.9 197.8L344.3 195.7L341.2 199L343.7 199.8L346.2 202.2L351.3 200.8L356.4 200.3L356.7 202.1L358.2 202.3L359.4 202.5L360.9 205L356.2 205.6H356.1L352.4 204.9L347.9 206.1L344.2 206.7L339.5 210.8L336.5 213.1L336.9 213.8L342.4 209.7H343.1L338.4 214.6L335.5 219L333 222.6L332.4 225.7L331.6 227.2L331 228.9L331.1 232.2L331.4 232.7L333.2 232.6L334.8 231.9L336.2 231.1L339.5 228L341.3 223.8L341.2 219.9L342.6 217.2L345.2 214.1L347.3 211.9L350 210.4L349.6 212.5L351.8 209.4L353.1 208.8L354.8 206.4L358.6 207.7L361.4 210.1L360.6 213L359 215.9L355.2 218.4L354.8 220H355.8L360.1 217.3L361.7 217.9L361.2 221.6L360.5 224.2L356.8 227.7L354.8 229.9L352.1 232.3L354.8 233.6L357.3 234L361.3 233.1L365 231.4L368 230.5L372.6 228.7L378.4 224.9L378.5 224.3L378.8 222.4L381.5 221.6L385.4 221.9L389.4 222.4L394 220.3L394.6 217.8L394.4 216.9L401.2 212.5L403.9 211.4L411.7 211.3H421L422.1 209.8L423.8 209.5L426.3 208.5L429.1 205.6L432.3 200.7L437.8 196L438.9 197.6L442.6 196.6L444.2 198.4L441.3 206.9L443.5 210.5L443.7 212.6L437.3 215.6L431.3 217.8L425.3 219.7L421.3 223.5L420 224.9L418.8 228.3L419.5 231.6L421.6 231.8L421.8 229.5L422.9 230.9L421.9 232.7L418.1 233.7L415.6 233.6L411.4 234.7L409.1 235L406 235.3L401 237.2L409.1 236L410.2 237.2L402.3 239.1H399L399.4 238.3L397.3 240.1L398.7 240.4L396.2 245L390.9 249.9L391 248.2L389.9 247.9L388.7 246.3V249.8L389.7 250.9L389.1 253.3L386.7 255.8L382.2 260.9L381.8 260.7L384.7 256.3L382.7 253.9L383.7 248.5L381.8 251.3V255.4L378.6 254.4L381.6 256.4L380.1 262.5L381.5 263V265.2L380.5 271.6L375.9 276.3L369.8 278.2L365.4 282L362.6 282.4L359.2 284.8L357.9 286.9L351 291.1L347.2 294.2L343.7 298L341.8 302.5V307L342.4 312.5L343.9 317L343.4 319.8L344.7 327.2L343.7 331.6L343.1 334.1L341.1 338L339.3 338.8L336.7 338L336.3 335.2L334.5 333.7L332.5 328.2L330.9 323.3L330.5 320.8L332.5 316.5L331.7 313L328.6 307.6L326.7 306.6L320.6 309.6L319.7 309.2L317.7 306.2L314.7 304.6L308.3 305.5L303.7 304.7L299.4 305.2L296.9 306.2L297.5 307.9L296.8 310.5L297.6 311.8L296.4 312.6L294.6 311.7L292.3 312.9L288.4 312.7L285.1 309.3L280.2 310.1L276.6 308.6L273.1 309.1L268.1 310.6L262 315.3L255.9 318.1L252.2 321.1L250.3 324L249.3 328.5L248.9 331.5L249.5 333.7L247.3 333.9L243.7 332.5L239.8 330.5L238.9 327.5L238.7 323L236.3 319.4L235.4 315.6L233.8 311.2L230.6 308.6L226.1 308.8L221.3 313.8L217.3 311.9L215 310L214.6 306.4L213.8 303.1L211.4 300.3L209.3 298.2L208 295.9H198.6L197.8 298.6H193.5H182.7L171.8 294.1L164.8 291L165.7 289.7L158.6 290.4L152.3 290.9L152.6 287.7L150.5 284L148.3 283.2L148.4 281.4L145.5 281L144.3 279.3L139.5 278.7L138.6 277.6L139.4 274.1L136.9 267.7L136.4 258.8L137.3 257.3L136 255.2L134.5 249.8L136.3 244.6L135.4 241.1L139.3 235.8L142.1 230.4L143.2 225.5L148.7 219.5L152.7 213.8L156.7 208.1L161 199.6L162.8 194.3L163.2 191.4L164.6 190.1L170.4 192.3L169.4 198.2L171.6 196.5L174.1 191.4L175.7 186.3H189.8H204.5H209.3H224.4H239.1H253.9H268.8H285.6H302.6H312.8L314.1 183.9H315.8L314.9 187.3L315.9 188.3L319.2 188.7L323.8 189.7L327.7 191.6L332.1 190.8L337.5 192.5Z" fill="#20CFCF"/>
<path d="M208 64.6L183.4 85L147.8 117.7L152 117.9L154.8 119.5L155.3 122.1L155.6 125.9L163.2 122.6L169.7 120.7L169.1 123.8L169.9 126.2L171.5 128.9L170.4 133.1L169 140L173.6 143.8L170.4 147.6L165.3 150.5L164.7 148.3L162.2 146.3L165.5 141.1L163.9 136.2L166.6 130.6L162.5 130.2L155.4 130.1L151.6 128.3L148.3 122.2L145 121.1L139.3 119L132.5 119.5L126.5 116.8L123.8 114.3L117.5 115.5L114 119.6L111.1 120L104.5 121.2L98.3 123.2L91.9 124.5L95.1001 121L103.5 115.2L110.3 113.4L110.7 112L101.3 115.2L93.9 119.1L82.7001 123.3L82.9 126.2L73.9 130.4L66.2001 132.9L59.6001 134.8L55.6001 137.4L45 140.5L40.5 143.3L32.3 145.9L29.6001 145.5L23.4 147.1L16.4 149.2L10.3 151.2L0.300049 153L0.700043 151.9L8.90004 149.1L15.5 147.2L24.1001 143.9L30.6001 143.3L35.6001 140.8L46 137.2L48.3 136L54 133.9L59.8 129.4L66 125.9L58.7001 127.7L58.4 126.6L53.5 128.8L53.9 125.8L50.3 127.9L51.9 125L44.6001 127.3H41.8L45.5 123.8L48.8 121.6L48.4 119.5L41.2 120.7L40.6001 117.9L39.3 116.5L43.3 113.2L42.9 110.7L48.8 107.4L56.5 104.1L61.8 101.2L65.9 100.8L67.7001 101.7L74.8 98.9L77.3 99.4L82.9 97.6L85.4 95L84.3 94L90.3 91.8L87.5 91.9L81.3 93.1L78.4 94.4L76.6001 93.1L69.7001 93.8L65.1001 92.4L66.3 90.1L65.3 86.9L74.5 84.5L87.7001 81.8H91.2001L86.9 84.6L96.1001 84.4L97.3 80.9L95 78.8L95.8 76L95.1001 73.7L91.8 72L98.3 69.1L105.8 68.9L114.6 66.5L119.4 63.9L127.3 61.3L132.1 60.7L143.3 58.3L146.4 58.7L156.8 55.9L161.2 57L160.7 59.4L164 58.4L170.3 58.7L168.4 59.9L173.3 60.8L178.2 60.3L184.4 61.9L191.6 62.5L193.8 63.1L200.4 62.3L204.5 63.9L208 64.6Z" fill="#20CFCF"/>
<path d="M435.3 292H435L434.9 292.1L435 292.3L434.6 292.5L434.5 292.4L434.7 292.3H434.8L434.9 292L435.2 291.9L435.3 292Z" fill="#20CFCF"/>
<path d="M285.8 397.8H284.1L285.4 390.6L286.1 385.5L286.2 384.5L286.9 384.2L287.8 385L290.3 381.1L291.4 381L291.3 382H292.3L292 383.8L290.7 386.5L291.1 387.5L290.2 389.8L290.5 390.4L289.5 393.7L288.2 395.4L287.1 395.6L285.8 397.8Z" fill="#20CFCF"/>
<path d="M312.6 429.6L313.8 433.1L315.8 435.7L318.3 438.4L316.1 439L316 441.6L317.1 442.5L316.2 443.3L316.4 444.4L315.8 445.7L315.5 447L312.5 445.6L311.4 444.2L312.1 443.1L312 441.7L310.5 440.2L308.3 438.9L306.5 438.1L306.2 436.2L304.8 435.1L305 436.9L303.8 438.5L302.6 436.7L300.9 436L300.2 434.8L300.3 432.8L301.2 430.8L299.7 429.9L301.1 428.6L302 427.8L305.6 429.5L306.9 428.7L308.7 429.2L309.5 430.5L311.2 431L312.6 429.6Z" fill="#20CFCF"/>
<path d="M342.8 353.7L344.7 356L349.9 355.3L351.7 356.8L355.9 360.8L359.1 363.7L360.9 363.6L364.1 364.9L363.5 366.7L367.5 367L371.4 369.6L370.6 371.1L366.8 371.9L363 372.2L359.3 371.7L351.2 372.3L355.4 368.8L353.3 367.1L349.7 366.7L348 364.8L347.2 361.2L344 361.4L339 359.7L337.5 358.3L330.4 357.3L328.6 356.1L330.9 354.5L325.5 354.2L321.1 357.5L318.8 357.6L317.8 359.2L315 359.9L312.7 359.2L315.9 357.3L317.4 354.9L320.1 353.5L323.1 352.3L327.4 351.7L328.8 350.9L333.5 351.4L337.9 351.5L342.8 353.7Z" fill="#20CFCF"/>
<path d="M286.1 385.5L285.4 390.6L284.1 397.8H285.8L287.5 399L288.1 398L289.6 398.8L286.8 401.3L283.9 403.1L283.4 404.3L283.7 405.6L282.4 407.2L281 407.6L281.3 408.4L280.1 409.1L278.1 410.7L277.8 411.6L275 410.5L271.5 410.4L269.1 409.1L266.3 406.5L266.7 404.6L267.5 403.1L266.8 401.9L270.1 396.7H277.3L277.7 394.5L276.9 394.1L276.4 392.7L274.5 391.2L272.7 389.1L275.2 389L275.7 385.4H280.9L286.1 385.5Z" fill="#20CFCF"/>
<path d="M317.6 403.5L315.7 403.4L314.8 404.3L312.8 405.1H311.4L310.1 405.9L309 405.7L308.1 404.7L307.5 404.9L306.6 406.4L306.1 406.3L305.9 407.7L303.8 409.4L302.6 410.2L302 411L300.5 409.7L299.1 411.4H297.9L296.6 411.5L296.4 414.7H295.6L294.8 416.2L293 416.5L292.2 414.5L290.5 413.9L291.2 411.3L290.5 410.6L289.3 410.2L286.8 410.9L286.7 410.1L285.1 409L284 407.8L282.4 407.2L283.7 405.6L283.4 404.3L283.9 403.1L286.8 401.3L289.6 398.8L290.2 399.1L291.5 398L293.1 397.9L293.6 398.4L294.5 398.1L297.1 398.7L299.7 398.5L301.5 397.8L302.3 397.1L304 397.4L305.3 397.8L306.8 397.7L308 397.1L310.5 398L311.3 398.2L312.9 399.4L314.4 400.8L316.3 401.8L317.6 403.5Z" fill="#20CFCF"/>
<path d="M317.6 403.5L317.1 404.2L316.6 405.6L317 407.9L315.5 410.1L314.7 412.7L314.2 415.5L314.4 417.2L314.3 420.1L313.4 420.7L312.7 423.5L312.9 425.2L311.7 426.8L311.8 428.5L312.6 429.6L311.2 431L309.5 430.5L308.7 429.2L306.9 428.7L305.6 429.5L302 427.8L301.1 428.6L299.3 426.6L296.8 424L295.7 421.9L293.5 419.8L291 416.9L291.7 415.9L292.5 416.9L293 416.5L294.8 416.2L295.6 414.7H296.4L296.6 411.5L297.9 411.4H299.1L300.5 409.7L302 411L302.6 410.2L303.8 409.4L305.9 407.7L306.1 406.3L306.6 406.4L307.5 404.9L308.1 404.7L309 405.7L310.1 405.9L311.4 405.1H312.8L314.8 404.3L315.7 403.4L317.6 403.5Z" fill="#20CFCF"/>
<path d="M290.5 413.9L289.8 415.4L286.5 415.3L284.5 414.7L282.3 413.4L279.3 413L277.8 411.6L278.1 410.7L280.1 409.1L281.3 408.4L281 407.6L282.4 407.2L284 407.8L285.1 409L286.7 410.1L286.8 410.9L289.3 410.2L290.5 410.6L291.2 411.3L290.5 413.9Z" fill="#20CFCF"/>
<path d="M247.3 333.9L249.5 333.7L246.3 339.4L244.5 344L242.7 352.6L241.6 355.7L242 359.2L243.3 362.4L243.7 367.3L246.7 372.1L247.5 375.8L249.2 378.9L254.9 380.6L256.8 383.3L262 381.5L266.3 380.9L270.7 379.7L274.3 378.6L278.2 376L280 372.3L281.2 366.9L282.4 365L286.4 363.3L292.5 361.8L297.4 362.1L300.8 361.5L302 362.9L301.4 366L297.9 369.8L296.1 373.7L297 374.8L295.8 377.6L293.7 382.6L292.5 380.9L291.4 381L290.3 381.1L287.8 385L286.9 384.2L286.2 384.5L286.1 385.5L280.9 385.4H275.7L275.2 389L272.7 389.1L274.5 391.2L276.4 392.7L276.9 394.1L277.7 394.5L277.3 396.7H270.1L266.8 401.9L267.5 403.1L266.7 404.6L266.3 406.5L260.7 399.6L258.1 397.5L253.7 395.8L250.5 396.3L245.7 398.7L242.8 399.3L239.1 397.6L235 396.4L230.2 393.5L226.1 392.6L220.2 389.6L215.9 386.5L214.8 384.8L211.7 384.4L206.3 382.4L204.4 379.5L199 375.8L196.8 371.8L196 368.6L197.9 368L197.6 366.2L199.2 364.5L199.6 362.3L198.1 359.4V356.9L196.8 353.6L193 347.2L188.4 342.2L186.5 338.2L182.4 335.6L181.7 334L183.4 330.1L181 328.6L178.5 325.4L178.3 321L175.5 320.4L173.2 317.1L171.5 313.9L171.8 311.9L170.3 307.1L170 302.2L170.8 299.7L167.7 297.1L165.8 297.4L163.4 295.7L161.6 298.3L161.5 301.3L160.5 306.2L161.5 308.8L164.3 313.2L164.7 314.8L165.4 315.2L165.5 317.4L166.5 317.3V321.5L167.8 323.1L168.3 325.4L171 328.6L171.4 334.6L172.4 337.4L173.3 340.4L173 343.8L175.6 344L177.2 346.9L178.7 349.8L178.4 351L175.6 353.3H174.6L173.9 349.4L171 345.7L167.6 342.6L165.1 341L166.3 336.3L166.2 332.8L164.1 330.8L161 328L160.1 328.8L159.1 327.1L156.1 325.6L153.9 321.8L154.4 321.4L156.5 321.7L159.2 319.3L160.2 316.4L157.3 311.8L154.7 310.1L153.9 306.1L153.3 301.8L152.5 296.7L152.3 290.9L158.6 290.4L165.7 289.7L164.8 291L171.8 294.1L182.7 298.6H193.5H197.8L198.6 295.9H208L209.3 298.2L211.4 300.3L213.8 303.1L214.6 306.4L215 310L217.3 311.9L221.3 313.8L226.1 308.8L230.6 308.6L233.8 311.2L235.4 315.6L236.3 319.4L238.7 323L238.9 327.5L239.8 330.5L243.7 332.5L247.3 333.9Z" fill="#20CFCF"/>
<path d="M509.5 175.8L504.5 181.2L508.4 179.1L511.3 180.5L508.9 182.6L512.7 184.3L515.5 182.8L519.8 184.7L517 189.3L520.8 188.2L520.5 191.5L521 195.4L517.4 201L515 201.2L512.1 200L514.6 194.9L513.4 194.1L506.1 199.5L503.1 199.3L507.5 196.3L503.1 194.8L497.6 195.2L488 195L487.8 193.2L491.6 190.9L489.9 189.3L495.3 185.5L503.5 175.6L507.7 172.1L512.7 170L514.8 170.2L513.3 171.9L509.5 175.8Z" fill="#20CFCF"/>
<path d="M465 78.6L460.1 78.9L460.8 76.2L464.6 73.1L468.9 72.4L471.2 73.9L469.7 76.2L468.8 77L465 78.6Z" fill="#20CFCF"/>
<path d="M485.1 46.8L484.4 48.2L480.3 48.1L476.2 48L471.3 48.7L470.4 48.3L468.3 45.6L470 43.8L472.2 43.4L480.6 44L485.1 46.8Z" fill="#20CFCF"/>
<path d="M388.9 19.7L383.2 20.6H377.2L378.2 19.9L383.9 18.6L385.6 18.8L388.9 19.7Z" fill="#20CFCF"/>
<path d="M476 14.9L478.7 16.4L472.2 17.7L461.6 21.2L454.8 21.5L448 20.9L446.4 19L448.5 17.4L452.8 16.2H446.2L444.2 14.7L444.6 12.8L449.5 10.9L453.6 9.60001L457.6 9.30001L457.3 8.30001L465.6 8.10001L467.2 10.3L471.9 11.2L476.7 12.1L476 14.9Z" fill="#20CFCF"/>
<path d="M383.7 384L384 382.2L382.7 380.3L384.2 379.2L384.9 376.7L384.8 373.3L385.6 372.2H389.9L393.1 373.8L394.6 373.7L395.3 376L398.4 375.8L398 377.7L400.5 378L403 380.3L400.7 382.9L398.1 381.5L395.5 381.8L393.7 381.5L392.6 382.7L390.4 383.1L389.7 381.5L387.8 382.4L385.1 386.8L383.8 385.8L383.7 384Z" fill="#20CFCF"/>
<path d="M384.8 373.3L384.9 376.7L384.2 379.2L382.7 380.3L384 382.2L383.7 384L380.1 382.9L377.4 383.3L374 382.9L371.3 384.1L368.5 382.1L369.2 380L374.3 380.9L378.4 381.4L380.6 380L378.3 377.2L378.7 374.7L375.2 373.7L376.7 372L380.1 372.2L384.8 373.3Z" fill="#20CFCF"/>
<path d="M347.3 444.2L346.6 445.1L347.7 448.9L346.6 450.8L344.8 450.3L343.9 453.4L342.1 451.6L341.1 448.1L342.5 446.4L341.1 446L340.2 443.9L337.4 442.1L335 442.5L333.7 444.7L331.3 446.3L330.1 446.5L329.5 447.9L332 451.4L330.4 452.2L329.6 453.1L326.9 453.5L326.1 449.6L325.3 450.7L323.5 450.3L322.5 447.8L320.2 447.3L318.7 446.6H316.3L316.1 448L315.5 447L315.8 445.7L316.4 444.4L316.2 443.3L317.1 442.5L316 441.6L316.1 439L318.3 438.4L320.2 440.7L320 442.1L322.2 442.4L322.8 441.8L324.3 443.4L327.1 442.9L329.6 441.3L333.1 440L335.1 438.1L338.2 438.5L338 439.1L341.1 439.3L343.5 440.5L345.3 442.4L347.3 444.2Z" fill="#20CFCF"/>
<path d="M432.2 382.9H432L432.3 382.5H432.6L432.4 382.8L432.2 382.9Z" fill="#20CFCF"/>
<path d="M438.7 389.9L439.3 390.2L439.1 390.5H438.9L438.2 390.6L438 390.5V390L438.3 389.9L438.4 389.6H438.6L438.7 389.9Z" fill="#20CFCF"/>
<path d="M438.7 386.2H438.9L439.1 386.4L439.2 386.8L439.1 387.1L438.9 387.2L438.8 387L438.5 386.8V386.3L438.7 386.2Z" fill="#20CFCF"/>
<path d="M378.4 364L378 364.5L377.8 365L377.2 365.3H376.7L376.6 365.2L376.2 365.4L375.7 365.5L375.1 365.3L374.7 365.4L374.6 364.9L374.9 364.7L375.1 364.4L375.5 364.2L375.8 363.8H376.2L376.5 363.6L376.7 363.9L377.2 364.1L377.7 363.9L378.4 362.9H378.7V363.1L378.4 364Z" fill="#20CFCF"/>
<path d="M378.6 362.3L378.4 361.7L379 361.4L379.3 361.7V361.9L379 362L378.6 362.3Z" fill="#20CFCF"/>
<path d="M379 355.8L379.2 355.7L379.7 356H380.1L380.5 356.1L380.8 356.3V356.6L380.6 356.7L380.1 356.3H379.7L379.6 356.2L379.1 356.4L378.6 356.2V356.1L378.8 355.6L379 355.8Z" fill="#20CFCF"/>
<path d="M375.1 354L374.9 354.4V355.1L374.8 355.5L374.4 355.8L374.2 356.2L373.8 356.5L373.1 356.8L373 357L372.8 356.8L372.9 356.6L373.3 356.5L373.5 356.3V356.1L373.9 356L374.1 355.6L374.5 355.5L374.8 355.1L374.6 354.8H374.2L374 354.6L374.4 354.1L374.5 354H375.1Z" fill="#20CFCF"/>
<path d="M373.2 353.7L373.3 353.8H373.7L374.1 354L373.7 354.4L373.6 354.2H373.4L373 354.1L372.6 353.9L372.3 353.3L372.6 353.2L373 353.3L373.2 353.7Z" fill="#20CFCF"/>
<path d="M372.9 345.4L372.5 346H372.1L372.3 345.7L372.4 345.1L372.8 344.8L372.9 345.2V345.4Z" fill="#20CFCF"/>
<path d="M433.2 385L433.1 384.7L433.4 384.8L433.2 385Z" fill="#20CFCF"/>
<path d="M440 399.7L440.5 399.8L440.7 400.3V400.9L440.6 401.7L440.5 401.9L440.3 402L439.9 402.2L440 401.8L439.9 401.6L439.8 400.9L439.5 400.4V400.1L439.6 399.8V399.5H439.8L440 399.7Z" fill="#20CFCF"/>
<path d="M434.3 390H434L433.9 389.8L434.1 389.4H434.3L434.4 389.6L434.3 390Z" fill="#20CFCF"/>
<path d="M433.6 388.5L433.5 388.8H433.3L432.9 388.6L432.7 388.4L433 388L433.5 388.4L433.6 388.5Z" fill="#20CFCF"/>
<path d="M432.2 384L431.8 383.9L432 383.6L432.3 383.5L432.2 384Z" fill="#20CFCF"/>
<path d="M436.2 391.9L436.4 392.3V392.6L436.2 392.8L436 392.7L435.9 392.4L436.2 391.9Z" fill="#20CFCF"/>
<path d="M405.1 383.9L404.8 383.7L404.9 383.5H405.2L405.3 383.6L405.1 383.9Z" fill="#20CFCF"/>
<path d="M419.7 383.4H419.5L418.6 383.7H418L418.2 383.5L418.6 383.3L419 383.2L419.6 383.3L419.7 383.4Z" fill="#20CFCF"/>
<path d="M410.2 381L410.8 381.1H411.4L411.7 381.2L412.3 381.1L412.6 381.2L413 381.1L413.2 381.2L413.7 381.1L414.1 381.2H414.4L415.2 381.4V381.2L415.8 381.4L415.9 381.3L416.7 381.4L416.9 381.6H417.1L417.7 381.9L417.9 381.8L417.8 382.5L418 382.8L417.1 383.1L416.8 383.5L416.5 384.1L416.2 384.3L415.9 384.4H415.5L414.9 384.5L414.6 384.7L413.9 384.6L413.7 384.4L413.2 384.6L412.9 384.3L412.2 384.5L411.3 384.4L411 384.5L410.4 384.6L410.2 384.7L410 384.5L409.6 384.4L409.3 384.6L408.7 384.5L409 383.8V383.4L409.2 383L409 382.4L408.8 382.3L408.7 381.9L409.1 381.7L409.3 381.6V381.1L409.7 380.9L410.2 381Z" fill="#20CFCF"/>
<path d="M432.2 384V384.1L431.8 384V383.9L432.2 384Z" fill="#20CFCF"/>
<path d="M385.7 359.6H386.4L386.7 360H386.4L386.1 359.9L385.6 360L385.5 359.7L385.7 359.6Z" fill="#20CFCF"/>
<path d="M383 359.5L383.3 359.9L383.9 359.8L383.7 360H383.1L382.7 359.8L383 359.5Z" fill="#20CFCF"/>
<path d="M385.2 358.9V359.4L384.7 359.2L384.6 358.9L384.7 358.8L385.2 358.9Z" fill="#20CFCF"/>
<path d="M424.1 381.4L423.7 381.6H423.6L423.3 381.8L423.2 381.7L423.3 381.4L423.9 381.3L424.1 381.4Z" fill="#20CFCF"/>
<path d="M422.5 385.8L422.8 386.1L421.7 386.3L421.6 385.8L422.3 385.6L422.5 385.8Z" fill="#20CFCF"/>
<path d="M423.2 382L423 382.2H422.5V382L422.8 381.9L423.2 382Z" fill="#20CFCF"/>
<path d="M421.8 381.8L422.2 382.1L422 382.3L421.7 382.1H421.2L421.4 381.9L421.8 381.8Z" fill="#20CFCF"/>
<path d="M432.3 387.6L432.1 387.7V387.5L432.2 387.4L432.3 387.6Z" fill="#20CFCF"/>
<path d="M430.8 386.7H430.7L430.8 386.5L430.9 386.6L430.8 386.7Z" fill="#20CFCF"/>
<path d="M442 404.9V405.1L442.4 405L442.2 405.5L442.4 405.7V405.9L442.6 406.1L442.8 407L442.5 407.3L442.4 406.9L442.3 407L441.7 406.9H441.3L441.1 406.6L441.7 406.1H441.3L440.9 405.7L440.8 405.2L440.6 404.7L440.9 404.3L441.3 404.4L441.8 404.7L442 404.9Z" fill="#20CFCF"/>
<path d="M441 397.9H440.7L440.5 397.5L440.6 397.3L440.9 397L441.2 397.2L441.3 397.5V397.7L441 397.9Z" fill="#20CFCF"/>
<path d="M439.2 395.3H439.5V395.5V395.6L439.3 395.7V396.5V396.9L439.1 397.1L438.5 397.4V397.2L438.3 397L438.2 396.5V396L438.1 395.5V395.2L438.3 394.9L438.6 394.8L439.1 395.1L439.2 395.3Z" fill="#20CFCF"/>
<path d="M440.6 394.9L441 395L441.5 395.4L440.2 395.7L439.9 395.8L439.5 395.5L439.6 394.9L439.8 394.8L439.7 394.2L439.8 394L440.1 393.8L440.4 394.2V394.6L440.6 394.9Z" fill="#20CFCF"/>
<path d="M437.2 422.5L436.8 422.8L436.6 422.7L436.5 422.2L436.7 421.7L437 421.3H437.3L437.4 421.6L437.3 422.3L437.2 422.5Z" fill="#20CFCF"/>
<path d="M390.9 420L390.4 419.8L389.9 419.3L390 418.7L390.2 419L390.6 419.4L390.9 419.9V420Z" fill="#20CFCF"/>
<path d="M397 422.5H396.7L396.3 422.2L396 422.1L395.7 421.8L395.6 421.6L395.3 421.5L395.1 421.1L394.8 420.8L394.9 420.3L395.4 420.6L395.5 421.1L395.9 421.5L396.6 421.7L396.8 422L397.1 422.4L397 422.5Z" fill="#20CFCF"/>
<path d="M400 422.6H399.8L399.7 422.1L399.8 421.8L399.7 421.5L399.3 421.4L399 421.1L399.1 420.8L400.3 421.4L400.2 421.6V422L400 422.2V422.6Z" fill="#20CFCF"/>
<path d="M440.2 415.4L440.1 415.5L439.6 415.2V414.8L439.8 414.5L440 414H440.4L440.5 414.4L440.4 415.2L440.2 415.4Z" fill="#20CFCF"/>
<path d="M443.2 427L443.1 427.5L442.8 427.6L442.4 427.9H442.2L441.5 428.3L441.3 428.1L441.6 427.8L442.3 427.3L443.2 427Z" fill="#20CFCF"/>
<path d="M441.7 411.8L441.5 411.6L441.1 411.4L441 411.2V410.6L441.1 410.4L441.8 409.3L442.1 409.5V410.2L442 411L441.9 411.4L441.7 411.8Z" fill="#20CFCF"/>
<path d="M330.7 375.8L331 375.9L331.2 375.5L331.6 375.6H332.1L332.2 375.8L332 376L331.8 375.9L331.4 376L331.2 376.1H330.5L330.7 375.8Z" fill="#20CFCF"/>
<path d="M338.8 373.3L338.1 373.6L338.3 373.3H338.8Z" fill="#20CFCF"/>
<path d="M339.4 373.4L339.3 373.3L340.1 373L339.9 373.3L339.4 373.4Z" fill="#20CFCF"/>
<path d="M449.5 416L448.9 415.8L448.8 415.3V414.5L449 414.1L449.2 414.3L449.4 414.9L449.9 415.2L450 415.6L449.5 416Z" fill="#20CFCF"/>
<path d="M364 347.8L364.6 348.5L364.9 348.7L365.2 349.2L364.9 349.1L364.8 348.9L364.5 348.8L364.1 348.4L363.9 348.3L363.7 347.9L364 347.8Z" fill="#20CFCF"/>
<path d="M367.7 347.8L368 348.4L368.2 348.9V349.3L368.4 349.5L368.6 350.2V351.1L368.8 351.4L369.3 351.6L369.7 352.2V353L369.3 352.3V352.1L369 351.7L368.4 351.5L368.6 351.3L368.3 351V350.7L368.5 350.4L368.4 349.9L368.1 349.5L368.2 349.4L367.9 349L367.8 348.4L367.6 348.5L367.7 347.8Z" fill="#20CFCF"/>
<path d="M370.6 347.8L370.3 348L370 347.9L369.9 347.7L370.5 347.5L370.6 347.8Z" fill="#20CFCF"/>
<path d="M362.4 345.9L362.3 345.8L362 345.1H362.2L362.4 345.9Z" fill="#20CFCF"/>
<path d="M354.4 344.2L354.1 344.3L353.9 344.6L353.6 344.5L354.2 344.1L354.4 344.2Z" fill="#20CFCF"/>
<path d="M354.6 344.9L355 345.1L355.2 344.9L355.3 344.4L355.5 344.3L355.7 344.9V345.4L355.6 345.7L355.7 346.3V346.6L355.3 347.4L355.1 347.5L354.7 347.3L354.9 347L355.3 346.8L355.2 346.7L354.6 347.1L354.4 346.9L354.8 346.6H354.4L354.2 346.7L354 346.5V345.8L354.1 345.6L353.7 345.1V344.9L354.1 344.7L354.2 344.4L354.5 344.3L354.6 344.1L355.2 343.8L355.3 344.2L354.8 344.6L354.6 344.9Z" fill="#20CFCF"/>
<path d="M368.1 344.3L368.2 344.8L368 344.7L367.5 344.8L367.1 344.9L367 344.7L367.3 344.5L367.7 344.2V344L367.3 343.8L367.1 343.2L367 342.6L366.6 342.2V342L366.1 341.5L366.4 341.2L366.8 341.6V342.1L367 342.4L367.1 342.9L367.4 343.4L367.8 343.7L367.9 344L368.1 344.3Z" fill="#20CFCF"/>
<path d="M357.8 338.8L358.1 339L357.5 339.3L357.2 339.2L357 339.4L356.5 339.3L356.7 339L357.1 338.8H357.8Z" fill="#20CFCF"/>
<path d="M353.6 338.3L354 338.1L354.3 338.4L354.2 338.6L354.3 338.8L354.1 339.2L354.4 339.5L354.6 340.4L354.8 340.7L355.2 341.2L355 341.9L355.1 342.5L354.9 342.8L354.6 342.9L354.2 343.3L353.9 343.5H353.6L353.3 343.7H353V343.3L352.7 343.1L352.8 342.5L352.5 342.8L352.3 342.7L351.7 342.3L351.4 342L351.2 341.7L351.9 341.4L352.4 342.1L352.5 341.5L352.2 341.4L352.1 341.1L352.2 340.8L352.8 340.2L353 339.8L352.9 339.7L353.2 339.3V338.8L353 338.1L353.1 338H353.4L353.6 338.3Z" fill="#20CFCF"/>
<path d="M361.7 335.7L361.8 335.9L362.1 336.3L362.9 337L363.4 337.1L363.5 337.2L363.7 337.6L364 338L364.5 338.4V338.6L364.3 339.4L364.2 339.6V339.9L364.1 340.4L363.9 340.7L363.8 341.4L363.7 341.5L363.5 340.9L363.1 340.6L363.2 340.4L363.7 340.5L363.9 340.3L363.8 340.1L363.9 339.7L364.2 339.3L364.3 338.8V338.5L363.8 338.1L363.4 337.4L363.1 337.2L362.5 336.9L362.2 336.6L361.6 336.4L361.2 336.6L361.6 335.7H361.7Z" fill="#20CFCF"/>
<path d="M352.9 328.2L353.4 328.4H353.5L354.2 328.5L354.4 328.3L354.6 328.4H355.1L355.5 328.2H355.9L356.2 328L356.3 328.5L356.2 328.7H355.9H355.5L354.4 328.9H354.1L352.6 329.3L351.9 329.7H351.5L351.3 329.6L351 329.3L350.5 328.7L351.1 329L351.2 329.2H351.7L352.2 329L352.6 328.4L352.3 328.3L352.5 328L352.6 327.7L352.9 328.2Z" fill="#20CFCF"/>
<path d="M357.2 326.9L358 327.1L358.2 327L358.6 327.3L359.5 328.3L359.7 328.9L360.1 329L360.8 329.5V329.7L360.6 330.2L360.8 330.9H360.4L359.9 331.3L359.8 331.5L359.5 332.5L359.4 333.4L359.2 333.6L358.9 333.4L358.8 333L358.4 332.9L358.7 332.4H358.9L359.4 332L359.3 331.6L359.5 331.2V330.9L359.7 330.6V330L359.9 329.9L360.1 329.6L360.2 329.3L359.9 329.2L359.4 329.1L359.3 328.8V328.6L358.9 328.4V328.1L358.6 327.4L358.4 327.3L358.1 327.4L357.6 327.3H357.3L356.7 326.9H357.2Z" fill="#20CFCF"/>
<path d="M35.2 97.6L36.4 98.6L39.9 98.1L41.5 99.6L44.8 100.3L43.6 101L38.7 102.2L37 100.9L36.7 99.9L32.4 100.2L32.1 99.7L35.2 97.6Z" fill="#20CFCF"/>
<path d="M73 136.6L66 138.9L65.2 137.3L67.5 134.5L73.9 132.4L77.4 131.5L80 131.9V133.8L73 136.6Z" fill="#20CFCF"/>
<path d="M34 120L30.1 120.9L28.4 119.8L27.6 118.2L33.3 117.2L36.3 117.8L34 120Z" fill="#20CFCF"/>
<path d="M354.5 385.1L352.7 386.2L349.7 385.1L346.8 382.8L347.6 381.3L350 380.9L351.3 381.1L355 381.7L357.7 383.2L358.5 385L354.5 385.1Z" fill="#20CFCF"/>
<path d="M478.3 185.6L475.9 185.7L470.1 183.8L466.6 180.8L468.5 180.3L474.4 181.9L478.6 184.5L478.3 185.6Z" fill="#20CFCF"/>
<path d="M463.9 201.6L467.3 202.5L472 202.3L468.7 204.9L466.7 205.3L461.2 202.6L460.6 200.5L463.1 198.6L463.9 201.6Z" fill="#20CFCF"/>
</svg>
