<svg width="265" height="434" viewBox="0 0 265 434" fill="none" xmlns="http://www.w3.org/2000/svg">
<path d="M144.1 429.7L141.1 429.5H136.1L130.1 415.9L133.2 418.7L137.5 423.3L145.3 427L152.6 428.5L151.8 431.5L147.4 431.8L144.1 429.7Z" fill="#FFB978"/>
<path d="M113.6 222.7L124.9 233.1L129.5 234.1L136.8 238.9L142.7 241.4L143.8 244.2L139.6 254L145.4 255.7L151.7 256.7L155.9 255.7L160.2 250.7L160.5 245.1L163.1 243.8L166.3 247.6L166.7 252.7L162.5 256.2L159.2 258.8L153.9 265.1L147.9 273.8L147.4 279L147 285.6L148.2 292L147.3 293.4L147.7 297.5L148 300.9L155.8 306.4L156 310.8L159.9 313.6L160.2 316.7L156.9 324.9L149.9 328.4L139.7 329.7L133.7 329L135.8 332.9L135.9 337.6L137.7 340.8L135.2 343.1L130.1 344L124.5 341.6L123 343.3L125.5 349.6L129.5 351.5L131.8 349.5L134.3 352.8L130.1 354.8L127.2 358.8L128.4 365.1L128.3 368.5H123.5L120.5 371.7L120.6 376.5L127.1 381.1L132.3 382.3L132.5 388L127.9 391.5L127.3 398.8L123.8 401.2L122.9 404.1L127.1 410.6L131.7 414.1L129.6 413.8L124.7 412.8L112.6 412L109.1 408.4L107.2 403.8L104.1 404.2L101.5 401.9L98.4 395.4L101.1 392.6L101.2 388.7L99.4 385.5L100.1 380.1L99 371.8L97.2 368.1L99 366.9L97.6 364.5L94.8 363.3L95.6 360.6L92.5 358.2L88.8 350.9L90.5 349.6L87.2 341.8L86.4 335.3L86.2 329.6L88.7 327.3L85.4 321L83.8 315.2L86.8 311L85.4 305.6L87 299.4L85.6 293.5L84 292.3L79.1 281.2L81.2 274.6L79.5 268.4L80.4 262.5L83 256.5L86.3 252.5L84.3 250L85.1 247.9L83.5 237.2L89.1 234.1L90.3 227.4L89.4 225.8L93.4 220L100.9 221.6L104.6 226.2L106.2 221L112.6 221.3L113.6 222.7Z" fill="#FFB978"/>
<path d="M137.5 209.4L137.2 207.4L131.8 204.1L126.6 204L117 205.9L114.9 211.5L115.1 215L113.6 222.7L112.6 221.3L106.2 221L104.6 226.2L100.9 221.6L93.4 220L89.4 225.8L85.5 226.7L82.4 217.8L78.7 210.6L79.8 204.4L76.6 201.7L75.4 197.1L72.2 192.7L75.1 185.8L72.2 180.4L73.3 178.2L72.1 175.8L74 172.6L73.7 167.2V162.6L74.8 160.5L69.3 150.1L73.5 150.7L76.4 150.5L77.5 148.6L82.3 146L85.2 143.6L92.5 142.5L92.1 147.3L93 149.8L92.7 154.1L99.2 159.8L105.6 160.9L107.9 163.3L111.8 164.6L114.3 166.4H117.8L121.2 168.3L121.7 172L122.9 173.9L123.2 176.6L121.5 176.7L124.3 184.2L135 184.5L134.5 188.2L135.3 190.7L138.5 192.5L140.2 196.5L139.6 201.6L138.3 204.4L139.1 208L137.5 209.4Z" fill="#FFB978"/>
<path d="M140.8 67.6L143.9 68.2L144.5 66.8L143.5 65.6L144.1 63.7L146.4 64.3L149.1 63.6L152.3 65L154.8 66.3L156.5 64.6L157.8 64.8L158.6 66.6L161.3 66.2L163.5 63.7L165.3 59L168.7 53.1L170.7 52.8L172 56.4L175 67.6L178.1 68.7L178.2 73.1L173.9 78.4L175.6 80.3L185.7 81.3L185.9 87.8L190.2 83.6L197.3 85.9L206.8 89.8L209.6 93.5L208.7 97.1L215.3 95.1L226.3 98.5L234.8 98.3L243.2 103.6L250.6 110.8L255 112.6L259.8 112.9L261.9 114.9L263.9 123.1L265 127L262.9 137.6L260.2 141.8L252.5 150.7L249.1 158L245.1 163.5L243.7 163.7L242.4 168.4L243.3 180.4L242.2 190.3L241.9 194.5L240.3 197.1L239.8 205.7L234.6 214L234.1 220.7L229.8 223.4L228.7 227.3H222.7L214.2 229.7L210.5 232.6L204.5 234.5L198.4 239.6L194.3 246L194 250.8L195.3 254.3L195 260.8L194.2 263.9L190.8 267.5L186.3 278.8L182.3 283.8L179.1 286.9L177.6 293L174.7 296.6L172.6 293L174.4 289.9L170.6 285.6L165.8 282L159.5 277.9L157.6 278.1L151.3 273.1L147.9 273.8L153.9 265.1L159.2 258.8L162.5 256.2L166.7 252.7L166.3 247.6L163.1 243.8L160.5 245.1L161.2 241.4L161.5 237.6L161.2 234L159.1 232.9L157.1 233.9L155 233.6L154.2 231.2L153.1 225.3L151.9 223.4L148 221.6L145.8 222.9L139.9 221.6L139.5 212.9L137.5 209.4L139.1 208L138.3 204.4L139.6 201.6L140.2 196.5L138.5 192.5L135.3 190.7L134.5 188.2L135 184.5L124.3 184.2L121.5 176.7L123.2 176.6L122.9 173.9L121.7 172L121.2 168.3L117.8 166.4H114.3L111.8 164.6L107.9 163.3L105.6 160.9L99.2 159.8L92.7 154.1L93 149.8L92.1 147.3L92.5 142.5L85.2 143.6L82.3 146L77.5 148.6L76.4 150.5L73.5 150.7L69.3 150.1L66.1 151.2L63.5 150.5L63.4 140.8L59 144.5L54 144.4L51.7 140.9L47.9 140.6L48.9 137.8L45.6 133.9L43 128.1L44.5 127L44.3 124.2L47.7 122.4L47 118.9L48.4 116.7L48.7 113.7L55 109.3L59.6 108.1L60.4 107.1L65.5 107.4L67.7 89.8L67.8 87L66.9 83.4L64.3 81L64.4 76.3L67.6 75.3L68.7 76L68.9 73.5L65.6 72.8V68.8L76.6 69L78.5 66.7L80.1 68.8L81.1 72.6L82.2 71.8L85.3 75.2L89.7 74.8L90.8 72.8L95 71.3L97.4 70.2L98.1 67.5L102.2 65.7L101.9 64.3L97.1 63.8L96.4 59.7L96.7 55.4L94.2 53.8L95.3 53.2L99.4 54L103.9 55.6L105.6 54.1L109.7 53.1L116.1 50.7L118.2 48.2L117.5 46.4L120.5 46.2L121.7 47.6L120.9 50.5L122.9 51.4L124.1 54.4L122.5 56.7L121.5 62.1L122.9 65.4L123.2 68.4L126.7 71.4L129.5 71.7L130.1 70.4L131.9 70.1L134.5 69L136.3 67.3L139.5 67.9L140.8 67.6Z" fill="#FFB978"/>
<path d="M59.4 4.20001L55.7 5.29999L54.1 8.5L51.8 10.3L50 12.7L49.1 17.3L47.3 21.1L50.2 21.5L50.8 24.4L52 25.9L52.3 28.4L51.6 30.8L51.7 32.2L53.1 32.7L54.3 34.9L61.6 34.3L64.9 35.1L68.7 40.7L71 40L75.1 40.3L78.3 39.6L80.3 40.7L79.1 44.1L77.8 46.3L77.2 50.9L78.3 55.2L79.8 57.1L80 58.5L77.1 61.7L79.1 63.1L80.6 65.4L82.2 71.8L81.1 72.6L80.1 68.8L78.5 66.7L76.6 69L65.6 68.8V72.8L68.9 73.5L68.7 76L67.6 75.3L64.4 76.3L64.3 81L66.9 83.4L67.8 87L67.7 89.8L65.5 107.4L62.6 104L60.9 103.9L64.4 97.3L60 94.3L56.6 94.9L54.5 93.8L51.4 95.5L47.2 94.6L43.7 87.9L41.1 86.3L39.3 83.2L35.5 80.2L34 80.8L31.6 79.3L28.8 77.2L27.2 78.2L22.4 77.3L21 74.5L19.9 74.6L14.3 71L13.6 69L15.7 68.5L15.5 65.3L16.9 62.9L19.7 62.5L22.2 58.5L24.4 55.1L22.4 53.6L23.6 49.9L22.5 44L23.8 42.3L23.1 36.9L20.9 33.4L21.8 30.3L23.6 30.8L24.7 28.9L23.6 25.1L24.3 24.2L27.2 24.4L31.7 19.9L34.1 19.2L34.2 17.1L35.6 11.6L39 8.70001L42.5 8.5L43.1 7.20001L47.5 7.70001L52.1 4.5L54.4 3.10001L57.3 0L59.3 0.399994L60.6 2.10001L59.4 4.20001Z" fill="#FFB978"/>
<path d="M34 80.8L34.8 85.7L33.1 89.8L27 96.6L20.3 99.1L16.9 104.7L16 109L12.9 111.7L10.4 108.4L8.09998 107.7L5.79999 108.2L5.5 105.9L7.09998 104.4L6.40002 101.7L9.29999 96.9L8 94.1L5.90002 97.1L2.40002 94.2L3.5 92.4L2.5 86.6L4.5 85.6L5.5 81.6L7.59998 77.5L7.29999 74.9L10.4 73.5L14.3 71L19.9 74.6L21 74.5L22.4 77.3L27.2 78.2L28.8 77.2L31.6 79.3L34 80.8Z" fill="#FFB978"/>
<path d="M137.9 41.5L136.9 47.3L133.4 48.9L133.7 50.4L132.6 53.8L135 58.4H136.8L137.5 62L140.8 67.6L139.5 67.9L136.3 67.3L134.5 69L131.9 70.1L130.1 70.4L129.5 71.7L126.7 71.4L123.2 68.4L122.9 65.4L121.5 62.1L122.5 56.7L124.1 54.4L122.9 51.4L120.9 50.5L121.7 47.6L120.5 46.2L117.5 46.4L113.8 41.6L115.4 39.8V36.8L118.9 35.8L120.3 34.6L118.5 32.2L119 29.9L123.7 26.1L127.3 28.5L130.6 32.6L130.7 36L132.8 36.1L135.8 39.2L137.9 41.5Z" fill="#FFB978"/>
<path d="M65.5 107.4L60.4 107.1L59.6 108.1L55 109.3L48.7 113.7L48.4 116.7L47 118.9L47.7 122.4L44.3 124.2L44.5 127L43 128.1L45.6 133.9L48.9 137.8L47.9 140.6L51.7 140.9L54 144.4L59 144.5L63.4 140.8L63.5 150.5L66.1 151.2L69.3 150.1L74.8 160.5L73.7 162.6V167.2L74 172.6L72.1 175.8L73.3 178.2L72.2 180.4L75.1 185.8L72.2 192.7L71.1 196L68.3 197.6L62.4 193.9L61.6 191.3L49.9 184.9L39.2 177.8L34.5 173.9L31.7 168.6L32.5 166.7L27.1 158.3L20.7 146.5L14.7 133.7L12.3 130.7L10.3 126L5.70001 121.8L1.59998 119.2L3.29999 116.4L0.299988 110.2L2 105.7L6.40002 101.7L7.09998 104.4L5.5 105.9L5.79999 108.2L8.09998 107.7L10.4 108.4L12.9 111.7L16 109L16.9 104.7L20.3 99.1L27 96.6L33.1 89.8L34.8 85.7L34 80.8L35.5 80.2L39.3 83.2L41.1 86.3L43.7 87.9L47.2 94.6L51.4 95.5L54.5 93.8L56.6 94.9L60 94.3L64.4 97.3L60.9 103.9L62.6 104L65.5 107.4Z" fill="#FFB978"/>
<path d="M137.5 209.4L139.5 212.9L139.9 221.6L145.8 222.9L148 221.6L151.9 223.4L153.1 225.3L154.2 231.2L155 233.6L157.1 233.9L159.1 232.9L161.2 234L161.5 237.6L161.2 241.4L160.5 245.1L160.2 250.7L155.9 255.7L151.7 256.7L145.4 255.7L139.6 254L143.8 244.2L142.7 241.4L136.8 238.9L129.5 234.1L124.9 233.1L113.6 222.7L115.1 215L114.9 211.5L117 205.9L126.6 204L131.8 204.1L137.2 207.4L137.5 209.4Z" fill="#FFB978"/>
<path d="M156 42.9L152.9 48.4L153.2 52.8L155.4 56.6L154.3 59.3L153.8 62.3L152.3 65L149.1 63.6L146.4 64.3L144.1 63.7L143.5 65.6L144.5 66.8L143.9 68.2L140.8 67.6L137.5 62L136.8 58.4H135L132.6 53.8L133.7 50.4L133.4 48.9L136.9 47.3L137.9 41.5L144.7 42.8L145.3 41.6L149.9 41.1L156 42.9Z" fill="#FFB978"/>
<path d="M174.7 296.6L173.1 300.7L167.7 304.2L163.5 302.9L160.7 303.6L155.2 300.9L151.6 301.1L147.7 297.5L147.3 293.4L148.2 292L147 285.6L147.4 279L147.9 273.8L151.3 273.1L157.6 278.1L159.5 277.9L165.8 282L170.6 285.6L174.4 289.9L172.6 293L174.7 296.6Z" fill="#FFB978"/>
<path d="M123.7 26.1L119 29.9L118.5 32.2L120.3 34.6L118.9 35.8L115.4 36.8V39.8L113.8 41.6L117.5 46.4L118.2 48.2L116.1 50.7L109.7 53.1L105.6 54.1L103.9 55.6L99.4 54L95.3 53.2L94.2 53.8L96.7 55.4L96.4 59.7L97.1 63.8L101.9 64.3L102.2 65.7L98.1 67.5L97.4 70.2L95 71.3L90.8 72.8L89.7 74.8L85.3 75.2L82.2 71.8L80.6 65.4L79.1 63.1L77.1 61.7L80 58.5L79.8 57.1L78.3 55.2L77.2 50.9L77.8 46.3L79.1 44.1L80.3 40.7L78.3 39.6L75.1 40.3L71 40L68.7 40.7L64.9 35.1L61.6 34.3L54.3 34.9L53.1 32.7L51.7 32.2L51.6 30.8L52.3 28.4L52 25.9L50.8 24.4L50.2 21.5L47.3 21.1L49.1 17.3L50 12.7L51.8 10.3L54.1 8.5L55.7 5.29999L59.4 4.20001L59.2 5.70001L55.8 6.5L57.5 9.39999L57.2 12.8L54.5 16.5L56.4 21.6L58.9 21.2L60.4 16.5L58.7 14.3V9.39999L65.9 6.79999L65.3 3.79999L67.4 1.70001L69.1 6.29999L73.1 6.39999L76.5 9.89999L76.7 12.1H81.7L87.8 11.5L90.9 14.3L95.1 15.1L98.4 13.1L98.5 11.5L105.6 11.1L112.3 11L107.4 12.9L109.2 16L113.7 16.4L117.9 19.6L118.6 24.7L121.5 24.6L123.7 26.1Z" fill="#FFB978"/>
<path d="M130.1 415.9L136.1 429.5H141.1L144.1 429.7L143.6 432.1L140.4 434L138 433.8L134.9 433.3L130.7 431.5L125.3 430.6L117.8 427.2L111.4 424L101.6 417.1L106.2 418.4L114.8 422.5L122.1 424.7L123.3 421.9L123 417.7L126.4 415.1L130.1 415.9Z" fill="#FFB978"/>
<path d="M89.4 225.8L90.3 227.4L89.1 234.1L83.5 237.2L85.1 247.9L84.3 250L86.3 252.5L83 256.5L80.4 262.5L79.5 268.4L81.2 274.6L79.1 281.2L84 292.3L85.6 293.5L87 299.4L85.4 305.6L86.8 311L83.8 315.2L85.4 321L88.7 327.3L86.2 329.6L86.4 335.3L87.2 341.8L90.5 349.6L88.8 350.9L92.5 358.2L95.6 360.6L94.8 363.3L97.6 364.5L99 366.9L97.2 368.1L99 371.8L100.1 380.1L99.4 385.5L101.2 388.7L101.1 392.6L98.4 395.4L101.5 401.9L104.1 404.2L107.2 403.8L109.1 408.4L112.6 412L124.7 412.8L129.6 413.8H125.3L123.6 415.3L120.2 417.5L121.9 423.2L120 423.3L113.7 421.4L106.2 417.1L98.6 413.6L95.4 409.7L95.1 406.1L90.9 401.9L85.9 391.3L85.7 385.3L89.1 380.5L80.8 378.6L83.5 373.1L81.5 362.6L88 364.8L86.2 351.7L82.2 350L83.2 357.9L79.7 357L78.2 348L76.2 336.2L77.3 331.8L74 325.6L71.6 318.4L73.8 318.1L74.4 307.8L75.6 297.5L75.7 288L72.4 278.3L73 273L70.9 265.1L72.7 257.3L71.8 244.9V231.5L71.9 217.2L70.4 206.7L68.3 197.6L71.1 196L72.2 192.7L75.4 197.1L76.6 201.7L79.8 204.4L78.7 210.6L82.4 217.8L85.5 226.7L89.4 225.8Z" fill="#FFB978"/>
<path d="M152.3 65L153.8 62.2L154.3 59.3L155.3 56.6L153.2 52.8L152.9 48.4L156 42.9L157.9 43.6L162 45.1L167.9 50.5L168.7 53.1L165.3 59L163.5 63.7L161.3 66.2L158.6 66.6L157.8 64.8L156.5 64.6L154.8 66.3L152.3 65Z" fill="#FFB978"/>
<path d="M172.4 414.2L172.8 414.1V414.5L172 414.2L172.3 413.9L172.5 413.8L172.4 414.2Z" fill="#FFB978"/>
<path d="M171.7 412.8L171.9 413L172.3 413.1L172.4 413.5L172.1 413.6L172 413.2L171.8 413L171.7 412.8Z" fill="#FFB978"/>
<path d="M177.9 412L178.1 412.1L178 412.5L177.7 412.4L177.5 412.1L177.8 411.9L177.9 412Z" fill="#FFB978"/>
<path d="M165.8 411.1V411.3L165.9 411.6L165.5 411.7L165.2 411.6L165 411.4L164.7 411.3L164.6 410.9H164.8L164.9 410.7L165.2 410.6L165.4 410.7L165.1 411L165.4 411.1L165.7 410.8L165.8 411.1Z" fill="#FFB978"/>
<path d="M168.7 409.8L168.3 409.6L167.8 409.3L167 409L167.1 408.6L166.4 408.5L166.1 408.4L165.8 408L166 407.9L166.8 408.2L167.6 408.6L168.1 408.7L168.5 408.8L168.8 408.5L168.9 408.2L169.1 408.3L169.5 408.1L169.6 408.3H170.1V408.6H170.4L171.3 408.4L171.4 408.6H171.7L172.1 408.5L171.8 408.3L171.7 408H172.1L172.7 408.2L172.8 408.6L172.4 409.1L172.5 409.4L172.3 409.6H171.9L171.6 410.4L171.3 410.7L171 411.3L170.9 411.6L170.4 411.9L170.3 411.7H169.9V412L169.1 411.9L169 412L169.3 412.4L169.2 412.5L169 412.9H168.6L168.3 413.3L168 413.4H167.8L167.6 413.1L167.2 412.8V412.6H166.7L167.3 413H166.9L166.4 412.7L166.2 412.6L165.8 412.4L165.5 412.2V412L166.2 412.2L166.8 412L166.3 411.8L166.2 411.7H167.1L167.5 411.8L167.8 412V411.8L168.2 411.7L168.3 411.4L167.9 411.2L167.7 410.7L167.8 410.5H168.4L168.6 410.6L169 410.5L168.9 410.2H168.1V410.3L167.7 410.5H167.1L166.6 410.2V409.9L167.3 410.1L167.9 409.9H168.2L168.7 409.8L169.1 410V409.9L168.7 409.8Z" fill="#FFB978"/>
<path d="M170.3 407.9H170.6L170.9 408.2L170.6 408.3H170.3V407.9Z" fill="#FFB978"/>
<path d="M169.3 407.9H169L168.9 407.6L169.3 407.7V407.9Z" fill="#FFB978"/>
<path d="M167.9 407.7L168.5 407.6L168.7 407.9L168.4 408.3L168.2 408.2L167.9 408.3L167.6 408.1L167.9 407.9L168.2 408.1L168.3 407.9L167.8 407.8L167.9 407.7Z" fill="#FFB978"/>
<path d="M175.1 407.8H175.7L175.8 407.7L176.3 407.6L176.7 407.8L177.1 408.1L177.2 408.4V408.5L176.7 408.6L176.5 408.3L176.3 408.2L176.2 408.5L176.4 408.6L176.5 408.9L176.8 408.7L177 408.8L177.1 409.2L177.4 409.3L177.5 409.2L178 409.5L178.1 409.1L177.3 408.9L177.4 408.4L177.7 408.2L179.2 408.1L179.9 408.7L180.1 408.8V409.2L179.5 409.1L179 408.9L178.4 409.1L178.7 409.3L179.1 409.4L180 409.5L180.3 409.6L180.4 409.8L180.2 410.3H179.7L179.6 410.4L178.9 410.5L178.4 410.7L178.7 410.9L177.8 411.3L177.4 411.2L176.9 411.3H176.2L175.6 411.1L175 410.7V411L175.3 411.2L175.9 411.4L176.2 411.7L176.4 411.6L176.8 411.7L177.2 412L177 412.1L177.2 412.6H177L176.7 412.3L176.3 412.2L175.8 412.6L175.6 412.3L175.3 412.1H175L174.5 411.9L174.3 412L174.5 412.4H174.8L175 412.6L174.8 412.7L175.5 413.3L175.3 413.4L174.9 413.2H174.6L174.3 412.9L174 412.8L173.7 412.7L173.6 413.3L174.1 413.4V413.7L174 413.9L173.6 413.8L173.5 413.6L173 413.4L172.9 413.2H172.7L172.3 412.7L172.6 412.3V412.1L172.2 411.6V411.4L172.7 411.2L172.6 411L173.1 410.9L173 410.6L173.6 410.2L174.2 410L174.6 410.4V410.8L174.9 410.7L174.4 410.1L174.5 409.8L173.9 409.6L173.5 409.3L173.6 409.1L174 409.3L174.1 408.8L173.4 408.6L173.5 408.3L173.7 408.4L174 408.2H174.3L174.5 407.9L174.2 407.6H174.6L175.1 407.8Z" fill="#FFB978"/>
<path d="M170.1 407.4H170.8L171 407.6L171.2 407.4L171.4 407.5L171.6 407.8L171.4 407.9L171 407.8L170.6 407.6L169.8 407.5L169.9 407.3L170.1 407.4Z" fill="#FFB978"/>
<path d="M163.3 406.3L162.8 406.2L162.9 406L163.3 406.3Z" fill="#FFB978"/>
<path d="M117.8 10.2L117.6 10.7L117.3 11.1L117.1 11.2L117 11.6L117.2 12.2L117 12.3V13L117.2 13.3L117.4 13.5L117.2 13.7L117.1 14V14.7L116.9 14.8L116.5 15L116 15.1H115.7L115.2 15.2L114.7 15.1L114.3 15.2L114 15.1L113.5 15.3L113.1 15.1H112.5L112.2 15.3L111.9 15.2L112.4 15L112.7 14.7L113.1 14.6L113.5 14.3L113.7 14L114.3 14.1L114.6 13.7L114.4 12.9L114.6 12.5V12V11.8L114.3 11.4L114 11.3L113.6 11.2L113.5 11.1L113.9 10.8L115 10.7L115.2 10.5H116.3L116.4 10.4L117.6 10.2H117.8Z" fill="#FFB978"/>
</svg>
